<?xml version="1.0" encoding="utf-8" standalone="no"?>
<!DOCTYPE svg PUBLIC "-//W3C//DTD SVG 1.1//EN"
  "http://www.w3.org/Graphics/SVG/1.1/DTD/svg11.dtd">
<svg xmlns:xlink="http://www.w3.org/1999/xlink" width="312.779375pt" height="214.257188pt" viewBox="0 0 312.779375 214.257188" xmlns="http://www.w3.org/2000/svg" version="1.1">
 <metadata>
  <rdf:RDF xmlns:dc="http://purl.org/dc/elements/1.1/" xmlns:cc="http://creativecommons.org/ns#" xmlns:rdf="http://www.w3.org/1999/02/22-rdf-syntax-ns#">
   <cc:Work>
    <dc:type rdf:resource="http://purl.org/dc/dcmitype/StillImage"/>
    <dc:date>2023-06-29T16:04:01.692271</dc:date>
    <dc:format>image/svg+xml</dc:format>
    <dc:creator>
     <cc:Agent>
      <dc:title>Matplotlib v3.5.1, https://matplotlib.org/</dc:title>
     </cc:Agent>
    </dc:creator>
   </cc:Work>
  </rdf:RDF>
 </metadata>
 <defs>
  <style type="text/css">*{stroke-linejoin: round; stroke-linecap: butt}</style>
 </defs>
 <g id="figure_1">
  <g id="patch_1">
   <path d="M 0 214.257188 
L 312.779375 214.257188 
L 312.779375 0 
L 0 0 
L 0 214.257188 
z
" style="fill: none"/>
  </g>
  <g id="axes_1">
   <g id="patch_2">
    <path d="M 50.14375 176.700938 
L 217.54375 176.700938 
L 217.54375 13.620937 
L 50.14375 13.620937 
z
" style="fill: #ffffff"/>
   </g>
   <g id="matplotlib.axis_1">
    <g id="xtick_1">
     <g id="line2d_1">
      <defs>
       <path id="m940607145d" d="M 0 0 
L 0 3.5 
" style="stroke: #000000; stroke-width: 0.8"/>
      </defs>
      <g>
       <use xlink:href="#m940607145d" x="50.14375" y="176.700938" style="stroke: #000000; stroke-width: 0.8"/>
      </g>
     </g>
     <g id="text_1">
      <!-- 0 -->
      <g transform="translate(46.9625 191.299375)scale(0.1 -0.1)">
       <defs>
        <path id="DejaVuSans-30" d="M 2034 4250 
Q 1547 4250 1301 3770 
Q 1056 3291 1056 2328 
Q 1056 1369 1301 889 
Q 1547 409 2034 409 
Q 2525 409 2770 889 
Q 3016 1369 3016 2328 
Q 3016 3291 2770 3770 
Q 2525 4250 2034 4250 
z
M 2034 4750 
Q 2819 4750 3233 4129 
Q 3647 3509 3647 2328 
Q 3647 1150 3233 529 
Q 2819 -91 2034 -91 
Q 1250 -91 836 529 
Q 422 1150 422 2328 
Q 422 3509 836 4129 
Q 1250 4750 2034 4750 
z
" transform="scale(0.015625)"/>
       </defs>
       <use xlink:href="#DejaVuSans-30"/>
      </g>
     </g>
    </g>
    <g id="xtick_2">
     <g id="line2d_2">
      <g>
       <use xlink:href="#m940607145d" x="91.99375" y="176.700938" style="stroke: #000000; stroke-width: 0.8"/>
      </g>
     </g>
     <g id="text_2">
      <!-- 10 -->
      <g transform="translate(85.63125 191.299375)scale(0.1 -0.1)">
       <defs>
        <path id="DejaVuSans-31" d="M 794 531 
L 1825 531 
L 1825 4091 
L 703 3866 
L 703 4441 
L 1819 4666 
L 2450 4666 
L 2450 531 
L 3481 531 
L 3481 0 
L 794 0 
L 794 531 
z
" transform="scale(0.015625)"/>
       </defs>
       <use xlink:href="#DejaVuSans-31"/>
       <use xlink:href="#DejaVuSans-30" x="63.623047"/>
      </g>
     </g>
    </g>
    <g id="xtick_3">
     <g id="line2d_3">
      <g>
       <use xlink:href="#m940607145d" x="133.84375" y="176.700938" style="stroke: #000000; stroke-width: 0.8"/>
      </g>
     </g>
     <g id="text_3">
      <!-- 20 -->
      <g transform="translate(127.48125 191.299375)scale(0.1 -0.1)">
       <defs>
        <path id="DejaVuSans-32" d="M 1228 531 
L 3431 531 
L 3431 0 
L 469 0 
L 469 531 
Q 828 903 1448 1529 
Q 2069 2156 2228 2338 
Q 2531 2678 2651 2914 
Q 2772 3150 2772 3378 
Q 2772 3750 2511 3984 
Q 2250 4219 1831 4219 
Q 1534 4219 1204 4116 
Q 875 4013 500 3803 
L 500 4441 
Q 881 4594 1212 4672 
Q 1544 4750 1819 4750 
Q 2544 4750 2975 4387 
Q 3406 4025 3406 3419 
Q 3406 3131 3298 2873 
Q 3191 2616 2906 2266 
Q 2828 2175 2409 1742 
Q 1991 1309 1228 531 
z
" transform="scale(0.015625)"/>
       </defs>
       <use xlink:href="#DejaVuSans-32"/>
       <use xlink:href="#DejaVuSans-30" x="63.623047"/>
      </g>
     </g>
    </g>
    <g id="xtick_4">
     <g id="line2d_4">
      <g>
       <use xlink:href="#m940607145d" x="175.69375" y="176.700938" style="stroke: #000000; stroke-width: 0.8"/>
      </g>
     </g>
     <g id="text_4">
      <!-- 30 -->
      <g transform="translate(169.33125 191.299375)scale(0.1 -0.1)">
       <defs>
        <path id="DejaVuSans-33" d="M 2597 2516 
Q 3050 2419 3304 2112 
Q 3559 1806 3559 1356 
Q 3559 666 3084 287 
Q 2609 -91 1734 -91 
Q 1441 -91 1130 -33 
Q 819 25 488 141 
L 488 750 
Q 750 597 1062 519 
Q 1375 441 1716 441 
Q 2309 441 2620 675 
Q 2931 909 2931 1356 
Q 2931 1769 2642 2001 
Q 2353 2234 1838 2234 
L 1294 2234 
L 1294 2753 
L 1863 2753 
Q 2328 2753 2575 2939 
Q 2822 3125 2822 3475 
Q 2822 3834 2567 4026 
Q 2313 4219 1838 4219 
Q 1578 4219 1281 4162 
Q 984 4106 628 3988 
L 628 4550 
Q 988 4650 1302 4700 
Q 1616 4750 1894 4750 
Q 2613 4750 3031 4423 
Q 3450 4097 3450 3541 
Q 3450 3153 3228 2886 
Q 3006 2619 2597 2516 
z
" transform="scale(0.015625)"/>
       </defs>
       <use xlink:href="#DejaVuSans-33"/>
       <use xlink:href="#DejaVuSans-30" x="63.623047"/>
      </g>
     </g>
    </g>
    <g id="xtick_5">
     <g id="line2d_5">
      <g>
       <use xlink:href="#m940607145d" x="217.54375" y="176.700938" style="stroke: #000000; stroke-width: 0.8"/>
      </g>
     </g>
     <g id="text_5">
      <!-- 40 -->
      <g transform="translate(211.18125 191.299375)scale(0.1 -0.1)">
       <defs>
        <path id="DejaVuSans-34" d="M 2419 4116 
L 825 1625 
L 2419 1625 
L 2419 4116 
z
M 2253 4666 
L 3047 4666 
L 3047 1625 
L 3713 1625 
L 3713 1100 
L 3047 1100 
L 3047 0 
L 2419 0 
L 2419 1100 
L 313 1100 
L 313 1709 
L 2253 4666 
z
" transform="scale(0.015625)"/>
       </defs>
       <use xlink:href="#DejaVuSans-34"/>
       <use xlink:href="#DejaVuSans-30" x="63.623047"/>
      </g>
     </g>
    </g>
    <g id="text_6">
     <!-- Career Years -->
     <g transform="translate(102.355469 204.9775)scale(0.1 -0.1)">
      <defs>
       <path id="DejaVuSans-43" d="M 4122 4306 
L 4122 3641 
Q 3803 3938 3442 4084 
Q 3081 4231 2675 4231 
Q 1875 4231 1450 3742 
Q 1025 3253 1025 2328 
Q 1025 1406 1450 917 
Q 1875 428 2675 428 
Q 3081 428 3442 575 
Q 3803 722 4122 1019 
L 4122 359 
Q 3791 134 3420 21 
Q 3050 -91 2638 -91 
Q 1578 -91 968 557 
Q 359 1206 359 2328 
Q 359 3453 968 4101 
Q 1578 4750 2638 4750 
Q 3056 4750 3426 4639 
Q 3797 4528 4122 4306 
z
" transform="scale(0.015625)"/>
       <path id="DejaVuSans-61" d="M 2194 1759 
Q 1497 1759 1228 1600 
Q 959 1441 959 1056 
Q 959 750 1161 570 
Q 1363 391 1709 391 
Q 2188 391 2477 730 
Q 2766 1069 2766 1631 
L 2766 1759 
L 2194 1759 
z
M 3341 1997 
L 3341 0 
L 2766 0 
L 2766 531 
Q 2569 213 2275 61 
Q 1981 -91 1556 -91 
Q 1019 -91 701 211 
Q 384 513 384 1019 
Q 384 1609 779 1909 
Q 1175 2209 1959 2209 
L 2766 2209 
L 2766 2266 
Q 2766 2663 2505 2880 
Q 2244 3097 1772 3097 
Q 1472 3097 1187 3025 
Q 903 2953 641 2809 
L 641 3341 
Q 956 3463 1253 3523 
Q 1550 3584 1831 3584 
Q 2591 3584 2966 3190 
Q 3341 2797 3341 1997 
z
" transform="scale(0.015625)"/>
       <path id="DejaVuSans-72" d="M 2631 2963 
Q 2534 3019 2420 3045 
Q 2306 3072 2169 3072 
Q 1681 3072 1420 2755 
Q 1159 2438 1159 1844 
L 1159 0 
L 581 0 
L 581 3500 
L 1159 3500 
L 1159 2956 
Q 1341 3275 1631 3429 
Q 1922 3584 2338 3584 
Q 2397 3584 2469 3576 
Q 2541 3569 2628 3553 
L 2631 2963 
z
" transform="scale(0.015625)"/>
       <path id="DejaVuSans-65" d="M 3597 1894 
L 3597 1613 
L 953 1613 
Q 991 1019 1311 708 
Q 1631 397 2203 397 
Q 2534 397 2845 478 
Q 3156 559 3463 722 
L 3463 178 
Q 3153 47 2828 -22 
Q 2503 -91 2169 -91 
Q 1331 -91 842 396 
Q 353 884 353 1716 
Q 353 2575 817 3079 
Q 1281 3584 2069 3584 
Q 2775 3584 3186 3129 
Q 3597 2675 3597 1894 
z
M 3022 2063 
Q 3016 2534 2758 2815 
Q 2500 3097 2075 3097 
Q 1594 3097 1305 2825 
Q 1016 2553 972 2059 
L 3022 2063 
z
" transform="scale(0.015625)"/>
       <path id="DejaVuSans-20" transform="scale(0.015625)"/>
       <path id="DejaVuSans-59" d="M -13 4666 
L 666 4666 
L 1959 2747 
L 3244 4666 
L 3922 4666 
L 2272 2222 
L 2272 0 
L 1638 0 
L 1638 2222 
L -13 4666 
z
" transform="scale(0.015625)"/>
       <path id="DejaVuSans-73" d="M 2834 3397 
L 2834 2853 
Q 2591 2978 2328 3040 
Q 2066 3103 1784 3103 
Q 1356 3103 1142 2972 
Q 928 2841 928 2578 
Q 928 2378 1081 2264 
Q 1234 2150 1697 2047 
L 1894 2003 
Q 2506 1872 2764 1633 
Q 3022 1394 3022 966 
Q 3022 478 2636 193 
Q 2250 -91 1575 -91 
Q 1294 -91 989 -36 
Q 684 19 347 128 
L 347 722 
Q 666 556 975 473 
Q 1284 391 1588 391 
Q 1994 391 2212 530 
Q 2431 669 2431 922 
Q 2431 1156 2273 1281 
Q 2116 1406 1581 1522 
L 1381 1569 
Q 847 1681 609 1914 
Q 372 2147 372 2553 
Q 372 3047 722 3315 
Q 1072 3584 1716 3584 
Q 2034 3584 2315 3537 
Q 2597 3491 2834 3397 
z
" transform="scale(0.015625)"/>
      </defs>
      <use xlink:href="#DejaVuSans-43"/>
      <use xlink:href="#DejaVuSans-61" x="69.824219"/>
      <use xlink:href="#DejaVuSans-72" x="131.103516"/>
      <use xlink:href="#DejaVuSans-65" x="169.966797"/>
      <use xlink:href="#DejaVuSans-65" x="231.490234"/>
      <use xlink:href="#DejaVuSans-72" x="293.013672"/>
      <use xlink:href="#DejaVuSans-20" x="334.126953"/>
      <use xlink:href="#DejaVuSans-59" x="365.914062"/>
      <use xlink:href="#DejaVuSans-65" x="413.748047"/>
      <use xlink:href="#DejaVuSans-61" x="475.271484"/>
      <use xlink:href="#DejaVuSans-72" x="536.550781"/>
      <use xlink:href="#DejaVuSans-73" x="577.664062"/>
     </g>
    </g>
   </g>
   <g id="matplotlib.axis_2">
    <g id="ytick_1">
     <g id="line2d_6">
      <defs>
       <path id="m8cd98b11d2" d="M 0 0 
L -3.5 0 
" style="stroke: #000000; stroke-width: 0.8"/>
      </defs>
      <g>
       <use xlink:href="#m8cd98b11d2" x="50.14375" y="143.968127" style="stroke: #000000; stroke-width: 0.8"/>
      </g>
     </g>
     <g id="text_7">
      <!-- 0.05 -->
      <g transform="translate(20.878125 147.767346)scale(0.1 -0.1)">
       <defs>
        <path id="DejaVuSans-2e" d="M 684 794 
L 1344 794 
L 1344 0 
L 684 0 
L 684 794 
z
" transform="scale(0.015625)"/>
        <path id="DejaVuSans-35" d="M 691 4666 
L 3169 4666 
L 3169 4134 
L 1269 4134 
L 1269 2991 
Q 1406 3038 1543 3061 
Q 1681 3084 1819 3084 
Q 2600 3084 3056 2656 
Q 3513 2228 3513 1497 
Q 3513 744 3044 326 
Q 2575 -91 1722 -91 
Q 1428 -91 1123 -41 
Q 819 9 494 109 
L 494 744 
Q 775 591 1075 516 
Q 1375 441 1709 441 
Q 2250 441 2565 725 
Q 2881 1009 2881 1497 
Q 2881 1984 2565 2268 
Q 2250 2553 1709 2553 
Q 1456 2553 1204 2497 
Q 953 2441 691 2322 
L 691 4666 
z
" transform="scale(0.015625)"/>
       </defs>
       <use xlink:href="#DejaVuSans-30"/>
       <use xlink:href="#DejaVuSans-2e" x="63.623047"/>
       <use xlink:href="#DejaVuSans-30" x="95.410156"/>
       <use xlink:href="#DejaVuSans-35" x="159.033203"/>
      </g>
     </g>
    </g>
    <g id="ytick_2">
     <g id="line2d_7">
      <g>
       <use xlink:href="#m8cd98b11d2" x="50.14375" y="108.411206" style="stroke: #000000; stroke-width: 0.8"/>
      </g>
     </g>
     <g id="text_8">
      <!-- 0.10 -->
      <g transform="translate(20.878125 112.210425)scale(0.1 -0.1)">
       <use xlink:href="#DejaVuSans-30"/>
       <use xlink:href="#DejaVuSans-2e" x="63.623047"/>
       <use xlink:href="#DejaVuSans-31" x="95.410156"/>
       <use xlink:href="#DejaVuSans-30" x="159.033203"/>
      </g>
     </g>
    </g>
    <g id="ytick_3">
     <g id="line2d_8">
      <g>
       <use xlink:href="#m8cd98b11d2" x="50.14375" y="72.854285" style="stroke: #000000; stroke-width: 0.8"/>
      </g>
     </g>
     <g id="text_9">
      <!-- 0.15 -->
      <g transform="translate(20.878125 76.653504)scale(0.1 -0.1)">
       <use xlink:href="#DejaVuSans-30"/>
       <use xlink:href="#DejaVuSans-2e" x="63.623047"/>
       <use xlink:href="#DejaVuSans-31" x="95.410156"/>
       <use xlink:href="#DejaVuSans-35" x="159.033203"/>
      </g>
     </g>
    </g>
    <g id="ytick_4">
     <g id="line2d_9">
      <g>
       <use xlink:href="#m8cd98b11d2" x="50.14375" y="37.297364" style="stroke: #000000; stroke-width: 0.8"/>
      </g>
     </g>
     <g id="text_10">
      <!-- 0.20 -->
      <g transform="translate(20.878125 41.096583)scale(0.1 -0.1)">
       <use xlink:href="#DejaVuSans-30"/>
       <use xlink:href="#DejaVuSans-2e" x="63.623047"/>
       <use xlink:href="#DejaVuSans-32" x="95.410156"/>
       <use xlink:href="#DejaVuSans-30" x="159.033203"/>
      </g>
     </g>
    </g>
    <g id="text_11">
     <!-- Fraction of collaborations per order -->
     <g transform="translate(14.798438 183.121875)rotate(-90)scale(0.1 -0.1)">
      <defs>
       <path id="DejaVuSans-46" d="M 628 4666 
L 3309 4666 
L 3309 4134 
L 1259 4134 
L 1259 2759 
L 3109 2759 
L 3109 2228 
L 1259 2228 
L 1259 0 
L 628 0 
L 628 4666 
z
" transform="scale(0.015625)"/>
       <path id="DejaVuSans-63" d="M 3122 3366 
L 3122 2828 
Q 2878 2963 2633 3030 
Q 2388 3097 2138 3097 
Q 1578 3097 1268 2742 
Q 959 2388 959 1747 
Q 959 1106 1268 751 
Q 1578 397 2138 397 
Q 2388 397 2633 464 
Q 2878 531 3122 666 
L 3122 134 
Q 2881 22 2623 -34 
Q 2366 -91 2075 -91 
Q 1284 -91 818 406 
Q 353 903 353 1747 
Q 353 2603 823 3093 
Q 1294 3584 2113 3584 
Q 2378 3584 2631 3529 
Q 2884 3475 3122 3366 
z
" transform="scale(0.015625)"/>
       <path id="DejaVuSans-74" d="M 1172 4494 
L 1172 3500 
L 2356 3500 
L 2356 3053 
L 1172 3053 
L 1172 1153 
Q 1172 725 1289 603 
Q 1406 481 1766 481 
L 2356 481 
L 2356 0 
L 1766 0 
Q 1100 0 847 248 
Q 594 497 594 1153 
L 594 3053 
L 172 3053 
L 172 3500 
L 594 3500 
L 594 4494 
L 1172 4494 
z
" transform="scale(0.015625)"/>
       <path id="DejaVuSans-69" d="M 603 3500 
L 1178 3500 
L 1178 0 
L 603 0 
L 603 3500 
z
M 603 4863 
L 1178 4863 
L 1178 4134 
L 603 4134 
L 603 4863 
z
" transform="scale(0.015625)"/>
       <path id="DejaVuSans-6f" d="M 1959 3097 
Q 1497 3097 1228 2736 
Q 959 2375 959 1747 
Q 959 1119 1226 758 
Q 1494 397 1959 397 
Q 2419 397 2687 759 
Q 2956 1122 2956 1747 
Q 2956 2369 2687 2733 
Q 2419 3097 1959 3097 
z
M 1959 3584 
Q 2709 3584 3137 3096 
Q 3566 2609 3566 1747 
Q 3566 888 3137 398 
Q 2709 -91 1959 -91 
Q 1206 -91 779 398 
Q 353 888 353 1747 
Q 353 2609 779 3096 
Q 1206 3584 1959 3584 
z
" transform="scale(0.015625)"/>
       <path id="DejaVuSans-6e" d="M 3513 2113 
L 3513 0 
L 2938 0 
L 2938 2094 
Q 2938 2591 2744 2837 
Q 2550 3084 2163 3084 
Q 1697 3084 1428 2787 
Q 1159 2491 1159 1978 
L 1159 0 
L 581 0 
L 581 3500 
L 1159 3500 
L 1159 2956 
Q 1366 3272 1645 3428 
Q 1925 3584 2291 3584 
Q 2894 3584 3203 3211 
Q 3513 2838 3513 2113 
z
" transform="scale(0.015625)"/>
       <path id="DejaVuSans-66" d="M 2375 4863 
L 2375 4384 
L 1825 4384 
Q 1516 4384 1395 4259 
Q 1275 4134 1275 3809 
L 1275 3500 
L 2222 3500 
L 2222 3053 
L 1275 3053 
L 1275 0 
L 697 0 
L 697 3053 
L 147 3053 
L 147 3500 
L 697 3500 
L 697 3744 
Q 697 4328 969 4595 
Q 1241 4863 1831 4863 
L 2375 4863 
z
" transform="scale(0.015625)"/>
       <path id="DejaVuSans-6c" d="M 603 4863 
L 1178 4863 
L 1178 0 
L 603 0 
L 603 4863 
z
" transform="scale(0.015625)"/>
       <path id="DejaVuSans-62" d="M 3116 1747 
Q 3116 2381 2855 2742 
Q 2594 3103 2138 3103 
Q 1681 3103 1420 2742 
Q 1159 2381 1159 1747 
Q 1159 1113 1420 752 
Q 1681 391 2138 391 
Q 2594 391 2855 752 
Q 3116 1113 3116 1747 
z
M 1159 2969 
Q 1341 3281 1617 3432 
Q 1894 3584 2278 3584 
Q 2916 3584 3314 3078 
Q 3713 2572 3713 1747 
Q 3713 922 3314 415 
Q 2916 -91 2278 -91 
Q 1894 -91 1617 61 
Q 1341 213 1159 525 
L 1159 0 
L 581 0 
L 581 4863 
L 1159 4863 
L 1159 2969 
z
" transform="scale(0.015625)"/>
       <path id="DejaVuSans-70" d="M 1159 525 
L 1159 -1331 
L 581 -1331 
L 581 3500 
L 1159 3500 
L 1159 2969 
Q 1341 3281 1617 3432 
Q 1894 3584 2278 3584 
Q 2916 3584 3314 3078 
Q 3713 2572 3713 1747 
Q 3713 922 3314 415 
Q 2916 -91 2278 -91 
Q 1894 -91 1617 61 
Q 1341 213 1159 525 
z
M 3116 1747 
Q 3116 2381 2855 2742 
Q 2594 3103 2138 3103 
Q 1681 3103 1420 2742 
Q 1159 2381 1159 1747 
Q 1159 1113 1420 752 
Q 1681 391 2138 391 
Q 2594 391 2855 752 
Q 3116 1113 3116 1747 
z
" transform="scale(0.015625)"/>
       <path id="DejaVuSans-64" d="M 2906 2969 
L 2906 4863 
L 3481 4863 
L 3481 0 
L 2906 0 
L 2906 525 
Q 2725 213 2448 61 
Q 2172 -91 1784 -91 
Q 1150 -91 751 415 
Q 353 922 353 1747 
Q 353 2572 751 3078 
Q 1150 3584 1784 3584 
Q 2172 3584 2448 3432 
Q 2725 3281 2906 2969 
z
M 947 1747 
Q 947 1113 1208 752 
Q 1469 391 1925 391 
Q 2381 391 2643 752 
Q 2906 1113 2906 1747 
Q 2906 2381 2643 2742 
Q 2381 3103 1925 3103 
Q 1469 3103 1208 2742 
Q 947 2381 947 1747 
z
" transform="scale(0.015625)"/>
      </defs>
      <use xlink:href="#DejaVuSans-46"/>
      <use xlink:href="#DejaVuSans-72" x="50.269531"/>
      <use xlink:href="#DejaVuSans-61" x="91.382812"/>
      <use xlink:href="#DejaVuSans-63" x="152.662109"/>
      <use xlink:href="#DejaVuSans-74" x="207.642578"/>
      <use xlink:href="#DejaVuSans-69" x="246.851562"/>
      <use xlink:href="#DejaVuSans-6f" x="274.634766"/>
      <use xlink:href="#DejaVuSans-6e" x="335.816406"/>
      <use xlink:href="#DejaVuSans-20" x="399.195312"/>
      <use xlink:href="#DejaVuSans-6f" x="430.982422"/>
      <use xlink:href="#DejaVuSans-66" x="492.164062"/>
      <use xlink:href="#DejaVuSans-20" x="527.369141"/>
      <use xlink:href="#DejaVuSans-63" x="559.15625"/>
      <use xlink:href="#DejaVuSans-6f" x="614.136719"/>
      <use xlink:href="#DejaVuSans-6c" x="675.318359"/>
      <use xlink:href="#DejaVuSans-6c" x="703.101562"/>
      <use xlink:href="#DejaVuSans-61" x="730.884766"/>
      <use xlink:href="#DejaVuSans-62" x="792.164062"/>
      <use xlink:href="#DejaVuSans-6f" x="855.640625"/>
      <use xlink:href="#DejaVuSans-72" x="916.822266"/>
      <use xlink:href="#DejaVuSans-61" x="957.935547"/>
      <use xlink:href="#DejaVuSans-74" x="1019.214844"/>
      <use xlink:href="#DejaVuSans-69" x="1058.423828"/>
      <use xlink:href="#DejaVuSans-6f" x="1086.207031"/>
      <use xlink:href="#DejaVuSans-6e" x="1147.388672"/>
      <use xlink:href="#DejaVuSans-73" x="1210.767578"/>
      <use xlink:href="#DejaVuSans-20" x="1262.867188"/>
      <use xlink:href="#DejaVuSans-70" x="1294.654297"/>
      <use xlink:href="#DejaVuSans-65" x="1358.130859"/>
      <use xlink:href="#DejaVuSans-72" x="1419.654297"/>
      <use xlink:href="#DejaVuSans-20" x="1460.767578"/>
      <use xlink:href="#DejaVuSans-6f" x="1492.554688"/>
      <use xlink:href="#DejaVuSans-72" x="1553.736328"/>
      <use xlink:href="#DejaVuSans-64" x="1593.099609"/>
      <use xlink:href="#DejaVuSans-65" x="1656.576172"/>
      <use xlink:href="#DejaVuSans-72" x="1718.099609"/>
     </g>
    </g>
   </g>
   <g id="line2d_10">
    <path d="M 50.14375 54.503897 
L 54.32875 68.119164 
L 58.51375 74.993258 
L 62.69875 79.801626 
L 66.88375 87.433291 
L 71.06875 94.109727 
L 75.25375 96.690449 
L 79.43875 99.858634 
L 83.62375 102.373547 
L 87.80875 107.43248 
L 91.99375 109.429195 
L 96.17875 113.443585 
L 100.36375 116.492051 
L 104.54875 117.776917 
L 108.73375 121.287592 
L 112.91875 121.862285 
L 117.10375 125.889204 
L 121.28875 126.89977 
L 125.47375 128.935225 
L 129.65875 129.373845 
L 133.84375 129.891912 
L 138.02875 130.796524 
L 142.21375 131.198979 
L 146.39875 131.745697 
L 150.58375 131.891563 
L 154.76875 131.580185 
L 158.95375 131.845817 
L 163.13875 131.303084 
L 167.32375 131.783949 
L 171.50875 128.898679 
L 175.69375 128.200702 
L 179.87875 127.2752 
L 184.06375 128.064502 
L 188.24875 128.527395 
L 192.43375 128.076978 
L 196.61875 127.922776 
L 200.80375 123.93238 
L 204.98875 122.082574 
L 209.17375 122.167207 
L 213.35875 126.462017 
L 217.54375 132.572271 
" clip-path="url(#p668b8add24)" style="fill: none; stroke: #d81b60; stroke-opacity: 0.8; stroke-width: 3; stroke-linecap: square"/>
   </g>
   <g id="line2d_11">
    <path d="M 50.14375 21.033665 
L 54.32875 23.26539 
L 58.51375 30.136138 
L 62.69875 32.761308 
L 66.88375 36.044353 
L 71.06875 35.246628 
L 75.25375 38.294757 
L 79.43875 42.367297 
L 83.62375 44.819781 
L 87.80875 44.721123 
L 91.99375 42.973668 
L 96.17875 42.803921 
L 100.36375 44.931825 
L 104.54875 48.642431 
L 108.73375 51.892818 
L 112.91875 54.81065 
L 117.10375 58.185804 
L 121.28875 58.624931 
L 125.47375 57.561449 
L 129.65875 56.796744 
L 133.84375 58.357001 
L 138.02875 59.344372 
L 142.21375 62.078956 
L 146.39875 64.936001 
L 150.58375 66.268178 
L 154.76875 62.266574 
L 158.95375 60.503539 
L 163.13875 63.675303 
L 167.32375 69.054195 
L 171.50875 69.353751 
L 175.69375 66.876973 
L 179.87875 67.741225 
L 184.06375 68.265982 
L 188.24875 66.275336 
L 192.43375 64.392669 
L 196.61875 62.336817 
L 200.80375 66.133366 
L 204.98875 65.969914 
L 209.17375 65.982623 
L 213.35875 66.493442 
L 217.54375 69.441084 
" clip-path="url(#p668b8add24)" style="fill: none; stroke: #1e88e5; stroke-opacity: 0.8; stroke-width: 3; stroke-linecap: square"/>
   </g>
   <g id="line2d_12">
    <path d="M 50.14375 47.223279 
L 54.32875 43.063522 
L 58.51375 42.544183 
L 62.69875 41.459205 
L 66.88375 43.515918 
L 71.06875 42.569816 
L 75.25375 45.853956 
L 79.43875 47.515944 
L 83.62375 48.126311 
L 87.80875 49.258518 
L 91.99375 49.36567 
L 96.17875 50.601468 
L 100.36375 47.451592 
L 104.54875 46.542698 
L 108.73375 46.143597 
L 112.91875 47.035425 
L 117.10375 45.618865 
L 121.28875 47.570759 
L 125.47375 50.37351 
L 129.65875 54.163024 
L 133.84375 53.061285 
L 138.02875 52.178796 
L 142.21375 48.126717 
L 146.39875 48.029106 
L 150.58375 47.977376 
L 154.76875 51.839465 
L 158.95375 52.212975 
L 163.13875 51.436723 
L 167.32375 51.646037 
L 171.50875 52.992429 
L 175.69375 54.381855 
L 179.87875 49.519005 
L 184.06375 50.191177 
L 188.24875 50.893615 
L 192.43375 51.523902 
L 196.61875 54.020533 
L 200.80375 55.844095 
L 204.98875 60.449033 
L 209.17375 55.454559 
L 213.35875 54.148104 
L 217.54375 58.021961 
" clip-path="url(#p668b8add24)" style="fill: none; stroke: #ffc107; stroke-opacity: 0.2; stroke-width: 3; stroke-linecap: square"/>
   </g>
   <g id="line2d_13">
    <path d="M 50.14375 75.393838 
L 54.32875 73.869205 
L 58.51375 70.627478 
L 62.69875 68.702623 
L 66.88375 65.529134 
L 71.06875 66.458351 
L 75.25375 67.04723 
L 79.43875 68.243146 
L 83.62375 67.115671 
L 87.80875 66.640785 
L 91.99375 65.734397 
L 96.17875 65.394669 
L 100.36375 66.212703 
L 104.54875 65.338163 
L 108.73375 65.949401 
L 112.91875 63.15015 
L 117.10375 61.870628 
L 121.28875 62.171962 
L 125.47375 64.936397 
L 129.65875 64.497556 
L 133.84375 62.218058 
L 138.02875 59.882763 
L 142.21375 62.781591 
L 146.39875 62.796394 
L 150.58375 63.77686 
L 154.76875 61.943785 
L 158.95375 61.218052 
L 163.13875 60.366073 
L 167.32375 55.956032 
L 171.50875 57.753859 
L 175.69375 56.963898 
L 179.87875 62.872567 
L 184.06375 59.193873 
L 188.24875 59.769706 
L 192.43375 56.162025 
L 196.61875 58.686219 
L 200.80375 59.41501 
L 204.98875 58.435838 
L 209.17375 61.895808 
L 213.35875 63.69025 
L 217.54375 66.629468 
" clip-path="url(#p668b8add24)" style="fill: none; stroke: #004d40; stroke-opacity: 0.2; stroke-width: 3; stroke-linecap: square"/>
   </g>
   <g id="line2d_14">
    <path d="M 50.14375 115.480051 
L 54.32875 109.242631 
L 58.51375 104.7029 
L 62.69875 105.414445 
L 66.88375 102.620335 
L 71.06875 101.912385 
L 75.25375 99.756679 
L 79.43875 98.081606 
L 83.62375 98.864819 
L 87.80875 98.730301 
L 91.99375 97.615402 
L 96.17875 95.68038 
L 100.36375 94.816794 
L 104.54875 96.104844 
L 108.73375 93.943067 
L 112.91875 91.864139 
L 117.10375 90.632356 
L 121.28875 89.782119 
L 125.47375 89.164461 
L 129.65875 89.122383 
L 133.84375 90.165248 
L 138.02875 90.850602 
L 142.21375 89.368507 
L 146.39875 87.545771 
L 150.58375 84.250577 
L 154.76875 86.687565 
L 158.95375 88.769558 
L 163.13875 92.540505 
L 167.32375 91.849763 
L 171.50875 90.543039 
L 175.69375 88.089352 
L 179.87875 87.805943 
L 184.06375 87.826849 
L 188.24875 87.932411 
L 192.43375 85.887641 
L 196.61875 87.033548 
L 200.80375 91.210645 
L 204.98875 95.492668 
L 209.17375 99.071374 
L 213.35875 101.601712 
L 217.54375 104.9643 
" clip-path="url(#p668b8add24)" style="fill: none; stroke: #11c0ae; stroke-opacity: 0.2; stroke-width: 3; stroke-linecap: square"/>
   </g>
   <g id="line2d_15">
    <path d="M 50.14375 133.325179 
L 54.32875 133.745161 
L 58.51375 131.772773 
L 62.69875 129.844766 
L 66.88375 127.803238 
L 71.06875 128.035879 
L 75.25375 127.12488 
L 79.43875 125.347521 
L 83.62375 124.815146 
L 87.80875 122.25359 
L 91.99375 123.038328 
L 96.17875 120.398987 
L 100.36375 119.879922 
L 104.54875 119.317614 
L 108.73375 119.111203 
L 112.91875 121.308418 
L 117.10375 119.664427 
L 121.28875 118.787187 
L 125.47375 117.853472 
L 129.65875 117.61938 
L 133.84375 117.25394 
L 138.02875 114.441151 
L 142.21375 113.134049 
L 146.39875 113.316938 
L 150.58375 117.383371 
L 154.76875 118.136299 
L 158.95375 117.997445 
L 163.13875 113.625657 
L 167.32375 115.48236 
L 171.50875 114.907766 
L 175.69375 117.243096 
L 179.87875 115.955131 
L 184.06375 117.308964 
L 188.24875 116.944515 
L 192.43375 119.134735 
L 196.61875 120.015138 
L 200.80375 119.813673 
L 204.98875 116.721781 
L 209.17375 111.996393 
L 213.35875 112.050496 
L 217.54375 116.474893 
" clip-path="url(#p668b8add24)" style="fill: none; stroke: #8b749e; stroke-opacity: 0.2; stroke-width: 3; stroke-linecap: square"/>
   </g>
   <g id="line2d_16">
    <path d="M 50.14375 155.108618 
L 54.32875 153.551176 
L 58.51375 152.038469 
L 62.69875 150.522127 
L 66.88375 148.73263 
L 71.06875 146.795978 
L 75.25375 143.89936 
L 79.43875 142.054498 
L 83.62375 142.017737 
L 87.80875 143.22872 
L 91.99375 143.131286 
L 96.17875 142.520721 
L 100.36375 141.327707 
L 104.54875 140.886069 
L 108.73375 139.952793 
L 112.91875 140.02415 
L 117.10375 139.63406 
L 121.28875 139.629298 
L 125.47375 137.862103 
L 129.65875 136.852116 
L 133.84375 136.702639 
L 138.02875 136.794066 
L 142.21375 136.429876 
L 146.39875 134.751028 
L 150.58375 135.402575 
L 154.76875 136.177683 
L 158.95375 136.321863 
L 163.13875 137.423727 
L 167.32375 136.184654 
L 171.50875 137.075907 
L 175.69375 135.624765 
L 179.87875 136.654211 
L 184.06375 136.878785 
L 188.24875 136.054918 
L 192.43375 134.985045 
L 196.61875 133.249095 
L 200.80375 134.655164 
L 204.98875 136.468367 
L 209.17375 138.379118 
L 213.35875 132.800828 
L 217.54375 120.860619 
" clip-path="url(#p668b8add24)" style="fill: none; stroke: #72aa08; stroke-opacity: 0.8; stroke-width: 3; stroke-linecap: square"/>
   </g>
   <g id="line2d_17">
    <path d="M 50.14375 162.799072 
L 54.32875 162.124185 
L 58.51375 162.406857 
L 62.69875 161.190245 
L 66.88375 160.341995 
L 71.06875 157.394448 
L 75.25375 156.185318 
L 79.43875 155.516615 
L 83.62375 154.550839 
L 87.80875 153.590977 
L 91.99375 152.50389 
L 96.17875 152.566413 
L 100.36375 152.297961 
L 104.54875 150.696327 
L 108.73375 150.257017 
L 112.91875 149.767295 
L 117.10375 150.839768 
L 121.28875 150.424838 
L 125.47375 149.797149 
L 129.65875 149.95894 
L 133.84375 150.301192 
L 138.02875 151.071607 
L 142.21375 151.176364 
L 146.39875 150.732379 
L 150.58375 149.990693 
L 154.76875 148.093612 
L 158.95375 148.8216 
L 163.13875 148.337152 
L 167.32375 149.067391 
L 171.50875 148.564923 
L 175.69375 150.854487 
L 179.87875 151.426109 
L 184.06375 152.877858 
L 188.24875 152.300248 
L 192.43375 153.534998 
L 196.61875 153.226133 
L 200.80375 152.774063 
L 204.98875 150.739497 
L 209.17375 150.374863 
L 213.35875 145.583922 
L 217.54375 136.617859 
" clip-path="url(#p668b8add24)" style="fill: none; stroke: #c32bc2; stroke-opacity: 0.2; stroke-width: 3; stroke-linecap: square"/>
   </g>
   <g id="line2d_18">
    <path d="M 50.14375 169.28821 
L 54.32875 168.17166 
L 58.51375 166.60248 
L 62.69875 166.98455 
L 66.88375 166.043373 
L 71.06875 166.624149 
L 75.25375 165.444661 
L 79.43875 164.599219 
L 83.62375 164.494358 
L 87.80875 163.112988 
L 91.99375 163.00712 
L 96.17875 161.767027 
L 100.36375 162.639828 
L 104.54875 162.596014 
L 108.73375 161.722992 
L 112.91875 161.1758 
L 117.10375 160.509127 
L 121.28875 159.542977 
L 125.47375 159.364338 
L 129.65875 158.956541 
L 133.84375 160.85974 
L 138.02875 161.535788 
L 142.21375 162.395966 
L 146.39875 162.147172 
L 150.58375 160.925925 
L 154.76875 159.633609 
L 158.95375 159.096153 
L 163.13875 158.88159 
L 167.32375 159.741115 
L 171.50875 160.117538 
L 175.69375 160.066415 
L 179.87875 160.019372 
L 184.06375 159.837983 
L 188.24875 159.69473 
L 192.43375 161.285905 
L 196.61875 159.62372 
L 200.80375 160.120071 
L 204.98875 160.015126 
L 209.17375 162.869754 
L 213.35875 163.36592 
L 217.54375 160.755266 
" clip-path="url(#p668b8add24)" style="fill: none; stroke: #bbb2d5; stroke-opacity: 0.2; stroke-width: 3; stroke-linecap: square"/>
   </g>
   <g id="line2d_19">
    <path d="M 50.14375 149.956251 
L 54.32875 148.959966 
L 58.51375 148.287524 
L 62.69875 147.431164 
L 66.88375 146.047794 
L 71.06875 144.964698 
L 75.25375 143.81477 
L 79.43875 140.527581 
L 83.62375 136.933851 
L 87.80875 135.142578 
L 91.99375 137.313107 
L 96.17875 138.934888 
L 100.36375 138.061676 
L 104.54875 136.210984 
L 108.73375 133.85158 
L 112.91875 133.113747 
L 117.10375 131.267822 
L 121.28875 130.67822 
L 125.47375 128.263957 
L 129.65875 126.771532 
L 133.84375 125.301045 
L 138.02875 127.216391 
L 142.21375 127.421054 
L 146.39875 128.111574 
L 150.58375 126.244943 
L 154.76875 127.753283 
L 158.95375 127.325059 
L 163.13875 126.522246 
L 167.32375 123.346564 
L 171.50875 123.904172 
L 175.69375 125.810517 
L 179.87875 124.843297 
L 184.06375 123.666087 
L 188.24875 125.719186 
L 192.43375 129.128162 
L 196.61875 127.998081 
L 200.80375 120.213593 
L 204.98875 117.737263 
L 209.17375 115.920361 
L 213.35875 117.91537 
L 217.54375 117.774339 
" clip-path="url(#p668b8add24)" style="fill: none; stroke: #38141e; stroke-opacity: 0.8; stroke-width: 3; stroke-linecap: square"/>
   </g>
   <g id="patch_3">
    <path d="M 50.14375 176.700938 
L 50.14375 13.620938 
" style="fill: none; stroke: #000000; stroke-width: 0.8; stroke-linejoin: miter; stroke-linecap: square"/>
   </g>
   <g id="patch_4">
    <path d="M 50.14375 176.700938 
L 217.54375 176.700938 
" style="fill: none; stroke: #000000; stroke-width: 0.8; stroke-linejoin: miter; stroke-linecap: square"/>
   </g>
   <g id="legend_1">
    <g id="line2d_20">
     <path d="M 234.91375 29.980975 
L 244.91375 29.980975 
L 254.91375 29.980975 
" style="fill: none; stroke: #d81b60; stroke-opacity: 0.8; stroke-width: 3; stroke-linecap: square"/>
    </g>
    <g id="text_12">
     <!-- 0-Order -->
     <g transform="translate(262.91375 33.480975)scale(0.1 -0.1)">
      <defs>
       <path id="DejaVuSans-2d" d="M 313 2009 
L 1997 2009 
L 1997 1497 
L 313 1497 
L 313 2009 
z
" transform="scale(0.015625)"/>
       <path id="DejaVuSans-4f" d="M 2522 4238 
Q 1834 4238 1429 3725 
Q 1025 3213 1025 2328 
Q 1025 1447 1429 934 
Q 1834 422 2522 422 
Q 3209 422 3611 934 
Q 4013 1447 4013 2328 
Q 4013 3213 3611 3725 
Q 3209 4238 2522 4238 
z
M 2522 4750 
Q 3503 4750 4090 4092 
Q 4678 3434 4678 2328 
Q 4678 1225 4090 567 
Q 3503 -91 2522 -91 
Q 1538 -91 948 565 
Q 359 1222 359 2328 
Q 359 3434 948 4092 
Q 1538 4750 2522 4750 
z
" transform="scale(0.015625)"/>
      </defs>
      <use xlink:href="#DejaVuSans-30"/>
      <use xlink:href="#DejaVuSans-2d" x="63.623047"/>
      <use xlink:href="#DejaVuSans-4f" x="102.457031"/>
      <use xlink:href="#DejaVuSans-72" x="181.167969"/>
      <use xlink:href="#DejaVuSans-64" x="220.53125"/>
      <use xlink:href="#DejaVuSans-65" x="284.007812"/>
      <use xlink:href="#DejaVuSans-72" x="345.53125"/>
     </g>
    </g>
    <g id="line2d_21">
     <path d="M 234.91375 44.6591 
L 244.91375 44.6591 
L 254.91375 44.6591 
" style="fill: none; stroke: #1e88e5; stroke-opacity: 0.8; stroke-width: 3; stroke-linecap: square"/>
    </g>
    <g id="text_13">
     <!-- 1-Order -->
     <g transform="translate(262.91375 48.1591)scale(0.1 -0.1)">
      <use xlink:href="#DejaVuSans-31"/>
      <use xlink:href="#DejaVuSans-2d" x="63.623047"/>
      <use xlink:href="#DejaVuSans-4f" x="102.457031"/>
      <use xlink:href="#DejaVuSans-72" x="181.167969"/>
      <use xlink:href="#DejaVuSans-64" x="220.53125"/>
      <use xlink:href="#DejaVuSans-65" x="284.007812"/>
      <use xlink:href="#DejaVuSans-72" x="345.53125"/>
     </g>
    </g>
    <g id="line2d_22">
     <path d="M 234.91375 59.337225 
L 244.91375 59.337225 
L 254.91375 59.337225 
" style="fill: none; stroke: #ffc107; stroke-opacity: 0.2; stroke-width: 3; stroke-linecap: square"/>
    </g>
    <g id="text_14">
     <!-- 2-Order -->
     <g transform="translate(262.91375 62.837225)scale(0.1 -0.1)">
      <use xlink:href="#DejaVuSans-32"/>
      <use xlink:href="#DejaVuSans-2d" x="63.623047"/>
      <use xlink:href="#DejaVuSans-4f" x="102.457031"/>
      <use xlink:href="#DejaVuSans-72" x="181.167969"/>
      <use xlink:href="#DejaVuSans-64" x="220.53125"/>
      <use xlink:href="#DejaVuSans-65" x="284.007812"/>
      <use xlink:href="#DejaVuSans-72" x="345.53125"/>
     </g>
    </g>
    <g id="line2d_23">
     <path d="M 234.91375 74.01535 
L 244.91375 74.01535 
L 254.91375 74.01535 
" style="fill: none; stroke: #004d40; stroke-opacity: 0.2; stroke-width: 3; stroke-linecap: square"/>
    </g>
    <g id="text_15">
     <!-- 3-Order -->
     <g transform="translate(262.91375 77.51535)scale(0.1 -0.1)">
      <use xlink:href="#DejaVuSans-33"/>
      <use xlink:href="#DejaVuSans-2d" x="63.623047"/>
      <use xlink:href="#DejaVuSans-4f" x="102.457031"/>
      <use xlink:href="#DejaVuSans-72" x="181.167969"/>
      <use xlink:href="#DejaVuSans-64" x="220.53125"/>
      <use xlink:href="#DejaVuSans-65" x="284.007812"/>
      <use xlink:href="#DejaVuSans-72" x="345.53125"/>
     </g>
    </g>
    <g id="line2d_24">
     <path d="M 234.91375 88.693475 
L 244.91375 88.693475 
L 254.91375 88.693475 
" style="fill: none; stroke: #11c0ae; stroke-opacity: 0.2; stroke-width: 3; stroke-linecap: square"/>
    </g>
    <g id="text_16">
     <!-- 4-Order -->
     <g transform="translate(262.91375 92.193475)scale(0.1 -0.1)">
      <use xlink:href="#DejaVuSans-34"/>
      <use xlink:href="#DejaVuSans-2d" x="63.623047"/>
      <use xlink:href="#DejaVuSans-4f" x="102.457031"/>
      <use xlink:href="#DejaVuSans-72" x="181.167969"/>
      <use xlink:href="#DejaVuSans-64" x="220.53125"/>
      <use xlink:href="#DejaVuSans-65" x="284.007812"/>
      <use xlink:href="#DejaVuSans-72" x="345.53125"/>
     </g>
    </g>
    <g id="line2d_25">
     <path d="M 234.91375 103.3716 
L 244.91375 103.3716 
L 254.91375 103.3716 
" style="fill: none; stroke: #8b749e; stroke-opacity: 0.2; stroke-width: 3; stroke-linecap: square"/>
    </g>
    <g id="text_17">
     <!-- 5-Order -->
     <g transform="translate(262.91375 106.8716)scale(0.1 -0.1)">
      <use xlink:href="#DejaVuSans-35"/>
      <use xlink:href="#DejaVuSans-2d" x="63.623047"/>
      <use xlink:href="#DejaVuSans-4f" x="102.457031"/>
      <use xlink:href="#DejaVuSans-72" x="181.167969"/>
      <use xlink:href="#DejaVuSans-64" x="220.53125"/>
      <use xlink:href="#DejaVuSans-65" x="284.007812"/>
      <use xlink:href="#DejaVuSans-72" x="345.53125"/>
     </g>
    </g>
    <g id="line2d_26">
     <path d="M 234.91375 118.049725 
L 244.91375 118.049725 
L 254.91375 118.049725 
" style="fill: none; stroke: #72aa08; stroke-opacity: 0.8; stroke-width: 3; stroke-linecap: square"/>
    </g>
    <g id="text_18">
     <!-- 6-Order -->
     <g transform="translate(262.91375 121.549725)scale(0.1 -0.1)">
      <defs>
       <path id="DejaVuSans-36" d="M 2113 2584 
Q 1688 2584 1439 2293 
Q 1191 2003 1191 1497 
Q 1191 994 1439 701 
Q 1688 409 2113 409 
Q 2538 409 2786 701 
Q 3034 994 3034 1497 
Q 3034 2003 2786 2293 
Q 2538 2584 2113 2584 
z
M 3366 4563 
L 3366 3988 
Q 3128 4100 2886 4159 
Q 2644 4219 2406 4219 
Q 1781 4219 1451 3797 
Q 1122 3375 1075 2522 
Q 1259 2794 1537 2939 
Q 1816 3084 2150 3084 
Q 2853 3084 3261 2657 
Q 3669 2231 3669 1497 
Q 3669 778 3244 343 
Q 2819 -91 2113 -91 
Q 1303 -91 875 529 
Q 447 1150 447 2328 
Q 447 3434 972 4092 
Q 1497 4750 2381 4750 
Q 2619 4750 2861 4703 
Q 3103 4656 3366 4563 
z
" transform="scale(0.015625)"/>
      </defs>
      <use xlink:href="#DejaVuSans-36"/>
      <use xlink:href="#DejaVuSans-2d" x="63.623047"/>
      <use xlink:href="#DejaVuSans-4f" x="102.457031"/>
      <use xlink:href="#DejaVuSans-72" x="181.167969"/>
      <use xlink:href="#DejaVuSans-64" x="220.53125"/>
      <use xlink:href="#DejaVuSans-65" x="284.007812"/>
      <use xlink:href="#DejaVuSans-72" x="345.53125"/>
     </g>
    </g>
    <g id="line2d_27">
     <path d="M 234.91375 132.72785 
L 244.91375 132.72785 
L 254.91375 132.72785 
" style="fill: none; stroke: #c32bc2; stroke-opacity: 0.2; stroke-width: 3; stroke-linecap: square"/>
    </g>
    <g id="text_19">
     <!-- 7-Order -->
     <g transform="translate(262.91375 136.22785)scale(0.1 -0.1)">
      <defs>
       <path id="DejaVuSans-37" d="M 525 4666 
L 3525 4666 
L 3525 4397 
L 1831 0 
L 1172 0 
L 2766 4134 
L 525 4134 
L 525 4666 
z
" transform="scale(0.015625)"/>
      </defs>
      <use xlink:href="#DejaVuSans-37"/>
      <use xlink:href="#DejaVuSans-2d" x="63.623047"/>
      <use xlink:href="#DejaVuSans-4f" x="102.457031"/>
      <use xlink:href="#DejaVuSans-72" x="181.167969"/>
      <use xlink:href="#DejaVuSans-64" x="220.53125"/>
      <use xlink:href="#DejaVuSans-65" x="284.007812"/>
      <use xlink:href="#DejaVuSans-72" x="345.53125"/>
     </g>
    </g>
    <g id="line2d_28">
     <path d="M 234.91375 147.405975 
L 244.91375 147.405975 
L 254.91375 147.405975 
" style="fill: none; stroke: #bbb2d5; stroke-opacity: 0.2; stroke-width: 3; stroke-linecap: square"/>
    </g>
    <g id="text_20">
     <!-- 8-Order -->
     <g transform="translate(262.91375 150.905975)scale(0.1 -0.1)">
      <defs>
       <path id="DejaVuSans-38" d="M 2034 2216 
Q 1584 2216 1326 1975 
Q 1069 1734 1069 1313 
Q 1069 891 1326 650 
Q 1584 409 2034 409 
Q 2484 409 2743 651 
Q 3003 894 3003 1313 
Q 3003 1734 2745 1975 
Q 2488 2216 2034 2216 
z
M 1403 2484 
Q 997 2584 770 2862 
Q 544 3141 544 3541 
Q 544 4100 942 4425 
Q 1341 4750 2034 4750 
Q 2731 4750 3128 4425 
Q 3525 4100 3525 3541 
Q 3525 3141 3298 2862 
Q 3072 2584 2669 2484 
Q 3125 2378 3379 2068 
Q 3634 1759 3634 1313 
Q 3634 634 3220 271 
Q 2806 -91 2034 -91 
Q 1263 -91 848 271 
Q 434 634 434 1313 
Q 434 1759 690 2068 
Q 947 2378 1403 2484 
z
M 1172 3481 
Q 1172 3119 1398 2916 
Q 1625 2713 2034 2713 
Q 2441 2713 2670 2916 
Q 2900 3119 2900 3481 
Q 2900 3844 2670 4047 
Q 2441 4250 2034 4250 
Q 1625 4250 1398 4047 
Q 1172 3844 1172 3481 
z
" transform="scale(0.015625)"/>
      </defs>
      <use xlink:href="#DejaVuSans-38"/>
      <use xlink:href="#DejaVuSans-2d" x="63.623047"/>
      <use xlink:href="#DejaVuSans-4f" x="102.457031"/>
      <use xlink:href="#DejaVuSans-72" x="181.167969"/>
      <use xlink:href="#DejaVuSans-64" x="220.53125"/>
      <use xlink:href="#DejaVuSans-65" x="284.007812"/>
      <use xlink:href="#DejaVuSans-72" x="345.53125"/>
     </g>
    </g>
    <g id="line2d_29">
     <path d="M 234.91375 162.0841 
L 244.91375 162.0841 
L 254.91375 162.0841 
" style="fill: none; stroke: #38141e; stroke-opacity: 0.8; stroke-width: 3; stroke-linecap: square"/>
    </g>
    <g id="text_21">
     <!-- 9-Order -->
     <g transform="translate(262.91375 165.5841)scale(0.1 -0.1)">
      <defs>
       <path id="DejaVuSans-39" d="M 703 97 
L 703 672 
Q 941 559 1184 500 
Q 1428 441 1663 441 
Q 2288 441 2617 861 
Q 2947 1281 2994 2138 
Q 2813 1869 2534 1725 
Q 2256 1581 1919 1581 
Q 1219 1581 811 2004 
Q 403 2428 403 3163 
Q 403 3881 828 4315 
Q 1253 4750 1959 4750 
Q 2769 4750 3195 4129 
Q 3622 3509 3622 2328 
Q 3622 1225 3098 567 
Q 2575 -91 1691 -91 
Q 1453 -91 1209 -44 
Q 966 3 703 97 
z
M 1959 2075 
Q 2384 2075 2632 2365 
Q 2881 2656 2881 3163 
Q 2881 3666 2632 3958 
Q 2384 4250 1959 4250 
Q 1534 4250 1286 3958 
Q 1038 3666 1038 3163 
Q 1038 2656 1286 2365 
Q 1534 2075 1959 2075 
z
" transform="scale(0.015625)"/>
      </defs>
      <use xlink:href="#DejaVuSans-39"/>
      <use xlink:href="#DejaVuSans-2d" x="63.623047"/>
      <use xlink:href="#DejaVuSans-4f" x="102.457031"/>
      <use xlink:href="#DejaVuSans-72" x="181.167969"/>
      <use xlink:href="#DejaVuSans-64" x="220.53125"/>
      <use xlink:href="#DejaVuSans-65" x="284.007812"/>
      <use xlink:href="#DejaVuSans-72" x="345.53125"/>
     </g>
    </g>
   </g>
  </g>
 </g>
 <defs>
  <clipPath id="p668b8add24">
   <rect x="50.14375" y="13.620937" width="167.4" height="163.08"/>
  </clipPath>
 </defs>
</svg>
