<?xml version="1.0" encoding="utf-8" standalone="no"?>
<!DOCTYPE svg PUBLIC "-//W3C//DTD SVG 1.1//EN"
  "http://www.w3.org/Graphics/SVG/1.1/DTD/svg11.dtd">
<svg xmlns:xlink="http://www.w3.org/1999/xlink" width="492.420625pt" height="218.567656pt" viewBox="0 0 492.420625 218.567656" xmlns="http://www.w3.org/2000/svg" version="1.1">
 <metadata>
  <rdf:RDF xmlns:dc="http://purl.org/dc/elements/1.1/" xmlns:cc="http://creativecommons.org/ns#" xmlns:rdf="http://www.w3.org/1999/02/22-rdf-syntax-ns#">
   <cc:Work>
    <dc:type rdf:resource="http://purl.org/dc/dcmitype/StillImage"/>
    <dc:date>2023-06-29T16:29:51.577008</dc:date>
    <dc:format>image/svg+xml</dc:format>
    <dc:creator>
     <cc:Agent>
      <dc:title>Matplotlib v3.5.1, https://matplotlib.org/</dc:title>
     </cc:Agent>
    </dc:creator>
   </cc:Work>
  </rdf:RDF>
 </metadata>
 <defs>
  <style type="text/css">*{stroke-linejoin: round; stroke-linecap: butt}</style>
 </defs>
 <g id="figure_1">
  <g id="patch_1">
   <path d="M -0 218.567656 
L 492.420625 218.567656 
L 492.420625 0 
L -0 0 
L -0 218.567656 
z
" style="fill: none"/>
  </g>
  <g id="axes_1">
   <g id="patch_2">
    <path d="M 54.015 177.140156 
L 388.815 177.140156 
L 388.815 14.060156 
L 54.015 14.060156 
z
" style="fill: #ffffff"/>
   </g>
   <g id="matplotlib.axis_1">
    <g id="xtick_1">
     <g id="line2d_1">
      <defs>
       <path id="m62b1d95c56" d="M 0 0 
L 0 3.5 
" style="stroke: #000000; stroke-width: 0.8"/>
      </defs>
      <g>
       <use xlink:href="#m62b1d95c56" x="54.015" y="177.140156" style="stroke: #000000; stroke-width: 0.8"/>
      </g>
     </g>
     <g id="text_1">
      <!-- 0 -->
      <g transform="translate(50.83375 191.738594)scale(0.1 -0.1)">
       <defs>
        <path id="DejaVuSans-30" d="M 2034 4250 
Q 1547 4250 1301 3770 
Q 1056 3291 1056 2328 
Q 1056 1369 1301 889 
Q 1547 409 2034 409 
Q 2525 409 2770 889 
Q 3016 1369 3016 2328 
Q 3016 3291 2770 3770 
Q 2525 4250 2034 4250 
z
M 2034 4750 
Q 2819 4750 3233 4129 
Q 3647 3509 3647 2328 
Q 3647 1150 3233 529 
Q 2819 -91 2034 -91 
Q 1250 -91 836 529 
Q 422 1150 422 2328 
Q 422 3509 836 4129 
Q 1250 4750 2034 4750 
z
" transform="scale(0.015625)"/>
       </defs>
       <use xlink:href="#DejaVuSans-30"/>
      </g>
     </g>
    </g>
    <g id="xtick_2">
     <g id="line2d_2">
      <g>
       <use xlink:href="#m62b1d95c56" x="95.865" y="177.140156" style="stroke: #000000; stroke-width: 0.8"/>
      </g>
     </g>
     <g id="text_2">
      <!-- 5 -->
      <g transform="translate(92.68375 191.738594)scale(0.1 -0.1)">
       <defs>
        <path id="DejaVuSans-35" d="M 691 4666 
L 3169 4666 
L 3169 4134 
L 1269 4134 
L 1269 2991 
Q 1406 3038 1543 3061 
Q 1681 3084 1819 3084 
Q 2600 3084 3056 2656 
Q 3513 2228 3513 1497 
Q 3513 744 3044 326 
Q 2575 -91 1722 -91 
Q 1428 -91 1123 -41 
Q 819 9 494 109 
L 494 744 
Q 775 591 1075 516 
Q 1375 441 1709 441 
Q 2250 441 2565 725 
Q 2881 1009 2881 1497 
Q 2881 1984 2565 2268 
Q 2250 2553 1709 2553 
Q 1456 2553 1204 2497 
Q 953 2441 691 2322 
L 691 4666 
z
" transform="scale(0.015625)"/>
       </defs>
       <use xlink:href="#DejaVuSans-35"/>
      </g>
     </g>
    </g>
    <g id="xtick_3">
     <g id="line2d_3">
      <g>
       <use xlink:href="#m62b1d95c56" x="137.715" y="177.140156" style="stroke: #000000; stroke-width: 0.8"/>
      </g>
     </g>
     <g id="text_3">
      <!-- 10 -->
      <g transform="translate(131.3525 191.738594)scale(0.1 -0.1)">
       <defs>
        <path id="DejaVuSans-31" d="M 794 531 
L 1825 531 
L 1825 4091 
L 703 3866 
L 703 4441 
L 1819 4666 
L 2450 4666 
L 2450 531 
L 3481 531 
L 3481 0 
L 794 0 
L 794 531 
z
" transform="scale(0.015625)"/>
       </defs>
       <use xlink:href="#DejaVuSans-31"/>
       <use xlink:href="#DejaVuSans-30" x="63.623047"/>
      </g>
     </g>
    </g>
    <g id="xtick_4">
     <g id="line2d_4">
      <g>
       <use xlink:href="#m62b1d95c56" x="179.565" y="177.140156" style="stroke: #000000; stroke-width: 0.8"/>
      </g>
     </g>
     <g id="text_4">
      <!-- 15 -->
      <g transform="translate(173.2025 191.738594)scale(0.1 -0.1)">
       <use xlink:href="#DejaVuSans-31"/>
       <use xlink:href="#DejaVuSans-35" x="63.623047"/>
      </g>
     </g>
    </g>
    <g id="xtick_5">
     <g id="line2d_5">
      <g>
       <use xlink:href="#m62b1d95c56" x="221.415" y="177.140156" style="stroke: #000000; stroke-width: 0.8"/>
      </g>
     </g>
     <g id="text_5">
      <!-- 20 -->
      <g transform="translate(215.0525 191.738594)scale(0.1 -0.1)">
       <defs>
        <path id="DejaVuSans-32" d="M 1228 531 
L 3431 531 
L 3431 0 
L 469 0 
L 469 531 
Q 828 903 1448 1529 
Q 2069 2156 2228 2338 
Q 2531 2678 2651 2914 
Q 2772 3150 2772 3378 
Q 2772 3750 2511 3984 
Q 2250 4219 1831 4219 
Q 1534 4219 1204 4116 
Q 875 4013 500 3803 
L 500 4441 
Q 881 4594 1212 4672 
Q 1544 4750 1819 4750 
Q 2544 4750 2975 4387 
Q 3406 4025 3406 3419 
Q 3406 3131 3298 2873 
Q 3191 2616 2906 2266 
Q 2828 2175 2409 1742 
Q 1991 1309 1228 531 
z
" transform="scale(0.015625)"/>
       </defs>
       <use xlink:href="#DejaVuSans-32"/>
       <use xlink:href="#DejaVuSans-30" x="63.623047"/>
      </g>
     </g>
    </g>
    <g id="xtick_6">
     <g id="line2d_6">
      <g>
       <use xlink:href="#m62b1d95c56" x="263.265" y="177.140156" style="stroke: #000000; stroke-width: 0.8"/>
      </g>
     </g>
     <g id="text_6">
      <!-- 25 -->
      <g transform="translate(256.9025 191.738594)scale(0.1 -0.1)">
       <use xlink:href="#DejaVuSans-32"/>
       <use xlink:href="#DejaVuSans-35" x="63.623047"/>
      </g>
     </g>
    </g>
    <g id="xtick_7">
     <g id="line2d_7">
      <g>
       <use xlink:href="#m62b1d95c56" x="305.115" y="177.140156" style="stroke: #000000; stroke-width: 0.8"/>
      </g>
     </g>
     <g id="text_7">
      <!-- 30 -->
      <g transform="translate(298.7525 191.738594)scale(0.1 -0.1)">
       <defs>
        <path id="DejaVuSans-33" d="M 2597 2516 
Q 3050 2419 3304 2112 
Q 3559 1806 3559 1356 
Q 3559 666 3084 287 
Q 2609 -91 1734 -91 
Q 1441 -91 1130 -33 
Q 819 25 488 141 
L 488 750 
Q 750 597 1062 519 
Q 1375 441 1716 441 
Q 2309 441 2620 675 
Q 2931 909 2931 1356 
Q 2931 1769 2642 2001 
Q 2353 2234 1838 2234 
L 1294 2234 
L 1294 2753 
L 1863 2753 
Q 2328 2753 2575 2939 
Q 2822 3125 2822 3475 
Q 2822 3834 2567 4026 
Q 2313 4219 1838 4219 
Q 1578 4219 1281 4162 
Q 984 4106 628 3988 
L 628 4550 
Q 988 4650 1302 4700 
Q 1616 4750 1894 4750 
Q 2613 4750 3031 4423 
Q 3450 4097 3450 3541 
Q 3450 3153 3228 2886 
Q 3006 2619 2597 2516 
z
" transform="scale(0.015625)"/>
       </defs>
       <use xlink:href="#DejaVuSans-33"/>
       <use xlink:href="#DejaVuSans-30" x="63.623047"/>
      </g>
     </g>
    </g>
    <g id="xtick_8">
     <g id="line2d_8">
      <g>
       <use xlink:href="#m62b1d95c56" x="346.965" y="177.140156" style="stroke: #000000; stroke-width: 0.8"/>
      </g>
     </g>
     <g id="text_8">
      <!-- 35 -->
      <g transform="translate(340.6025 191.738594)scale(0.1 -0.1)">
       <use xlink:href="#DejaVuSans-33"/>
       <use xlink:href="#DejaVuSans-35" x="63.623047"/>
      </g>
     </g>
    </g>
    <g id="xtick_9">
     <g id="line2d_9">
      <g>
       <use xlink:href="#m62b1d95c56" x="388.815" y="177.140156" style="stroke: #000000; stroke-width: 0.8"/>
      </g>
     </g>
     <g id="text_9">
      <!-- 40 -->
      <g transform="translate(382.4525 191.738594)scale(0.1 -0.1)">
       <defs>
        <path id="DejaVuSans-34" d="M 2419 4116 
L 825 1625 
L 2419 1625 
L 2419 4116 
z
M 2253 4666 
L 3047 4666 
L 3047 1625 
L 3713 1625 
L 3713 1100 
L 3047 1100 
L 3047 0 
L 2419 0 
L 2419 1100 
L 313 1100 
L 313 1709 
L 2253 4666 
z
" transform="scale(0.015625)"/>
       </defs>
       <use xlink:href="#DejaVuSans-34"/>
       <use xlink:href="#DejaVuSans-30" x="63.623047"/>
      </g>
     </g>
    </g>
    <g id="text_10">
     <!-- Career Years -->
     <g transform="translate(177.331406 208.456094)scale(0.14 -0.14)">
      <defs>
       <path id="DejaVuSans-43" d="M 4122 4306 
L 4122 3641 
Q 3803 3938 3442 4084 
Q 3081 4231 2675 4231 
Q 1875 4231 1450 3742 
Q 1025 3253 1025 2328 
Q 1025 1406 1450 917 
Q 1875 428 2675 428 
Q 3081 428 3442 575 
Q 3803 722 4122 1019 
L 4122 359 
Q 3791 134 3420 21 
Q 3050 -91 2638 -91 
Q 1578 -91 968 557 
Q 359 1206 359 2328 
Q 359 3453 968 4101 
Q 1578 4750 2638 4750 
Q 3056 4750 3426 4639 
Q 3797 4528 4122 4306 
z
" transform="scale(0.015625)"/>
       <path id="DejaVuSans-61" d="M 2194 1759 
Q 1497 1759 1228 1600 
Q 959 1441 959 1056 
Q 959 750 1161 570 
Q 1363 391 1709 391 
Q 2188 391 2477 730 
Q 2766 1069 2766 1631 
L 2766 1759 
L 2194 1759 
z
M 3341 1997 
L 3341 0 
L 2766 0 
L 2766 531 
Q 2569 213 2275 61 
Q 1981 -91 1556 -91 
Q 1019 -91 701 211 
Q 384 513 384 1019 
Q 384 1609 779 1909 
Q 1175 2209 1959 2209 
L 2766 2209 
L 2766 2266 
Q 2766 2663 2505 2880 
Q 2244 3097 1772 3097 
Q 1472 3097 1187 3025 
Q 903 2953 641 2809 
L 641 3341 
Q 956 3463 1253 3523 
Q 1550 3584 1831 3584 
Q 2591 3584 2966 3190 
Q 3341 2797 3341 1997 
z
" transform="scale(0.015625)"/>
       <path id="DejaVuSans-72" d="M 2631 2963 
Q 2534 3019 2420 3045 
Q 2306 3072 2169 3072 
Q 1681 3072 1420 2755 
Q 1159 2438 1159 1844 
L 1159 0 
L 581 0 
L 581 3500 
L 1159 3500 
L 1159 2956 
Q 1341 3275 1631 3429 
Q 1922 3584 2338 3584 
Q 2397 3584 2469 3576 
Q 2541 3569 2628 3553 
L 2631 2963 
z
" transform="scale(0.015625)"/>
       <path id="DejaVuSans-65" d="M 3597 1894 
L 3597 1613 
L 953 1613 
Q 991 1019 1311 708 
Q 1631 397 2203 397 
Q 2534 397 2845 478 
Q 3156 559 3463 722 
L 3463 178 
Q 3153 47 2828 -22 
Q 2503 -91 2169 -91 
Q 1331 -91 842 396 
Q 353 884 353 1716 
Q 353 2575 817 3079 
Q 1281 3584 2069 3584 
Q 2775 3584 3186 3129 
Q 3597 2675 3597 1894 
z
M 3022 2063 
Q 3016 2534 2758 2815 
Q 2500 3097 2075 3097 
Q 1594 3097 1305 2825 
Q 1016 2553 972 2059 
L 3022 2063 
z
" transform="scale(0.015625)"/>
       <path id="DejaVuSans-20" transform="scale(0.015625)"/>
       <path id="DejaVuSans-59" d="M -13 4666 
L 666 4666 
L 1959 2747 
L 3244 4666 
L 3922 4666 
L 2272 2222 
L 2272 0 
L 1638 0 
L 1638 2222 
L -13 4666 
z
" transform="scale(0.015625)"/>
       <path id="DejaVuSans-73" d="M 2834 3397 
L 2834 2853 
Q 2591 2978 2328 3040 
Q 2066 3103 1784 3103 
Q 1356 3103 1142 2972 
Q 928 2841 928 2578 
Q 928 2378 1081 2264 
Q 1234 2150 1697 2047 
L 1894 2003 
Q 2506 1872 2764 1633 
Q 3022 1394 3022 966 
Q 3022 478 2636 193 
Q 2250 -91 1575 -91 
Q 1294 -91 989 -36 
Q 684 19 347 128 
L 347 722 
Q 666 556 975 473 
Q 1284 391 1588 391 
Q 1994 391 2212 530 
Q 2431 669 2431 922 
Q 2431 1156 2273 1281 
Q 2116 1406 1581 1522 
L 1381 1569 
Q 847 1681 609 1914 
Q 372 2147 372 2553 
Q 372 3047 722 3315 
Q 1072 3584 1716 3584 
Q 2034 3584 2315 3537 
Q 2597 3491 2834 3397 
z
" transform="scale(0.015625)"/>
      </defs>
      <use xlink:href="#DejaVuSans-43"/>
      <use xlink:href="#DejaVuSans-61" x="69.824219"/>
      <use xlink:href="#DejaVuSans-72" x="131.103516"/>
      <use xlink:href="#DejaVuSans-65" x="169.966797"/>
      <use xlink:href="#DejaVuSans-65" x="231.490234"/>
      <use xlink:href="#DejaVuSans-72" x="293.013672"/>
      <use xlink:href="#DejaVuSans-20" x="334.126953"/>
      <use xlink:href="#DejaVuSans-59" x="365.914062"/>
      <use xlink:href="#DejaVuSans-65" x="413.748047"/>
      <use xlink:href="#DejaVuSans-61" x="475.271484"/>
      <use xlink:href="#DejaVuSans-72" x="536.550781"/>
      <use xlink:href="#DejaVuSans-73" x="577.664062"/>
     </g>
    </g>
   </g>
   <g id="matplotlib.axis_2">
    <g id="ytick_1">
     <g id="line2d_10">
      <defs>
       <path id="m0cfc5de920" d="M 0 0 
L -3.5 0 
" style="stroke: #000000; stroke-width: 0.8"/>
      </defs>
      <g>
       <use xlink:href="#m0cfc5de920" x="54.015" y="177.140156" style="stroke: #000000; stroke-width: 0.8"/>
      </g>
     </g>
     <g id="text_11">
      <!-- 0.00 -->
      <g transform="translate(24.749375 180.939375)scale(0.1 -0.1)">
       <defs>
        <path id="DejaVuSans-2e" d="M 684 794 
L 1344 794 
L 1344 0 
L 684 0 
L 684 794 
z
" transform="scale(0.015625)"/>
       </defs>
       <use xlink:href="#DejaVuSans-30"/>
       <use xlink:href="#DejaVuSans-2e" x="63.623047"/>
       <use xlink:href="#DejaVuSans-30" x="95.410156"/>
       <use xlink:href="#DejaVuSans-30" x="159.033203"/>
      </g>
     </g>
    </g>
    <g id="ytick_2">
     <g id="line2d_11">
      <g>
       <use xlink:href="#m0cfc5de920" x="54.015" y="144.524156" style="stroke: #000000; stroke-width: 0.8"/>
      </g>
     </g>
     <g id="text_12">
      <!-- 0.05 -->
      <g transform="translate(24.749375 148.323375)scale(0.1 -0.1)">
       <use xlink:href="#DejaVuSans-30"/>
       <use xlink:href="#DejaVuSans-2e" x="63.623047"/>
       <use xlink:href="#DejaVuSans-30" x="95.410156"/>
       <use xlink:href="#DejaVuSans-35" x="159.033203"/>
      </g>
     </g>
    </g>
    <g id="ytick_3">
     <g id="line2d_12">
      <g>
       <use xlink:href="#m0cfc5de920" x="54.015" y="111.908156" style="stroke: #000000; stroke-width: 0.8"/>
      </g>
     </g>
     <g id="text_13">
      <!-- 0.10 -->
      <g transform="translate(24.749375 115.707375)scale(0.1 -0.1)">
       <use xlink:href="#DejaVuSans-30"/>
       <use xlink:href="#DejaVuSans-2e" x="63.623047"/>
       <use xlink:href="#DejaVuSans-31" x="95.410156"/>
       <use xlink:href="#DejaVuSans-30" x="159.033203"/>
      </g>
     </g>
    </g>
    <g id="ytick_4">
     <g id="line2d_13">
      <g>
       <use xlink:href="#m0cfc5de920" x="54.015" y="79.292156" style="stroke: #000000; stroke-width: 0.8"/>
      </g>
     </g>
     <g id="text_14">
      <!-- 0.15 -->
      <g transform="translate(24.749375 83.091375)scale(0.1 -0.1)">
       <use xlink:href="#DejaVuSans-30"/>
       <use xlink:href="#DejaVuSans-2e" x="63.623047"/>
       <use xlink:href="#DejaVuSans-31" x="95.410156"/>
       <use xlink:href="#DejaVuSans-35" x="159.033203"/>
      </g>
     </g>
    </g>
    <g id="ytick_5">
     <g id="line2d_14">
      <g>
       <use xlink:href="#m0cfc5de920" x="54.015" y="46.676156" style="stroke: #000000; stroke-width: 0.8"/>
      </g>
     </g>
     <g id="text_15">
      <!-- 0.20 -->
      <g transform="translate(24.749375 50.475375)scale(0.1 -0.1)">
       <use xlink:href="#DejaVuSans-30"/>
       <use xlink:href="#DejaVuSans-2e" x="63.623047"/>
       <use xlink:href="#DejaVuSans-32" x="95.410156"/>
       <use xlink:href="#DejaVuSans-30" x="159.033203"/>
      </g>
     </g>
    </g>
    <g id="ytick_6">
     <g id="line2d_15">
      <g>
       <use xlink:href="#m0cfc5de920" x="54.015" y="14.060156" style="stroke: #000000; stroke-width: 0.8"/>
      </g>
     </g>
     <g id="text_16">
      <!-- 0.25 -->
      <g transform="translate(24.749375 17.859375)scale(0.1 -0.1)">
       <use xlink:href="#DejaVuSans-30"/>
       <use xlink:href="#DejaVuSans-2e" x="63.623047"/>
       <use xlink:href="#DejaVuSans-32" x="95.410156"/>
       <use xlink:href="#DejaVuSans-35" x="159.033203"/>
      </g>
     </g>
    </g>
    <g id="text_17">
     <!-- Fraction of collaborations -->
     <g transform="translate(17.837813 184.000313)rotate(-90)scale(0.14 -0.14)">
      <defs>
       <path id="DejaVuSans-46" d="M 628 4666 
L 3309 4666 
L 3309 4134 
L 1259 4134 
L 1259 2759 
L 3109 2759 
L 3109 2228 
L 1259 2228 
L 1259 0 
L 628 0 
L 628 4666 
z
" transform="scale(0.015625)"/>
       <path id="DejaVuSans-63" d="M 3122 3366 
L 3122 2828 
Q 2878 2963 2633 3030 
Q 2388 3097 2138 3097 
Q 1578 3097 1268 2742 
Q 959 2388 959 1747 
Q 959 1106 1268 751 
Q 1578 397 2138 397 
Q 2388 397 2633 464 
Q 2878 531 3122 666 
L 3122 134 
Q 2881 22 2623 -34 
Q 2366 -91 2075 -91 
Q 1284 -91 818 406 
Q 353 903 353 1747 
Q 353 2603 823 3093 
Q 1294 3584 2113 3584 
Q 2378 3584 2631 3529 
Q 2884 3475 3122 3366 
z
" transform="scale(0.015625)"/>
       <path id="DejaVuSans-74" d="M 1172 4494 
L 1172 3500 
L 2356 3500 
L 2356 3053 
L 1172 3053 
L 1172 1153 
Q 1172 725 1289 603 
Q 1406 481 1766 481 
L 2356 481 
L 2356 0 
L 1766 0 
Q 1100 0 847 248 
Q 594 497 594 1153 
L 594 3053 
L 172 3053 
L 172 3500 
L 594 3500 
L 594 4494 
L 1172 4494 
z
" transform="scale(0.015625)"/>
       <path id="DejaVuSans-69" d="M 603 3500 
L 1178 3500 
L 1178 0 
L 603 0 
L 603 3500 
z
M 603 4863 
L 1178 4863 
L 1178 4134 
L 603 4134 
L 603 4863 
z
" transform="scale(0.015625)"/>
       <path id="DejaVuSans-6f" d="M 1959 3097 
Q 1497 3097 1228 2736 
Q 959 2375 959 1747 
Q 959 1119 1226 758 
Q 1494 397 1959 397 
Q 2419 397 2687 759 
Q 2956 1122 2956 1747 
Q 2956 2369 2687 2733 
Q 2419 3097 1959 3097 
z
M 1959 3584 
Q 2709 3584 3137 3096 
Q 3566 2609 3566 1747 
Q 3566 888 3137 398 
Q 2709 -91 1959 -91 
Q 1206 -91 779 398 
Q 353 888 353 1747 
Q 353 2609 779 3096 
Q 1206 3584 1959 3584 
z
" transform="scale(0.015625)"/>
       <path id="DejaVuSans-6e" d="M 3513 2113 
L 3513 0 
L 2938 0 
L 2938 2094 
Q 2938 2591 2744 2837 
Q 2550 3084 2163 3084 
Q 1697 3084 1428 2787 
Q 1159 2491 1159 1978 
L 1159 0 
L 581 0 
L 581 3500 
L 1159 3500 
L 1159 2956 
Q 1366 3272 1645 3428 
Q 1925 3584 2291 3584 
Q 2894 3584 3203 3211 
Q 3513 2838 3513 2113 
z
" transform="scale(0.015625)"/>
       <path id="DejaVuSans-66" d="M 2375 4863 
L 2375 4384 
L 1825 4384 
Q 1516 4384 1395 4259 
Q 1275 4134 1275 3809 
L 1275 3500 
L 2222 3500 
L 2222 3053 
L 1275 3053 
L 1275 0 
L 697 0 
L 697 3053 
L 147 3053 
L 147 3500 
L 697 3500 
L 697 3744 
Q 697 4328 969 4595 
Q 1241 4863 1831 4863 
L 2375 4863 
z
" transform="scale(0.015625)"/>
       <path id="DejaVuSans-6c" d="M 603 4863 
L 1178 4863 
L 1178 0 
L 603 0 
L 603 4863 
z
" transform="scale(0.015625)"/>
       <path id="DejaVuSans-62" d="M 3116 1747 
Q 3116 2381 2855 2742 
Q 2594 3103 2138 3103 
Q 1681 3103 1420 2742 
Q 1159 2381 1159 1747 
Q 1159 1113 1420 752 
Q 1681 391 2138 391 
Q 2594 391 2855 752 
Q 3116 1113 3116 1747 
z
M 1159 2969 
Q 1341 3281 1617 3432 
Q 1894 3584 2278 3584 
Q 2916 3584 3314 3078 
Q 3713 2572 3713 1747 
Q 3713 922 3314 415 
Q 2916 -91 2278 -91 
Q 1894 -91 1617 61 
Q 1341 213 1159 525 
L 1159 0 
L 581 0 
L 581 4863 
L 1159 4863 
L 1159 2969 
z
" transform="scale(0.015625)"/>
      </defs>
      <use xlink:href="#DejaVuSans-46"/>
      <use xlink:href="#DejaVuSans-72" x="50.269531"/>
      <use xlink:href="#DejaVuSans-61" x="91.382812"/>
      <use xlink:href="#DejaVuSans-63" x="152.662109"/>
      <use xlink:href="#DejaVuSans-74" x="207.642578"/>
      <use xlink:href="#DejaVuSans-69" x="246.851562"/>
      <use xlink:href="#DejaVuSans-6f" x="274.634766"/>
      <use xlink:href="#DejaVuSans-6e" x="335.816406"/>
      <use xlink:href="#DejaVuSans-20" x="399.195312"/>
      <use xlink:href="#DejaVuSans-6f" x="430.982422"/>
      <use xlink:href="#DejaVuSans-66" x="492.164062"/>
      <use xlink:href="#DejaVuSans-20" x="527.369141"/>
      <use xlink:href="#DejaVuSans-63" x="559.15625"/>
      <use xlink:href="#DejaVuSans-6f" x="614.136719"/>
      <use xlink:href="#DejaVuSans-6c" x="675.318359"/>
      <use xlink:href="#DejaVuSans-6c" x="703.101562"/>
      <use xlink:href="#DejaVuSans-61" x="730.884766"/>
      <use xlink:href="#DejaVuSans-62" x="792.164062"/>
      <use xlink:href="#DejaVuSans-6f" x="855.640625"/>
      <use xlink:href="#DejaVuSans-72" x="916.822266"/>
      <use xlink:href="#DejaVuSans-61" x="957.935547"/>
      <use xlink:href="#DejaVuSans-74" x="1019.214844"/>
      <use xlink:href="#DejaVuSans-69" x="1058.423828"/>
      <use xlink:href="#DejaVuSans-6f" x="1086.207031"/>
      <use xlink:href="#DejaVuSans-6e" x="1147.388672"/>
      <use xlink:href="#DejaVuSans-73" x="1210.767578"/>
     </g>
    </g>
   </g>
   <g id="line2d_16">
    <path d="M 54.015 62.459533 
L 62.385 74.948678 
L 70.755 81.254214 
L 79.125 85.664881 
L 87.495 92.665329 
L 95.865 98.789556 
L 104.235 101.156825 
L 112.605 104.062969 
L 120.975 106.369873 
L 129.345 111.01038 
L 137.715 112.841947 
L 146.085 116.524306 
L 154.455 119.320633 
L 162.825 120.499227 
L 171.195 123.719534 
L 179.565 124.246694 
L 187.935 127.940545 
L 196.305 128.867527 
L 204.675 130.734629 
L 213.045 131.13697 
L 221.415 131.612188 
L 229.785 132.44198 
L 238.155 132.811147 
L 246.525 133.312646 
L 254.895 133.446448 
L 263.265 133.160824 
L 271.635 133.404486 
L 280.005 132.906642 
L 288.375 133.347734 
L 296.745 130.701106 
L 305.115 130.060859 
L 313.485 129.211905 
L 321.855 129.935924 
L 330.225 130.360531 
L 338.595 129.947368 
L 346.965 129.80592 
L 355.335 126.145571 
L 363.705 124.448762 
L 372.075 124.526396 
L 380.445 128.465981 
L 388.815 134.070854 
" clip-path="url(#p33759a83bc)" style="fill: none; stroke: #d81b60; stroke-opacity: 0.8; stroke-width: 3; stroke-linecap: square"/>
   </g>
   <g id="line2d_17">
    <path d="M 54.015 31.757631 
L 62.385 33.80477 
L 70.755 40.107236 
L 79.125 42.515278 
L 87.495 45.526781 
L 95.865 44.795036 
L 104.235 47.591055 
L 112.605 51.326753 
L 120.975 53.576392 
L 129.345 53.485894 
L 137.715 51.882971 
L 146.085 51.727265 
L 154.455 53.679169 
L 162.825 57.08287 
L 171.195 60.064417 
L 179.565 62.740914 
L 187.935 65.836908 
L 196.305 66.239715 
L 204.675 65.264194 
L 213.045 64.562738 
L 221.415 65.993946 
L 229.785 66.899651 
L 238.155 69.408057 
L 246.525 72.028795 
L 254.895 73.250788 
L 263.265 69.580157 
L 271.635 67.962943 
L 280.005 70.87237 
L 288.375 75.806372 
L 296.745 76.081152 
L 305.115 73.809229 
L 313.485 74.601999 
L 321.855 75.083353 
L 330.225 73.257353 
L 338.595 71.530402 
L 346.965 69.644591 
L 355.335 73.127125 
L 363.705 72.977193 
L 372.075 72.988851 
L 380.445 73.45742 
L 388.815 76.161262 
" clip-path="url(#p33759a83bc)" style="fill: none; stroke: #1e88e5; stroke-opacity: 0.8; stroke-width: 3; stroke-linecap: square"/>
   </g>
   <g id="line2d_18">
    <path d="M 54.015 55.781097 
L 62.385 51.965393 
L 70.755 51.489009 
L 79.125 50.49377 
L 87.495 52.380372 
L 95.865 51.512523 
L 104.235 54.52503 
L 112.605 56.049555 
L 120.975 56.609438 
L 129.345 57.648001 
L 137.715 57.746289 
L 146.085 58.879875 
L 154.455 55.990526 
L 162.825 55.156807 
L 171.195 54.790715 
L 179.565 55.60878 
L 187.935 54.309384 
L 196.305 56.099836 
L 204.675 58.670771 
L 213.045 62.146854 
L 221.415 61.13624 
L 229.785 60.326741 
L 238.155 56.609811 
L 246.525 56.520273 
L 254.895 56.472822 
L 263.265 60.015477 
L 271.635 60.358093 
L 280.005 59.646045 
L 288.375 59.838047 
L 296.745 61.073078 
L 305.115 62.347584 
L 313.485 57.886942 
L 321.855 58.503518 
L 330.225 59.147858 
L 338.595 59.726014 
L 346.965 62.016148 
L 355.335 63.688882 
L 363.705 67.912945 
L 372.075 63.331565 
L 380.445 62.133167 
L 388.815 65.686617 
" clip-path="url(#p33759a83bc)" style="fill: none; stroke: #ffc107; stroke-opacity: 0.2; stroke-width: 3; stroke-linecap: square"/>
   </g>
   <g id="line2d_19">
    <path d="M 54.015 81.621662 
L 62.385 80.223131 
L 70.755 77.249529 
L 79.125 75.483879 
L 87.495 72.57287 
L 95.865 73.425232 
L 104.235 73.965404 
L 112.605 75.062406 
L 120.975 74.028184 
L 129.345 73.592576 
L 137.715 72.761155 
L 146.085 72.449526 
L 154.455 73.199901 
L 162.825 72.397694 
L 171.195 72.958376 
L 179.565 70.390652 
L 187.935 69.21696 
L 196.305 69.49337 
L 204.675 72.029158 
L 213.045 71.626614 
L 221.415 69.535654 
L 229.785 67.393511 
L 238.155 70.052576 
L 246.525 70.066156 
L 254.895 70.965527 
L 263.265 69.284066 
L 271.635 68.618358 
L 280.005 67.836847 
L 288.375 63.791562 
L 296.745 65.440689 
L 305.115 64.716067 
L 313.485 70.136028 
L 321.855 66.761599 
L 330.225 67.289806 
L 338.595 63.980517 
L 346.965 66.295934 
L 355.335 66.964447 
L 363.705 66.066262 
L 372.075 69.240057 
L 380.445 70.88608 
L 388.815 73.582195 
" clip-path="url(#p33759a83bc)" style="fill: none; stroke: #004d40; stroke-opacity: 0.2; stroke-width: 3; stroke-linecap: square"/>
   </g>
   <g id="line2d_20">
    <path d="M 54.015 118.392336 
L 62.385 112.670814 
L 70.755 108.506565 
L 79.125 109.159258 
L 87.495 106.596249 
L 95.865 105.946854 
L 104.235 103.969447 
L 112.605 102.43292 
L 120.975 103.151353 
L 129.345 103.027961 
L 137.715 102.005275 
L 146.085 100.2303 
L 154.455 99.438141 
L 162.825 100.619656 
L 171.195 98.63668 
L 179.565 96.729701 
L 187.935 95.599799 
L 196.305 94.819885 
L 204.675 94.253314 
L 213.045 94.214716 
L 221.415 95.171325 
L 229.785 95.799994 
L 238.155 94.440483 
L 246.525 92.768506 
L 254.895 89.745858 
L 263.265 91.981282 
L 271.635 93.891074 
L 280.005 97.350125 
L 288.375 96.716514 
L 296.745 95.517869 
L 305.115 93.267127 
L 313.485 93.00716 
L 321.855 93.026336 
L 330.225 93.123167 
L 338.595 91.24752 
L 346.965 92.298649 
L 355.335 96.130257 
L 363.705 100.058113 
L 372.075 103.340824 
L 380.445 105.661877 
L 388.815 108.746345 
" clip-path="url(#p33759a83bc)" style="fill: none; stroke: #11c0ae; stroke-opacity: 0.2; stroke-width: 3; stroke-linecap: square"/>
   </g>
   <g id="line2d_21">
    <path d="M 54.015 134.761489 
L 62.385 135.146734 
L 70.755 133.337483 
L 79.125 131.568942 
L 87.495 129.696269 
L 95.865 129.909668 
L 104.235 129.074018 
L 112.605 127.443665 
L 120.975 126.955323 
L 129.345 124.605634 
L 137.715 125.325465 
L 146.085 122.904425 
L 154.455 122.428292 
L 162.825 121.912493 
L 171.195 121.723154 
L 179.565 123.738637 
L 187.935 122.23062 
L 196.305 121.425937 
L 204.675 120.569451 
L 213.045 120.35472 
L 221.415 120.019506 
L 229.785 117.439363 
L 238.155 116.240372 
L 246.525 116.408134 
L 254.895 120.138232 
L 263.265 120.828884 
L 271.635 120.701515 
L 280.005 116.691319 
L 288.375 118.394454 
L 296.745 117.867384 
L 305.115 120.009559 
L 313.485 118.828122 
L 321.855 120.069979 
L 330.225 119.735674 
L 338.595 121.74474 
L 346.965 122.552325 
L 355.335 122.367523 
L 363.705 119.531362 
L 372.075 115.196812 
L 380.445 115.24644 
L 388.815 119.304894 
" clip-path="url(#p33759a83bc)" style="fill: none; stroke: #8b749e; stroke-opacity: 0.2; stroke-width: 3; stroke-linecap: square"/>
   </g>
   <g id="line2d_22">
    <path d="M 54.015 154.743215 
L 62.385 153.314589 
L 70.755 151.926999 
L 79.125 150.536074 
L 87.495 148.894586 
L 95.865 147.118116 
L 104.235 144.461077 
L 112.605 142.768804 
L 120.975 142.735084 
L 129.345 143.845906 
L 137.715 143.756531 
L 146.085 143.196466 
L 154.455 142.102127 
L 162.825 141.697016 
L 171.195 140.840932 
L 179.565 140.906386 
L 187.935 140.548561 
L 196.305 140.544193 
L 204.675 138.923163 
L 213.045 137.996712 
L 221.415 137.859598 
L 229.785 137.943464 
L 238.155 137.609396 
L 246.525 136.069406 
L 254.895 136.667063 
L 263.265 137.378061 
L 271.635 137.510316 
L 280.005 138.521045 
L 288.375 137.384456 
L 296.745 138.201993 
L 305.115 136.870875 
L 313.485 137.815176 
L 321.855 138.021176 
L 330.225 137.26545 
L 338.595 136.284067 
L 346.965 134.691698 
L 355.335 135.981471 
L 363.705 137.644703 
L 372.075 139.397416 
L 380.445 134.280507 
L 388.815 123.327876 
" clip-path="url(#p33759a83bc)" style="fill: none; stroke: #72aa08; stroke-opacity: 0.8; stroke-width: 3; stroke-linecap: square"/>
   </g>
   <g id="line2d_23">
    <path d="M 54.015 161.79759 
L 62.385 161.178523 
L 70.755 161.437815 
L 79.125 160.321829 
L 87.495 159.543738 
L 95.865 156.839983 
L 104.235 155.73086 
L 112.605 155.117467 
L 120.975 154.23157 
L 129.345 153.351098 
L 137.715 152.353924 
L 146.085 152.411276 
L 154.455 152.165028 
L 162.825 150.695865 
L 171.195 150.292891 
L 179.565 149.843674 
L 187.935 150.827443 
L 196.305 150.446831 
L 204.675 149.871058 
L 213.045 150.019468 
L 221.415 150.333412 
L 229.785 151.040106 
L 238.155 151.136198 
L 246.525 150.728935 
L 254.895 150.048594 
L 263.265 148.308422 
L 271.635 148.976198 
L 280.005 148.531818 
L 288.375 149.201659 
L 296.745 148.74075 
L 305.115 150.840944 
L 313.485 151.365287 
L 321.855 152.696962 
L 330.225 152.167125 
L 338.595 153.299749 
L 346.965 153.016431 
L 355.335 152.601751 
L 363.705 150.735465 
L 372.075 150.400989 
L 380.445 146.006308 
L 388.815 137.78183 
" clip-path="url(#p33759a83bc)" style="fill: none; stroke: #c32bc2; stroke-opacity: 0.2; stroke-width: 3; stroke-linecap: square"/>
   </g>
   <g id="line2d_24">
    <path d="M 54.015 167.75001 
L 62.385 166.72581 
L 70.755 165.286417 
L 79.125 165.636886 
L 87.495 164.773554 
L 95.865 165.306294 
L 104.235 164.224361 
L 112.605 163.448846 
L 120.975 163.352658 
L 129.345 162.085541 
L 137.715 161.98843 
L 146.085 160.850906 
L 154.455 161.651516 
L 162.825 161.611327 
L 171.195 160.810513 
L 179.565 160.308579 
L 187.935 159.697047 
L 196.305 158.810807 
L 204.675 158.646944 
L 213.045 158.272875 
L 221.415 160.01866 
L 229.785 160.638793 
L 238.155 161.427825 
L 246.525 161.199609 
L 254.895 160.079371 
L 263.265 158.893943 
L 271.635 158.40094 
L 280.005 158.204124 
L 288.375 158.992557 
L 296.745 159.337846 
L 305.115 159.290952 
L 313.485 159.247799 
L 321.855 159.081413 
L 330.225 158.950009 
L 338.595 160.409577 
L 346.965 158.884871 
L 355.335 159.34017 
L 363.705 159.243904 
L 372.075 161.862425 
L 380.445 162.317553 
L 388.815 159.922827 
" clip-path="url(#p33759a83bc)" style="fill: none; stroke: #bbb2d5; stroke-opacity: 0.2; stroke-width: 3; stroke-linecap: square"/>
   </g>
   <g id="line2d_25">
    <path d="M 54.015 150.017001 
L 62.385 149.10312 
L 70.755 148.486295 
L 79.125 147.700765 
L 87.495 146.431814 
L 95.865 145.438301 
L 104.235 144.383484 
L 112.605 141.368179 
L 120.975 138.071686 
L 129.345 136.428571 
L 137.715 138.419574 
L 146.085 139.907218 
L 154.455 139.10623 
L 162.825 137.408608 
L 171.195 135.244352 
L 179.565 134.567545 
L 187.935 132.874296 
L 196.305 132.333461 
L 204.675 130.118881 
L 213.045 128.749895 
L 221.415 127.401033 
L 229.785 129.15796 
L 238.155 129.345696 
L 246.525 129.979103 
L 254.895 128.266861 
L 263.265 129.650446 
L 271.635 129.25764 
L 280.005 128.521228 
L 288.375 125.608208 
L 296.745 126.119695 
L 305.115 127.868367 
L 313.485 126.981145 
L 321.855 125.901303 
L 330.225 127.78459 
L 338.595 130.911608 
L 346.965 129.874996 
L 355.335 122.734365 
L 363.705 120.462853 
L 372.075 118.796228 
L 380.445 120.626229 
L 388.815 120.496863 
" clip-path="url(#p33759a83bc)" style="fill: none; stroke: #38141e; stroke-opacity: 0.8; stroke-width: 3; stroke-linecap: square"/>
   </g>
   <g id="patch_3">
    <path d="M 54.015 177.140156 
L 54.015 14.060156 
" style="fill: none; stroke: #000000; stroke-width: 0.8; stroke-linejoin: miter; stroke-linecap: square"/>
   </g>
   <g id="patch_4">
    <path d="M 54.015 177.140156 
L 388.815 177.140156 
" style="fill: none; stroke: #000000; stroke-width: 0.8; stroke-linejoin: miter; stroke-linecap: square"/>
   </g>
   <g id="legend_1">
    <g id="line2d_26">
     <path d="M 414.555 30.420194 
L 424.555 30.420194 
L 434.555 30.420194 
" style="fill: none; stroke: #d81b60; stroke-opacity: 0.8; stroke-width: 3; stroke-linecap: square"/>
    </g>
    <g id="text_18">
     <!-- 0-Order -->
     <g transform="translate(442.555 33.920194)scale(0.1 -0.1)">
      <defs>
       <path id="DejaVuSans-2d" d="M 313 2009 
L 1997 2009 
L 1997 1497 
L 313 1497 
L 313 2009 
z
" transform="scale(0.015625)"/>
       <path id="DejaVuSans-4f" d="M 2522 4238 
Q 1834 4238 1429 3725 
Q 1025 3213 1025 2328 
Q 1025 1447 1429 934 
Q 1834 422 2522 422 
Q 3209 422 3611 934 
Q 4013 1447 4013 2328 
Q 4013 3213 3611 3725 
Q 3209 4238 2522 4238 
z
M 2522 4750 
Q 3503 4750 4090 4092 
Q 4678 3434 4678 2328 
Q 4678 1225 4090 567 
Q 3503 -91 2522 -91 
Q 1538 -91 948 565 
Q 359 1222 359 2328 
Q 359 3434 948 4092 
Q 1538 4750 2522 4750 
z
" transform="scale(0.015625)"/>
       <path id="DejaVuSans-64" d="M 2906 2969 
L 2906 4863 
L 3481 4863 
L 3481 0 
L 2906 0 
L 2906 525 
Q 2725 213 2448 61 
Q 2172 -91 1784 -91 
Q 1150 -91 751 415 
Q 353 922 353 1747 
Q 353 2572 751 3078 
Q 1150 3584 1784 3584 
Q 2172 3584 2448 3432 
Q 2725 3281 2906 2969 
z
M 947 1747 
Q 947 1113 1208 752 
Q 1469 391 1925 391 
Q 2381 391 2643 752 
Q 2906 1113 2906 1747 
Q 2906 2381 2643 2742 
Q 2381 3103 1925 3103 
Q 1469 3103 1208 2742 
Q 947 2381 947 1747 
z
" transform="scale(0.015625)"/>
      </defs>
      <use xlink:href="#DejaVuSans-30"/>
      <use xlink:href="#DejaVuSans-2d" x="63.623047"/>
      <use xlink:href="#DejaVuSans-4f" x="102.457031"/>
      <use xlink:href="#DejaVuSans-72" x="181.167969"/>
      <use xlink:href="#DejaVuSans-64" x="220.53125"/>
      <use xlink:href="#DejaVuSans-65" x="284.007812"/>
      <use xlink:href="#DejaVuSans-72" x="345.53125"/>
     </g>
    </g>
    <g id="line2d_27">
     <path d="M 414.555 45.098319 
L 424.555 45.098319 
L 434.555 45.098319 
" style="fill: none; stroke: #1e88e5; stroke-opacity: 0.8; stroke-width: 3; stroke-linecap: square"/>
    </g>
    <g id="text_19">
     <!-- 1-Order -->
     <g transform="translate(442.555 48.598319)scale(0.1 -0.1)">
      <use xlink:href="#DejaVuSans-31"/>
      <use xlink:href="#DejaVuSans-2d" x="63.623047"/>
      <use xlink:href="#DejaVuSans-4f" x="102.457031"/>
      <use xlink:href="#DejaVuSans-72" x="181.167969"/>
      <use xlink:href="#DejaVuSans-64" x="220.53125"/>
      <use xlink:href="#DejaVuSans-65" x="284.007812"/>
      <use xlink:href="#DejaVuSans-72" x="345.53125"/>
     </g>
    </g>
    <g id="line2d_28">
     <path d="M 414.555 59.776444 
L 424.555 59.776444 
L 434.555 59.776444 
" style="fill: none; stroke: #ffc107; stroke-opacity: 0.2; stroke-width: 3; stroke-linecap: square"/>
    </g>
    <g id="text_20">
     <!-- 2-Order -->
     <g transform="translate(442.555 63.276444)scale(0.1 -0.1)">
      <use xlink:href="#DejaVuSans-32"/>
      <use xlink:href="#DejaVuSans-2d" x="63.623047"/>
      <use xlink:href="#DejaVuSans-4f" x="102.457031"/>
      <use xlink:href="#DejaVuSans-72" x="181.167969"/>
      <use xlink:href="#DejaVuSans-64" x="220.53125"/>
      <use xlink:href="#DejaVuSans-65" x="284.007812"/>
      <use xlink:href="#DejaVuSans-72" x="345.53125"/>
     </g>
    </g>
    <g id="line2d_29">
     <path d="M 414.555 74.454569 
L 424.555 74.454569 
L 434.555 74.454569 
" style="fill: none; stroke: #004d40; stroke-opacity: 0.2; stroke-width: 3; stroke-linecap: square"/>
    </g>
    <g id="text_21">
     <!-- 3-Order -->
     <g transform="translate(442.555 77.954569)scale(0.1 -0.1)">
      <use xlink:href="#DejaVuSans-33"/>
      <use xlink:href="#DejaVuSans-2d" x="63.623047"/>
      <use xlink:href="#DejaVuSans-4f" x="102.457031"/>
      <use xlink:href="#DejaVuSans-72" x="181.167969"/>
      <use xlink:href="#DejaVuSans-64" x="220.53125"/>
      <use xlink:href="#DejaVuSans-65" x="284.007812"/>
      <use xlink:href="#DejaVuSans-72" x="345.53125"/>
     </g>
    </g>
    <g id="line2d_30">
     <path d="M 414.555 89.132694 
L 424.555 89.132694 
L 434.555 89.132694 
" style="fill: none; stroke: #11c0ae; stroke-opacity: 0.2; stroke-width: 3; stroke-linecap: square"/>
    </g>
    <g id="text_22">
     <!-- 4-Order -->
     <g transform="translate(442.555 92.632694)scale(0.1 -0.1)">
      <use xlink:href="#DejaVuSans-34"/>
      <use xlink:href="#DejaVuSans-2d" x="63.623047"/>
      <use xlink:href="#DejaVuSans-4f" x="102.457031"/>
      <use xlink:href="#DejaVuSans-72" x="181.167969"/>
      <use xlink:href="#DejaVuSans-64" x="220.53125"/>
      <use xlink:href="#DejaVuSans-65" x="284.007812"/>
      <use xlink:href="#DejaVuSans-72" x="345.53125"/>
     </g>
    </g>
    <g id="line2d_31">
     <path d="M 414.555 103.810819 
L 424.555 103.810819 
L 434.555 103.810819 
" style="fill: none; stroke: #8b749e; stroke-opacity: 0.2; stroke-width: 3; stroke-linecap: square"/>
    </g>
    <g id="text_23">
     <!-- 5-Order -->
     <g transform="translate(442.555 107.310819)scale(0.1 -0.1)">
      <use xlink:href="#DejaVuSans-35"/>
      <use xlink:href="#DejaVuSans-2d" x="63.623047"/>
      <use xlink:href="#DejaVuSans-4f" x="102.457031"/>
      <use xlink:href="#DejaVuSans-72" x="181.167969"/>
      <use xlink:href="#DejaVuSans-64" x="220.53125"/>
      <use xlink:href="#DejaVuSans-65" x="284.007812"/>
      <use xlink:href="#DejaVuSans-72" x="345.53125"/>
     </g>
    </g>
    <g id="line2d_32">
     <path d="M 414.555 118.488944 
L 424.555 118.488944 
L 434.555 118.488944 
" style="fill: none; stroke: #72aa08; stroke-opacity: 0.8; stroke-width: 3; stroke-linecap: square"/>
    </g>
    <g id="text_24">
     <!-- 6-Order -->
     <g transform="translate(442.555 121.988944)scale(0.1 -0.1)">
      <defs>
       <path id="DejaVuSans-36" d="M 2113 2584 
Q 1688 2584 1439 2293 
Q 1191 2003 1191 1497 
Q 1191 994 1439 701 
Q 1688 409 2113 409 
Q 2538 409 2786 701 
Q 3034 994 3034 1497 
Q 3034 2003 2786 2293 
Q 2538 2584 2113 2584 
z
M 3366 4563 
L 3366 3988 
Q 3128 4100 2886 4159 
Q 2644 4219 2406 4219 
Q 1781 4219 1451 3797 
Q 1122 3375 1075 2522 
Q 1259 2794 1537 2939 
Q 1816 3084 2150 3084 
Q 2853 3084 3261 2657 
Q 3669 2231 3669 1497 
Q 3669 778 3244 343 
Q 2819 -91 2113 -91 
Q 1303 -91 875 529 
Q 447 1150 447 2328 
Q 447 3434 972 4092 
Q 1497 4750 2381 4750 
Q 2619 4750 2861 4703 
Q 3103 4656 3366 4563 
z
" transform="scale(0.015625)"/>
      </defs>
      <use xlink:href="#DejaVuSans-36"/>
      <use xlink:href="#DejaVuSans-2d" x="63.623047"/>
      <use xlink:href="#DejaVuSans-4f" x="102.457031"/>
      <use xlink:href="#DejaVuSans-72" x="181.167969"/>
      <use xlink:href="#DejaVuSans-64" x="220.53125"/>
      <use xlink:href="#DejaVuSans-65" x="284.007812"/>
      <use xlink:href="#DejaVuSans-72" x="345.53125"/>
     </g>
    </g>
    <g id="line2d_33">
     <path d="M 414.555 133.167069 
L 424.555 133.167069 
L 434.555 133.167069 
" style="fill: none; stroke: #c32bc2; stroke-opacity: 0.2; stroke-width: 3; stroke-linecap: square"/>
    </g>
    <g id="text_25">
     <!-- 7-Order -->
     <g transform="translate(442.555 136.667069)scale(0.1 -0.1)">
      <defs>
       <path id="DejaVuSans-37" d="M 525 4666 
L 3525 4666 
L 3525 4397 
L 1831 0 
L 1172 0 
L 2766 4134 
L 525 4134 
L 525 4666 
z
" transform="scale(0.015625)"/>
      </defs>
      <use xlink:href="#DejaVuSans-37"/>
      <use xlink:href="#DejaVuSans-2d" x="63.623047"/>
      <use xlink:href="#DejaVuSans-4f" x="102.457031"/>
      <use xlink:href="#DejaVuSans-72" x="181.167969"/>
      <use xlink:href="#DejaVuSans-64" x="220.53125"/>
      <use xlink:href="#DejaVuSans-65" x="284.007812"/>
      <use xlink:href="#DejaVuSans-72" x="345.53125"/>
     </g>
    </g>
    <g id="line2d_34">
     <path d="M 414.555 147.845194 
L 424.555 147.845194 
L 434.555 147.845194 
" style="fill: none; stroke: #bbb2d5; stroke-opacity: 0.2; stroke-width: 3; stroke-linecap: square"/>
    </g>
    <g id="text_26">
     <!-- 8-Order -->
     <g transform="translate(442.555 151.345194)scale(0.1 -0.1)">
      <defs>
       <path id="DejaVuSans-38" d="M 2034 2216 
Q 1584 2216 1326 1975 
Q 1069 1734 1069 1313 
Q 1069 891 1326 650 
Q 1584 409 2034 409 
Q 2484 409 2743 651 
Q 3003 894 3003 1313 
Q 3003 1734 2745 1975 
Q 2488 2216 2034 2216 
z
M 1403 2484 
Q 997 2584 770 2862 
Q 544 3141 544 3541 
Q 544 4100 942 4425 
Q 1341 4750 2034 4750 
Q 2731 4750 3128 4425 
Q 3525 4100 3525 3541 
Q 3525 3141 3298 2862 
Q 3072 2584 2669 2484 
Q 3125 2378 3379 2068 
Q 3634 1759 3634 1313 
Q 3634 634 3220 271 
Q 2806 -91 2034 -91 
Q 1263 -91 848 271 
Q 434 634 434 1313 
Q 434 1759 690 2068 
Q 947 2378 1403 2484 
z
M 1172 3481 
Q 1172 3119 1398 2916 
Q 1625 2713 2034 2713 
Q 2441 2713 2670 2916 
Q 2900 3119 2900 3481 
Q 2900 3844 2670 4047 
Q 2441 4250 2034 4250 
Q 1625 4250 1398 4047 
Q 1172 3844 1172 3481 
z
" transform="scale(0.015625)"/>
      </defs>
      <use xlink:href="#DejaVuSans-38"/>
      <use xlink:href="#DejaVuSans-2d" x="63.623047"/>
      <use xlink:href="#DejaVuSans-4f" x="102.457031"/>
      <use xlink:href="#DejaVuSans-72" x="181.167969"/>
      <use xlink:href="#DejaVuSans-64" x="220.53125"/>
      <use xlink:href="#DejaVuSans-65" x="284.007812"/>
      <use xlink:href="#DejaVuSans-72" x="345.53125"/>
     </g>
    </g>
    <g id="line2d_35">
     <path d="M 414.555 162.523319 
L 424.555 162.523319 
L 434.555 162.523319 
" style="fill: none; stroke: #38141e; stroke-opacity: 0.8; stroke-width: 3; stroke-linecap: square"/>
    </g>
    <g id="text_27">
     <!-- 9-Order -->
     <g transform="translate(442.555 166.023319)scale(0.1 -0.1)">
      <defs>
       <path id="DejaVuSans-39" d="M 703 97 
L 703 672 
Q 941 559 1184 500 
Q 1428 441 1663 441 
Q 2288 441 2617 861 
Q 2947 1281 2994 2138 
Q 2813 1869 2534 1725 
Q 2256 1581 1919 1581 
Q 1219 1581 811 2004 
Q 403 2428 403 3163 
Q 403 3881 828 4315 
Q 1253 4750 1959 4750 
Q 2769 4750 3195 4129 
Q 3622 3509 3622 2328 
Q 3622 1225 3098 567 
Q 2575 -91 1691 -91 
Q 1453 -91 1209 -44 
Q 966 3 703 97 
z
M 1959 2075 
Q 2384 2075 2632 2365 
Q 2881 2656 2881 3163 
Q 2881 3666 2632 3958 
Q 2384 4250 1959 4250 
Q 1534 4250 1286 3958 
Q 1038 3666 1038 3163 
Q 1038 2656 1286 2365 
Q 1534 2075 1959 2075 
z
" transform="scale(0.015625)"/>
      </defs>
      <use xlink:href="#DejaVuSans-39"/>
      <use xlink:href="#DejaVuSans-2d" x="63.623047"/>
      <use xlink:href="#DejaVuSans-4f" x="102.457031"/>
      <use xlink:href="#DejaVuSans-72" x="181.167969"/>
      <use xlink:href="#DejaVuSans-64" x="220.53125"/>
      <use xlink:href="#DejaVuSans-65" x="284.007812"/>
      <use xlink:href="#DejaVuSans-72" x="345.53125"/>
     </g>
    </g>
   </g>
  </g>
 </g>
 <defs>
  <clipPath id="p33759a83bc">
   <rect x="54.015" y="14.060156" width="334.8" height="163.08"/>
  </clipPath>
 </defs>
</svg>
