<?xml version="1.0" encoding="utf-8" standalone="no"?>
<!DOCTYPE svg PUBLIC "-//W3C//DTD SVG 1.1//EN"
  "http://www.w3.org/Graphics/SVG/1.1/DTD/svg11.dtd">
<svg xmlns:xlink="http://www.w3.org/1999/xlink" width="432pt" height="432pt" viewBox="0 0 432 432" xmlns="http://www.w3.org/2000/svg" version="1.1">
 <metadata>
  <rdf:RDF xmlns:dc="http://purl.org/dc/elements/1.1/" xmlns:cc="http://creativecommons.org/ns#" xmlns:rdf="http://www.w3.org/1999/02/22-rdf-syntax-ns#">
   <cc:Work>
    <dc:type rdf:resource="http://purl.org/dc/dcmitype/StillImage"/>
    <dc:date>2023-06-29T12:25:37.163859</dc:date>
    <dc:format>image/svg+xml</dc:format>
    <dc:creator>
     <cc:Agent>
      <dc:title>Matplotlib v3.5.1, https://matplotlib.org/</dc:title>
     </cc:Agent>
    </dc:creator>
   </cc:Work>
  </rdf:RDF>
 </metadata>
 <defs>
  <style type="text/css">*{stroke-linejoin: round; stroke-linecap: butt}</style>
 </defs>
 <g id="figure_1">
  <g id="patch_1">
   <path d="M 0 432 
L 432 432 
L 432 0 
L 0 0 
L 0 432 
z
" style="fill: none"/>
  </g>
  <g id="axes_1">
   <g id="patch_2">
    <path d="M 54 378 
L 388.8 378 
L 388.8 51.84 
L 54 51.84 
z
" style="fill: #ffffff"/>
   </g>
   <g id="matplotlib.axis_1">
    <g id="xtick_1">
     <g id="line2d_1">
      <defs>
       <path id="mdf6dae9017" d="M 0 0 
L 0 3.5 
" style="stroke: #000000; stroke-width: 0.8"/>
      </defs>
      <g>
       <use xlink:href="#mdf6dae9017" x="54" y="378" style="stroke: #000000; stroke-width: 0.8"/>
      </g>
     </g>
     <g id="text_1">
      <!-- 0 -->
      <g transform="translate(50.81875 392.598437)scale(0.1 -0.1)">
       <defs>
        <path id="DejaVuSans-30" d="M 2034 4250 
Q 1547 4250 1301 3770 
Q 1056 3291 1056 2328 
Q 1056 1369 1301 889 
Q 1547 409 2034 409 
Q 2525 409 2770 889 
Q 3016 1369 3016 2328 
Q 3016 3291 2770 3770 
Q 2525 4250 2034 4250 
z
M 2034 4750 
Q 2819 4750 3233 4129 
Q 3647 3509 3647 2328 
Q 3647 1150 3233 529 
Q 2819 -91 2034 -91 
Q 1250 -91 836 529 
Q 422 1150 422 2328 
Q 422 3509 836 4129 
Q 1250 4750 2034 4750 
z
" transform="scale(0.015625)"/>
       </defs>
       <use xlink:href="#DejaVuSans-30"/>
      </g>
     </g>
    </g>
    <g id="xtick_2">
     <g id="line2d_2">
      <g>
       <use xlink:href="#mdf6dae9017" x="95.85" y="378" style="stroke: #000000; stroke-width: 0.8"/>
      </g>
     </g>
     <g id="text_2">
      <!-- 5 -->
      <g transform="translate(92.66875 392.598437)scale(0.1 -0.1)">
       <defs>
        <path id="DejaVuSans-35" d="M 691 4666 
L 3169 4666 
L 3169 4134 
L 1269 4134 
L 1269 2991 
Q 1406 3038 1543 3061 
Q 1681 3084 1819 3084 
Q 2600 3084 3056 2656 
Q 3513 2228 3513 1497 
Q 3513 744 3044 326 
Q 2575 -91 1722 -91 
Q 1428 -91 1123 -41 
Q 819 9 494 109 
L 494 744 
Q 775 591 1075 516 
Q 1375 441 1709 441 
Q 2250 441 2565 725 
Q 2881 1009 2881 1497 
Q 2881 1984 2565 2268 
Q 2250 2553 1709 2553 
Q 1456 2553 1204 2497 
Q 953 2441 691 2322 
L 691 4666 
z
" transform="scale(0.015625)"/>
       </defs>
       <use xlink:href="#DejaVuSans-35"/>
      </g>
     </g>
    </g>
    <g id="xtick_3">
     <g id="line2d_3">
      <g>
       <use xlink:href="#mdf6dae9017" x="137.7" y="378" style="stroke: #000000; stroke-width: 0.8"/>
      </g>
     </g>
     <g id="text_3">
      <!-- 10 -->
      <g transform="translate(131.3375 392.598437)scale(0.1 -0.1)">
       <defs>
        <path id="DejaVuSans-31" d="M 794 531 
L 1825 531 
L 1825 4091 
L 703 3866 
L 703 4441 
L 1819 4666 
L 2450 4666 
L 2450 531 
L 3481 531 
L 3481 0 
L 794 0 
L 794 531 
z
" transform="scale(0.015625)"/>
       </defs>
       <use xlink:href="#DejaVuSans-31"/>
       <use xlink:href="#DejaVuSans-30" x="63.623047"/>
      </g>
     </g>
    </g>
    <g id="xtick_4">
     <g id="line2d_4">
      <g>
       <use xlink:href="#mdf6dae9017" x="179.55" y="378" style="stroke: #000000; stroke-width: 0.8"/>
      </g>
     </g>
     <g id="text_4">
      <!-- 15 -->
      <g transform="translate(173.1875 392.598437)scale(0.1 -0.1)">
       <use xlink:href="#DejaVuSans-31"/>
       <use xlink:href="#DejaVuSans-35" x="63.623047"/>
      </g>
     </g>
    </g>
    <g id="xtick_5">
     <g id="line2d_5">
      <g>
       <use xlink:href="#mdf6dae9017" x="221.4" y="378" style="stroke: #000000; stroke-width: 0.8"/>
      </g>
     </g>
     <g id="text_5">
      <!-- 20 -->
      <g transform="translate(215.0375 392.598437)scale(0.1 -0.1)">
       <defs>
        <path id="DejaVuSans-32" d="M 1228 531 
L 3431 531 
L 3431 0 
L 469 0 
L 469 531 
Q 828 903 1448 1529 
Q 2069 2156 2228 2338 
Q 2531 2678 2651 2914 
Q 2772 3150 2772 3378 
Q 2772 3750 2511 3984 
Q 2250 4219 1831 4219 
Q 1534 4219 1204 4116 
Q 875 4013 500 3803 
L 500 4441 
Q 881 4594 1212 4672 
Q 1544 4750 1819 4750 
Q 2544 4750 2975 4387 
Q 3406 4025 3406 3419 
Q 3406 3131 3298 2873 
Q 3191 2616 2906 2266 
Q 2828 2175 2409 1742 
Q 1991 1309 1228 531 
z
" transform="scale(0.015625)"/>
       </defs>
       <use xlink:href="#DejaVuSans-32"/>
       <use xlink:href="#DejaVuSans-30" x="63.623047"/>
      </g>
     </g>
    </g>
    <g id="xtick_6">
     <g id="line2d_6">
      <g>
       <use xlink:href="#mdf6dae9017" x="263.25" y="378" style="stroke: #000000; stroke-width: 0.8"/>
      </g>
     </g>
     <g id="text_6">
      <!-- 25 -->
      <g transform="translate(256.8875 392.598437)scale(0.1 -0.1)">
       <use xlink:href="#DejaVuSans-32"/>
       <use xlink:href="#DejaVuSans-35" x="63.623047"/>
      </g>
     </g>
    </g>
    <g id="xtick_7">
     <g id="line2d_7">
      <g>
       <use xlink:href="#mdf6dae9017" x="305.1" y="378" style="stroke: #000000; stroke-width: 0.8"/>
      </g>
     </g>
     <g id="text_7">
      <!-- 30 -->
      <g transform="translate(298.7375 392.598437)scale(0.1 -0.1)">
       <defs>
        <path id="DejaVuSans-33" d="M 2597 2516 
Q 3050 2419 3304 2112 
Q 3559 1806 3559 1356 
Q 3559 666 3084 287 
Q 2609 -91 1734 -91 
Q 1441 -91 1130 -33 
Q 819 25 488 141 
L 488 750 
Q 750 597 1062 519 
Q 1375 441 1716 441 
Q 2309 441 2620 675 
Q 2931 909 2931 1356 
Q 2931 1769 2642 2001 
Q 2353 2234 1838 2234 
L 1294 2234 
L 1294 2753 
L 1863 2753 
Q 2328 2753 2575 2939 
Q 2822 3125 2822 3475 
Q 2822 3834 2567 4026 
Q 2313 4219 1838 4219 
Q 1578 4219 1281 4162 
Q 984 4106 628 3988 
L 628 4550 
Q 988 4650 1302 4700 
Q 1616 4750 1894 4750 
Q 2613 4750 3031 4423 
Q 3450 4097 3450 3541 
Q 3450 3153 3228 2886 
Q 3006 2619 2597 2516 
z
" transform="scale(0.015625)"/>
       </defs>
       <use xlink:href="#DejaVuSans-33"/>
       <use xlink:href="#DejaVuSans-30" x="63.623047"/>
      </g>
     </g>
    </g>
    <g id="xtick_8">
     <g id="line2d_8">
      <g>
       <use xlink:href="#mdf6dae9017" x="346.95" y="378" style="stroke: #000000; stroke-width: 0.8"/>
      </g>
     </g>
     <g id="text_8">
      <!-- 35 -->
      <g transform="translate(340.5875 392.598437)scale(0.1 -0.1)">
       <use xlink:href="#DejaVuSans-33"/>
       <use xlink:href="#DejaVuSans-35" x="63.623047"/>
      </g>
     </g>
    </g>
    <g id="xtick_9">
     <g id="line2d_9">
      <g>
       <use xlink:href="#mdf6dae9017" x="388.8" y="378" style="stroke: #000000; stroke-width: 0.8"/>
      </g>
     </g>
     <g id="text_9">
      <!-- 40 -->
      <g transform="translate(382.4375 392.598437)scale(0.1 -0.1)">
       <defs>
        <path id="DejaVuSans-34" d="M 2419 4116 
L 825 1625 
L 2419 1625 
L 2419 4116 
z
M 2253 4666 
L 3047 4666 
L 3047 1625 
L 3713 1625 
L 3713 1100 
L 3047 1100 
L 3047 0 
L 2419 0 
L 2419 1100 
L 313 1100 
L 313 1709 
L 2253 4666 
z
" transform="scale(0.015625)"/>
       </defs>
       <use xlink:href="#DejaVuSans-34"/>
       <use xlink:href="#DejaVuSans-30" x="63.623047"/>
      </g>
     </g>
    </g>
    <g id="text_10">
     <!-- Career Years -->
     <g transform="translate(189.911719 406.276563)scale(0.1 -0.1)">
      <defs>
       <path id="DejaVuSans-43" d="M 4122 4306 
L 4122 3641 
Q 3803 3938 3442 4084 
Q 3081 4231 2675 4231 
Q 1875 4231 1450 3742 
Q 1025 3253 1025 2328 
Q 1025 1406 1450 917 
Q 1875 428 2675 428 
Q 3081 428 3442 575 
Q 3803 722 4122 1019 
L 4122 359 
Q 3791 134 3420 21 
Q 3050 -91 2638 -91 
Q 1578 -91 968 557 
Q 359 1206 359 2328 
Q 359 3453 968 4101 
Q 1578 4750 2638 4750 
Q 3056 4750 3426 4639 
Q 3797 4528 4122 4306 
z
" transform="scale(0.015625)"/>
       <path id="DejaVuSans-61" d="M 2194 1759 
Q 1497 1759 1228 1600 
Q 959 1441 959 1056 
Q 959 750 1161 570 
Q 1363 391 1709 391 
Q 2188 391 2477 730 
Q 2766 1069 2766 1631 
L 2766 1759 
L 2194 1759 
z
M 3341 1997 
L 3341 0 
L 2766 0 
L 2766 531 
Q 2569 213 2275 61 
Q 1981 -91 1556 -91 
Q 1019 -91 701 211 
Q 384 513 384 1019 
Q 384 1609 779 1909 
Q 1175 2209 1959 2209 
L 2766 2209 
L 2766 2266 
Q 2766 2663 2505 2880 
Q 2244 3097 1772 3097 
Q 1472 3097 1187 3025 
Q 903 2953 641 2809 
L 641 3341 
Q 956 3463 1253 3523 
Q 1550 3584 1831 3584 
Q 2591 3584 2966 3190 
Q 3341 2797 3341 1997 
z
" transform="scale(0.015625)"/>
       <path id="DejaVuSans-72" d="M 2631 2963 
Q 2534 3019 2420 3045 
Q 2306 3072 2169 3072 
Q 1681 3072 1420 2755 
Q 1159 2438 1159 1844 
L 1159 0 
L 581 0 
L 581 3500 
L 1159 3500 
L 1159 2956 
Q 1341 3275 1631 3429 
Q 1922 3584 2338 3584 
Q 2397 3584 2469 3576 
Q 2541 3569 2628 3553 
L 2631 2963 
z
" transform="scale(0.015625)"/>
       <path id="DejaVuSans-65" d="M 3597 1894 
L 3597 1613 
L 953 1613 
Q 991 1019 1311 708 
Q 1631 397 2203 397 
Q 2534 397 2845 478 
Q 3156 559 3463 722 
L 3463 178 
Q 3153 47 2828 -22 
Q 2503 -91 2169 -91 
Q 1331 -91 842 396 
Q 353 884 353 1716 
Q 353 2575 817 3079 
Q 1281 3584 2069 3584 
Q 2775 3584 3186 3129 
Q 3597 2675 3597 1894 
z
M 3022 2063 
Q 3016 2534 2758 2815 
Q 2500 3097 2075 3097 
Q 1594 3097 1305 2825 
Q 1016 2553 972 2059 
L 3022 2063 
z
" transform="scale(0.015625)"/>
       <path id="DejaVuSans-20" transform="scale(0.015625)"/>
       <path id="DejaVuSans-59" d="M -13 4666 
L 666 4666 
L 1959 2747 
L 3244 4666 
L 3922 4666 
L 2272 2222 
L 2272 0 
L 1638 0 
L 1638 2222 
L -13 4666 
z
" transform="scale(0.015625)"/>
       <path id="DejaVuSans-73" d="M 2834 3397 
L 2834 2853 
Q 2591 2978 2328 3040 
Q 2066 3103 1784 3103 
Q 1356 3103 1142 2972 
Q 928 2841 928 2578 
Q 928 2378 1081 2264 
Q 1234 2150 1697 2047 
L 1894 2003 
Q 2506 1872 2764 1633 
Q 3022 1394 3022 966 
Q 3022 478 2636 193 
Q 2250 -91 1575 -91 
Q 1294 -91 989 -36 
Q 684 19 347 128 
L 347 722 
Q 666 556 975 473 
Q 1284 391 1588 391 
Q 1994 391 2212 530 
Q 2431 669 2431 922 
Q 2431 1156 2273 1281 
Q 2116 1406 1581 1522 
L 1381 1569 
Q 847 1681 609 1914 
Q 372 2147 372 2553 
Q 372 3047 722 3315 
Q 1072 3584 1716 3584 
Q 2034 3584 2315 3537 
Q 2597 3491 2834 3397 
z
" transform="scale(0.015625)"/>
      </defs>
      <use xlink:href="#DejaVuSans-43"/>
      <use xlink:href="#DejaVuSans-61" x="69.824219"/>
      <use xlink:href="#DejaVuSans-72" x="131.103516"/>
      <use xlink:href="#DejaVuSans-65" x="169.966797"/>
      <use xlink:href="#DejaVuSans-65" x="231.490234"/>
      <use xlink:href="#DejaVuSans-72" x="293.013672"/>
      <use xlink:href="#DejaVuSans-20" x="334.126953"/>
      <use xlink:href="#DejaVuSans-59" x="365.914062"/>
      <use xlink:href="#DejaVuSans-65" x="413.748047"/>
      <use xlink:href="#DejaVuSans-61" x="475.271484"/>
      <use xlink:href="#DejaVuSans-72" x="536.550781"/>
      <use xlink:href="#DejaVuSans-73" x="577.664062"/>
     </g>
    </g>
   </g>
   <g id="matplotlib.axis_2">
    <g id="ytick_1">
     <g id="line2d_10">
      <defs>
       <path id="m9720a39d6f" d="M 0 0 
L -3.5 0 
" style="stroke: #000000; stroke-width: 0.8"/>
      </defs>
      <g>
       <use xlink:href="#m9720a39d6f" x="54" y="312.534379" style="stroke: #000000; stroke-width: 0.8"/>
      </g>
     </g>
     <g id="text_11">
      <!-- 0.05 -->
      <g transform="translate(24.734375 316.333598)scale(0.1 -0.1)">
       <defs>
        <path id="DejaVuSans-2e" d="M 684 794 
L 1344 794 
L 1344 0 
L 684 0 
L 684 794 
z
" transform="scale(0.015625)"/>
       </defs>
       <use xlink:href="#DejaVuSans-30"/>
       <use xlink:href="#DejaVuSans-2e" x="63.623047"/>
       <use xlink:href="#DejaVuSans-30" x="95.410156"/>
       <use xlink:href="#DejaVuSans-35" x="159.033203"/>
      </g>
     </g>
    </g>
    <g id="ytick_2">
     <g id="line2d_11">
      <g>
       <use xlink:href="#m9720a39d6f" x="54" y="241.420537" style="stroke: #000000; stroke-width: 0.8"/>
      </g>
     </g>
     <g id="text_12">
      <!-- 0.10 -->
      <g transform="translate(24.734375 245.219756)scale(0.1 -0.1)">
       <use xlink:href="#DejaVuSans-30"/>
       <use xlink:href="#DejaVuSans-2e" x="63.623047"/>
       <use xlink:href="#DejaVuSans-31" x="95.410156"/>
       <use xlink:href="#DejaVuSans-30" x="159.033203"/>
      </g>
     </g>
    </g>
    <g id="ytick_3">
     <g id="line2d_12">
      <g>
       <use xlink:href="#m9720a39d6f" x="54" y="170.306695" style="stroke: #000000; stroke-width: 0.8"/>
      </g>
     </g>
     <g id="text_13">
      <!-- 0.15 -->
      <g transform="translate(24.734375 174.105914)scale(0.1 -0.1)">
       <use xlink:href="#DejaVuSans-30"/>
       <use xlink:href="#DejaVuSans-2e" x="63.623047"/>
       <use xlink:href="#DejaVuSans-31" x="95.410156"/>
       <use xlink:href="#DejaVuSans-35" x="159.033203"/>
      </g>
     </g>
    </g>
    <g id="ytick_4">
     <g id="line2d_13">
      <g>
       <use xlink:href="#m9720a39d6f" x="54" y="99.192854" style="stroke: #000000; stroke-width: 0.8"/>
      </g>
     </g>
     <g id="text_14">
      <!-- 0.20 -->
      <g transform="translate(24.734375 102.992072)scale(0.1 -0.1)">
       <use xlink:href="#DejaVuSans-30"/>
       <use xlink:href="#DejaVuSans-2e" x="63.623047"/>
       <use xlink:href="#DejaVuSans-32" x="95.410156"/>
       <use xlink:href="#DejaVuSans-30" x="159.033203"/>
      </g>
     </g>
    </g>
    <g id="text_15">
     <!-- Fraction of collaborations per size -->
     <g transform="translate(18.654687 299.241875)rotate(-90)scale(0.1 -0.1)">
      <defs>
       <path id="DejaVuSans-46" d="M 628 4666 
L 3309 4666 
L 3309 4134 
L 1259 4134 
L 1259 2759 
L 3109 2759 
L 3109 2228 
L 1259 2228 
L 1259 0 
L 628 0 
L 628 4666 
z
" transform="scale(0.015625)"/>
       <path id="DejaVuSans-63" d="M 3122 3366 
L 3122 2828 
Q 2878 2963 2633 3030 
Q 2388 3097 2138 3097 
Q 1578 3097 1268 2742 
Q 959 2388 959 1747 
Q 959 1106 1268 751 
Q 1578 397 2138 397 
Q 2388 397 2633 464 
Q 2878 531 3122 666 
L 3122 134 
Q 2881 22 2623 -34 
Q 2366 -91 2075 -91 
Q 1284 -91 818 406 
Q 353 903 353 1747 
Q 353 2603 823 3093 
Q 1294 3584 2113 3584 
Q 2378 3584 2631 3529 
Q 2884 3475 3122 3366 
z
" transform="scale(0.015625)"/>
       <path id="DejaVuSans-74" d="M 1172 4494 
L 1172 3500 
L 2356 3500 
L 2356 3053 
L 1172 3053 
L 1172 1153 
Q 1172 725 1289 603 
Q 1406 481 1766 481 
L 2356 481 
L 2356 0 
L 1766 0 
Q 1100 0 847 248 
Q 594 497 594 1153 
L 594 3053 
L 172 3053 
L 172 3500 
L 594 3500 
L 594 4494 
L 1172 4494 
z
" transform="scale(0.015625)"/>
       <path id="DejaVuSans-69" d="M 603 3500 
L 1178 3500 
L 1178 0 
L 603 0 
L 603 3500 
z
M 603 4863 
L 1178 4863 
L 1178 4134 
L 603 4134 
L 603 4863 
z
" transform="scale(0.015625)"/>
       <path id="DejaVuSans-6f" d="M 1959 3097 
Q 1497 3097 1228 2736 
Q 959 2375 959 1747 
Q 959 1119 1226 758 
Q 1494 397 1959 397 
Q 2419 397 2687 759 
Q 2956 1122 2956 1747 
Q 2956 2369 2687 2733 
Q 2419 3097 1959 3097 
z
M 1959 3584 
Q 2709 3584 3137 3096 
Q 3566 2609 3566 1747 
Q 3566 888 3137 398 
Q 2709 -91 1959 -91 
Q 1206 -91 779 398 
Q 353 888 353 1747 
Q 353 2609 779 3096 
Q 1206 3584 1959 3584 
z
" transform="scale(0.015625)"/>
       <path id="DejaVuSans-6e" d="M 3513 2113 
L 3513 0 
L 2938 0 
L 2938 2094 
Q 2938 2591 2744 2837 
Q 2550 3084 2163 3084 
Q 1697 3084 1428 2787 
Q 1159 2491 1159 1978 
L 1159 0 
L 581 0 
L 581 3500 
L 1159 3500 
L 1159 2956 
Q 1366 3272 1645 3428 
Q 1925 3584 2291 3584 
Q 2894 3584 3203 3211 
Q 3513 2838 3513 2113 
z
" transform="scale(0.015625)"/>
       <path id="DejaVuSans-66" d="M 2375 4863 
L 2375 4384 
L 1825 4384 
Q 1516 4384 1395 4259 
Q 1275 4134 1275 3809 
L 1275 3500 
L 2222 3500 
L 2222 3053 
L 1275 3053 
L 1275 0 
L 697 0 
L 697 3053 
L 147 3053 
L 147 3500 
L 697 3500 
L 697 3744 
Q 697 4328 969 4595 
Q 1241 4863 1831 4863 
L 2375 4863 
z
" transform="scale(0.015625)"/>
       <path id="DejaVuSans-6c" d="M 603 4863 
L 1178 4863 
L 1178 0 
L 603 0 
L 603 4863 
z
" transform="scale(0.015625)"/>
       <path id="DejaVuSans-62" d="M 3116 1747 
Q 3116 2381 2855 2742 
Q 2594 3103 2138 3103 
Q 1681 3103 1420 2742 
Q 1159 2381 1159 1747 
Q 1159 1113 1420 752 
Q 1681 391 2138 391 
Q 2594 391 2855 752 
Q 3116 1113 3116 1747 
z
M 1159 2969 
Q 1341 3281 1617 3432 
Q 1894 3584 2278 3584 
Q 2916 3584 3314 3078 
Q 3713 2572 3713 1747 
Q 3713 922 3314 415 
Q 2916 -91 2278 -91 
Q 1894 -91 1617 61 
Q 1341 213 1159 525 
L 1159 0 
L 581 0 
L 581 4863 
L 1159 4863 
L 1159 2969 
z
" transform="scale(0.015625)"/>
       <path id="DejaVuSans-70" d="M 1159 525 
L 1159 -1331 
L 581 -1331 
L 581 3500 
L 1159 3500 
L 1159 2969 
Q 1341 3281 1617 3432 
Q 1894 3584 2278 3584 
Q 2916 3584 3314 3078 
Q 3713 2572 3713 1747 
Q 3713 922 3314 415 
Q 2916 -91 2278 -91 
Q 1894 -91 1617 61 
Q 1341 213 1159 525 
z
M 3116 1747 
Q 3116 2381 2855 2742 
Q 2594 3103 2138 3103 
Q 1681 3103 1420 2742 
Q 1159 2381 1159 1747 
Q 1159 1113 1420 752 
Q 1681 391 2138 391 
Q 2594 391 2855 752 
Q 3116 1113 3116 1747 
z
" transform="scale(0.015625)"/>
       <path id="DejaVuSans-7a" d="M 353 3500 
L 3084 3500 
L 3084 2975 
L 922 459 
L 3084 459 
L 3084 0 
L 275 0 
L 275 525 
L 2438 3041 
L 353 3041 
L 353 3500 
z
" transform="scale(0.015625)"/>
      </defs>
      <use xlink:href="#DejaVuSans-46"/>
      <use xlink:href="#DejaVuSans-72" x="50.269531"/>
      <use xlink:href="#DejaVuSans-61" x="91.382812"/>
      <use xlink:href="#DejaVuSans-63" x="152.662109"/>
      <use xlink:href="#DejaVuSans-74" x="207.642578"/>
      <use xlink:href="#DejaVuSans-69" x="246.851562"/>
      <use xlink:href="#DejaVuSans-6f" x="274.634766"/>
      <use xlink:href="#DejaVuSans-6e" x="335.816406"/>
      <use xlink:href="#DejaVuSans-20" x="399.195312"/>
      <use xlink:href="#DejaVuSans-6f" x="430.982422"/>
      <use xlink:href="#DejaVuSans-66" x="492.164062"/>
      <use xlink:href="#DejaVuSans-20" x="527.369141"/>
      <use xlink:href="#DejaVuSans-63" x="559.15625"/>
      <use xlink:href="#DejaVuSans-6f" x="614.136719"/>
      <use xlink:href="#DejaVuSans-6c" x="675.318359"/>
      <use xlink:href="#DejaVuSans-6c" x="703.101562"/>
      <use xlink:href="#DejaVuSans-61" x="730.884766"/>
      <use xlink:href="#DejaVuSans-62" x="792.164062"/>
      <use xlink:href="#DejaVuSans-6f" x="855.640625"/>
      <use xlink:href="#DejaVuSans-72" x="916.822266"/>
      <use xlink:href="#DejaVuSans-61" x="957.935547"/>
      <use xlink:href="#DejaVuSans-74" x="1019.214844"/>
      <use xlink:href="#DejaVuSans-69" x="1058.423828"/>
      <use xlink:href="#DejaVuSans-6f" x="1086.207031"/>
      <use xlink:href="#DejaVuSans-6e" x="1147.388672"/>
      <use xlink:href="#DejaVuSans-73" x="1210.767578"/>
      <use xlink:href="#DejaVuSans-20" x="1262.867188"/>
      <use xlink:href="#DejaVuSans-70" x="1294.654297"/>
      <use xlink:href="#DejaVuSans-65" x="1358.130859"/>
      <use xlink:href="#DejaVuSans-72" x="1419.654297"/>
      <use xlink:href="#DejaVuSans-20" x="1460.767578"/>
      <use xlink:href="#DejaVuSans-73" x="1492.554688"/>
      <use xlink:href="#DejaVuSans-69" x="1544.654297"/>
      <use xlink:href="#DejaVuSans-7a" x="1572.4375"/>
      <use xlink:href="#DejaVuSans-65" x="1624.927734"/>
     </g>
    </g>
   </g>
   <g id="line2d_14">
    <path d="M 54 133.605919 
L 62.37 177.640397 
L 70.74 171.263041 
L 79.11 174.850487 
L 87.48 206.490606 
L 95.85 217.053028 
L 104.22 214.909107 
L 112.59 221.974933 
L 120.96 236.06214 
L 129.33 229.998583 
L 137.7 252.32853 
L 146.07 248.042434 
L 154.44 254.084922 
L 162.81 270.619325 
L 171.18 255.751632 
L 179.55 275.148972 
L 187.92 274.067482 
L 196.29 279.913142 
L 204.66 281.212373 
L 213.03 286.280211 
L 221.4 282.544859 
L 229.77 284.320775 
L 238.14 291.707888 
L 246.51 284.959585 
L 254.88 287.601082 
L 263.25 292.583087 
L 271.62 283.091318 
L 279.99 289.194874 
L 288.36 289.326686 
L 296.73 285.976508 
L 305.1 271.883255 
L 313.47 285.138825 
L 321.84 280.423497 
L 330.21 276.619067 
L 338.58 287.916179 
L 346.95 277.720997 
L 355.32 275.693854 
L 363.69 263.973806 
L 372.06 266.622158 
L 380.43 276.201655 
L 388.8 289.742667 
" clip-path="url(#p24bcda7364)" style="fill: none; stroke: #3e049c; stroke-width: 1.5; stroke-linecap: square"/>
   </g>
   <g id="line2d_15">
    <path d="M 54 66.665455 
L 62.37 74.151384 
L 70.74 72.569875 
L 79.11 107.889942 
L 87.48 89.902404 
L 95.85 92.268144 
L 104.22 103.103592 
L 112.59 108.191182 
L 120.96 116.70338 
L 129.33 117.818496 
L 137.7 107.599238 
L 146.07 106.218648 
L 154.44 116.800017 
L 162.81 120.366657 
L 171.18 128.482284 
L 179.55 136.302343 
L 187.92 137.873649 
L 196.29 148.733207 
L 204.66 138.937102 
L 213.03 131.492757 
L 221.4 144.144978 
L 229.77 148.298648 
L 238.14 137.416981 
L 246.51 160.552483 
L 254.88 165.440916 
L 263.25 145.410045 
L 271.62 136.542859 
L 279.99 154.862702 
L 288.36 164.440634 
L 296.73 168.816208 
L 305.1 156.660038 
L 313.47 149.579968 
L 321.84 174.001721 
L 330.21 159.808579 
L 338.58 137.636091 
L 346.95 162.705716 
L 355.32 147.473472 
L 363.69 160.41538 
L 372.06 161.725005 
L 380.43 147.549728 
L 388.8 163.480294 
" clip-path="url(#p24bcda7364)" style="fill: none; stroke: #6300a7; stroke-width: 1.5; stroke-linecap: square"/>
   </g>
   <g id="line2d_16">
    <path d="M 54 119.044684 
L 62.37 111.994609 
L 70.74 101.136212 
L 79.11 115.92865 
L 87.48 105.484741 
L 95.85 113.476494 
L 104.22 110.252038 
L 112.59 125.18958 
L 120.96 123.44842 
L 129.33 113.914239 
L 137.7 131.982825 
L 146.07 124.091328 
L 154.44 121.329032 
L 162.81 113.083567 
L 171.18 118.637966 
L 179.55 118.934423 
L 187.92 118.434539 
L 196.29 110.138602 
L 204.66 130.645786 
L 213.03 135.251049 
L 221.4 132.875685 
L 229.77 124.035351 
L 238.14 129.956112 
L 246.51 108.563217 
L 254.88 123.449683 
L 263.25 129.645732 
L 271.62 131.735752 
L 279.99 125.690742 
L 288.36 124.98822 
L 296.73 132.991638 
L 305.1 133.769089 
L 313.47 133.324775 
L 321.84 103.81454 
L 330.21 137.802119 
L 338.58 137.539406 
L 346.95 107.596264 
L 355.32 152.781903 
L 363.69 148.480775 
L 372.06 135.225895 
L 380.43 122.815057 
L 388.8 140.642046 
" clip-path="url(#p24bcda7364)" style="fill: none; stroke: #8606a6; stroke-opacity: 0.2; stroke-width: 1.5; stroke-linecap: square"/>
   </g>
   <g id="line2d_17">
    <path d="M 54 175.385801 
L 62.37 163.409135 
L 70.74 178.214666 
L 79.11 155.935444 
L 87.48 151.860005 
L 95.85 159.173733 
L 104.22 161.510745 
L 112.59 155.393278 
L 120.96 166.349231 
L 129.33 154.745894 
L 137.7 152.543961 
L 146.07 160.9109 
L 154.44 152.707527 
L 162.81 157.452169 
L 171.18 155.663656 
L 179.55 156.374954 
L 187.92 140.656664 
L 196.29 147.986528 
L 204.66 158.182954 
L 213.03 157.243273 
L 221.4 145.353486 
L 229.77 144.505966 
L 238.14 143.231501 
L 246.51 162.746452 
L 254.88 144.594789 
L 263.25 149.114293 
L 271.62 151.748 
L 279.99 140.240391 
L 288.36 144.002422 
L 296.73 125.287756 
L 305.1 151.027349 
L 313.47 139.262658 
L 321.84 160.739769 
L 330.21 128.955183 
L 338.58 142.71766 
L 346.95 139.093683 
L 355.32 144.100347 
L 363.69 147.090408 
L 372.06 133.218647 
L 380.43 164.860166 
L 388.8 157.857061 
" clip-path="url(#p24bcda7364)" style="fill: none; stroke: #a62098; stroke-opacity: 0.2; stroke-width: 1.5; stroke-linecap: square"/>
   </g>
   <g id="line2d_18">
    <path d="M 54 255.558227 
L 62.37 232.237325 
L 70.74 241.45461 
L 79.11 228.319843 
L 87.48 236.506594 
L 95.85 224.689945 
L 104.22 224.072144 
L 112.59 223.572362 
L 120.96 214.639504 
L 129.33 228.771425 
L 137.7 222.765253 
L 146.07 207.950106 
L 154.44 217.161298 
L 162.81 217.583737 
L 171.18 215.678402 
L 179.55 204.190636 
L 187.92 205.110173 
L 196.29 208.2877 
L 204.66 199.089217 
L 213.03 201.404224 
L 221.4 208.035233 
L 229.77 205.346406 
L 238.14 205.516348 
L 246.51 199.142665 
L 254.88 194.409988 
L 263.25 185.745181 
L 271.62 213.764596 
L 279.99 206.901948 
L 288.36 208.370864 
L 296.73 209.620141 
L 305.1 199.061603 
L 313.47 193.648744 
L 321.84 207.919689 
L 330.21 199.187034 
L 338.58 194.282119 
L 346.95 195.651069 
L 355.32 206.062474 
L 363.69 219.344702 
L 372.06 221.343206 
L 380.43 227.534714 
L 388.8 234.526725 
" clip-path="url(#p24bcda7364)" style="fill: none; stroke: #c03a83; stroke-opacity: 0.2; stroke-width: 1.5; stroke-linecap: square"/>
   </g>
   <g id="line2d_19">
    <path d="M 54 291.248482 
L 62.37 293.252413 
L 70.74 291.764447 
L 79.11 279.41415 
L 87.48 281.684373 
L 95.85 279.515278 
L 104.22 280.81 
L 112.59 276.218378 
L 120.96 268.851123 
L 129.33 277.615753 
L 137.7 260.84904 
L 146.07 273.559547 
L 154.44 261.77971 
L 162.81 257.734652 
L 171.18 270.185697 
L 179.55 260.541244 
L 187.92 270.917942 
L 196.29 260.321749 
L 204.66 255.277804 
L 213.03 265.315656 
L 221.4 258.917197 
L 229.77 253.085163 
L 238.14 248.438923 
L 246.51 251.074585 
L 254.88 254.182495 
L 263.25 272.837524 
L 271.62 255.592148 
L 279.99 253.34937 
L 288.36 246.606798 
L 296.73 266.732367 
L 305.1 249.901804 
L 313.47 260.618779 
L 321.84 259.004578 
L 330.21 258.024805 
L 338.58 258.432085 
L 346.95 272.145896 
L 355.32 263.307225 
L 363.69 257.223293 
L 372.06 253.594546 
L 380.43 234.954896 
L 388.8 257.547911 
" clip-path="url(#p24bcda7364)" style="fill: none; stroke: #d5546e; stroke-opacity: 0.2; stroke-width: 1.5; stroke-linecap: square"/>
   </g>
   <g id="line2d_20">
    <path d="M 54 334.815361 
L 62.37 330.478698 
L 70.74 329.807373 
L 79.11 325.739119 
L 87.48 321.380646 
L 95.85 319.070387 
L 104.22 314.119212 
L 112.59 304.000934 
L 120.96 308.001215 
L 129.33 313.898651 
L 137.7 311.266829 
L 146.07 307.416611 
L 154.44 310.235262 
L 162.81 304.108747 
L 171.18 304.76678 
L 179.55 304.635608 
L 187.92 304.536886 
L 196.29 302.426242 
L 204.66 304.607035 
L 213.03 293.933716 
L 221.4 296.36632 
L 229.77 303.710171 
L 238.14 294.482282 
L 246.51 294.18118 
L 254.88 293.637081 
L 263.25 298.391562 
L 271.62 298.831827 
L 279.99 294.502164 
L 288.36 305.002749 
L 296.73 291.397385 
L 305.1 299.849682 
L 313.47 296.295896 
L 321.84 297.574062 
L 330.21 301.19713 
L 338.58 291.352689 
L 346.95 291.154825 
L 355.32 290.781429 
L 363.69 299.789107 
L 372.06 302.03404 
L 380.43 302.245938 
L 388.8 266.319363 
" clip-path="url(#p24bcda7364)" style="fill: none; stroke: #e76f5a; stroke-width: 1.5; stroke-linecap: square"/>
   </g>
   <g id="line2d_21">
    <path d="M 54 350.196269 
L 62.37 350.383307 
L 70.74 345.959909 
L 79.11 351.892302 
L 87.48 343.083633 
L 95.85 340.870408 
L 104.22 334.207022 
L 112.59 335.82885 
L 120.96 336.858194 
L 129.33 328.412366 
L 137.7 330.069675 
L 146.07 330.335672 
L 154.44 328.787505 
L 162.81 328.458966 
L 171.18 320.725865 
L 179.55 326.151647 
L 187.92 325.520634 
L 196.29 327.160704 
L 204.66 323.662062 
L 213.03 321.7545 
L 221.4 328.131451 
L 229.77 325.715575 
L 238.14 326.37699 
L 246.51 328.759992 
L 254.88 323.051665 
L 263.25 321.926875 
L 271.62 317.377509 
L 279.99 327.419592 
L 288.36 319.020186 
L 296.73 321.758943 
L 305.1 324.404781 
L 313.47 332.757573 
L 321.84 325.188677 
L 330.21 333.115275 
L 338.58 329.291909 
L 346.95 332.597178 
L 355.32 331.262088 
L 363.69 326.579487 
L 372.06 320.389784 
L 380.43 329.074279 
L 388.8 297.833842 
" clip-path="url(#p24bcda7364)" style="fill: none; stroke: #f68d45; stroke-opacity: 0.2; stroke-width: 1.5; stroke-linecap: square"/>
   </g>
   <g id="line2d_22">
    <path d="M 54 363.174545 
L 62.37 358.069291 
L 70.74 361.580501 
L 79.11 353.759461 
L 87.48 360.361714 
L 95.85 355.933438 
L 104.22 357.244118 
L 112.59 353.284785 
L 120.96 350.860786 
L 129.33 356.614954 
L 137.7 344.996561 
L 146.07 350.225578 
L 154.44 349.174399 
L 162.81 350.233363 
L 171.18 349.962699 
L 179.55 343.936266 
L 187.92 346.950211 
L 196.29 345.962661 
L 204.66 338.139367 
L 213.03 345.878377 
L 221.4 343.515874 
L 229.77 349.558565 
L 238.14 349.934666 
L 246.51 348.676943 
L 254.88 348.065801 
L 263.25 342.607179 
L 271.62 340.92305 
L 279.99 344.841065 
L 288.36 341.3198 
L 296.73 346.080199 
L 305.1 347.099602 
L 313.47 341.013066 
L 321.84 345.797937 
L 330.21 346.011268 
L 338.58 340.15355 
L 346.95 355.344985 
L 355.32 336.038157 
L 363.69 343.13166 
L 372.06 354.715312 
L 380.43 353.165925 
L 388.8 346.108657 
" clip-path="url(#p24bcda7364)" style="fill: none; stroke: #fdae32; stroke-opacity: 0.2; stroke-width: 1.5; stroke-linecap: square"/>
   </g>
   <g id="line2d_23">
    <path d="M 54 324.510627 
L 62.37 322.588811 
L 70.74 320.454735 
L 79.11 320.475972 
L 87.48 317.450654 
L 95.85 312.154515 
L 104.22 313.977393 
L 112.59 310.55109 
L 120.96 292.431377 
L 129.33 292.415011 
L 137.7 299.803458 
L 146.07 305.454546 
L 154.44 302.1457 
L 162.81 294.564188 
L 171.18 294.35039 
L 179.55 287.989279 
L 187.92 290.13719 
L 196.29 283.274836 
L 204.66 284.451671 
L 213.03 275.651607 
L 221.4 274.320288 
L 229.77 275.628751 
L 238.14 287.143681 
L 246.51 275.548269 
L 254.88 279.77187 
L 263.25 275.943893 
L 271.62 284.598313 
L 279.99 277.202523 
L 288.36 271.127013 
L 296.73 265.544226 
L 305.1 280.548167 
L 313.47 282.565086 
L 321.84 259.740901 
L 330.21 273.48491 
L 338.58 294.883682 
L 346.95 280.194756 
L 355.32 266.704423 
L 363.69 248.176753 
L 372.06 265.336778 
L 380.43 255.803012 
L 388.8 260.146804 
" clip-path="url(#p24bcda7364)" style="fill: none; stroke: #fcd225; stroke-width: 1.5; stroke-linecap: square"/>
   </g>
   <g id="patch_3">
    <path d="M 54 378 
L 54 51.84 
" style="fill: none; stroke: #000000; stroke-width: 0.8; stroke-linejoin: miter; stroke-linecap: square"/>
   </g>
   <g id="patch_4">
    <path d="M 54 378 
L 388.8 378 
" style="fill: none; stroke: #000000; stroke-width: 0.8; stroke-linejoin: miter; stroke-linecap: square"/>
   </g>
   <g id="legend_1">
    <g id="patch_5">
     <path d="M 61 206.62125 
L 129.621875 206.62125 
Q 131.621875 206.62125 131.621875 204.62125 
L 131.621875 58.84 
Q 131.621875 56.84 129.621875 56.84 
L 61 56.84 
Q 59 56.84 59 58.84 
L 59 204.62125 
Q 59 206.62125 61 206.62125 
z
" style="fill: #ffffff; opacity: 0.8; stroke: #cccccc; stroke-linejoin: miter"/>
    </g>
    <g id="line2d_24">
     <path d="M 63 64.938437 
L 73 64.938437 
L 83 64.938437 
" style="fill: none; stroke: #3e049c; stroke-width: 1.5; stroke-linecap: square"/>
    </g>
    <g id="text_16">
     <!-- Size:1 -->
     <g transform="translate(91 68.438437)scale(0.1 -0.1)">
      <defs>
       <path id="DejaVuSans-53" d="M 3425 4513 
L 3425 3897 
Q 3066 4069 2747 4153 
Q 2428 4238 2131 4238 
Q 1616 4238 1336 4038 
Q 1056 3838 1056 3469 
Q 1056 3159 1242 3001 
Q 1428 2844 1947 2747 
L 2328 2669 
Q 3034 2534 3370 2195 
Q 3706 1856 3706 1288 
Q 3706 609 3251 259 
Q 2797 -91 1919 -91 
Q 1588 -91 1214 -16 
Q 841 59 441 206 
L 441 856 
Q 825 641 1194 531 
Q 1563 422 1919 422 
Q 2459 422 2753 634 
Q 3047 847 3047 1241 
Q 3047 1584 2836 1778 
Q 2625 1972 2144 2069 
L 1759 2144 
Q 1053 2284 737 2584 
Q 422 2884 422 3419 
Q 422 4038 858 4394 
Q 1294 4750 2059 4750 
Q 2388 4750 2728 4690 
Q 3069 4631 3425 4513 
z
" transform="scale(0.015625)"/>
       <path id="DejaVuSans-3a" d="M 750 794 
L 1409 794 
L 1409 0 
L 750 0 
L 750 794 
z
M 750 3309 
L 1409 3309 
L 1409 2516 
L 750 2516 
L 750 3309 
z
" transform="scale(0.015625)"/>
      </defs>
      <use xlink:href="#DejaVuSans-53"/>
      <use xlink:href="#DejaVuSans-69" x="63.476562"/>
      <use xlink:href="#DejaVuSans-7a" x="91.259766"/>
      <use xlink:href="#DejaVuSans-65" x="143.75"/>
      <use xlink:href="#DejaVuSans-3a" x="205.273438"/>
      <use xlink:href="#DejaVuSans-31" x="238.964844"/>
     </g>
    </g>
    <g id="line2d_25">
     <path d="M 63 79.616562 
L 73 79.616562 
L 83 79.616562 
" style="fill: none; stroke: #6300a7; stroke-width: 1.5; stroke-linecap: square"/>
    </g>
    <g id="text_17">
     <!-- Size:2 -->
     <g transform="translate(91 83.116562)scale(0.1 -0.1)">
      <use xlink:href="#DejaVuSans-53"/>
      <use xlink:href="#DejaVuSans-69" x="63.476562"/>
      <use xlink:href="#DejaVuSans-7a" x="91.259766"/>
      <use xlink:href="#DejaVuSans-65" x="143.75"/>
      <use xlink:href="#DejaVuSans-3a" x="205.273438"/>
      <use xlink:href="#DejaVuSans-32" x="238.964844"/>
     </g>
    </g>
    <g id="line2d_26">
     <path d="M 63 94.294688 
L 73 94.294688 
L 83 94.294688 
" style="fill: none; stroke: #8606a6; stroke-opacity: 0.2; stroke-width: 1.5; stroke-linecap: square"/>
    </g>
    <g id="text_18">
     <!-- Size:3 -->
     <g transform="translate(91 97.794688)scale(0.1 -0.1)">
      <use xlink:href="#DejaVuSans-53"/>
      <use xlink:href="#DejaVuSans-69" x="63.476562"/>
      <use xlink:href="#DejaVuSans-7a" x="91.259766"/>
      <use xlink:href="#DejaVuSans-65" x="143.75"/>
      <use xlink:href="#DejaVuSans-3a" x="205.273438"/>
      <use xlink:href="#DejaVuSans-33" x="238.964844"/>
     </g>
    </g>
    <g id="line2d_27">
     <path d="M 63 108.972812 
L 73 108.972812 
L 83 108.972812 
" style="fill: none; stroke: #a62098; stroke-opacity: 0.2; stroke-width: 1.5; stroke-linecap: square"/>
    </g>
    <g id="text_19">
     <!-- Size:4 -->
     <g transform="translate(91 112.472812)scale(0.1 -0.1)">
      <use xlink:href="#DejaVuSans-53"/>
      <use xlink:href="#DejaVuSans-69" x="63.476562"/>
      <use xlink:href="#DejaVuSans-7a" x="91.259766"/>
      <use xlink:href="#DejaVuSans-65" x="143.75"/>
      <use xlink:href="#DejaVuSans-3a" x="205.273438"/>
      <use xlink:href="#DejaVuSans-34" x="238.964844"/>
     </g>
    </g>
    <g id="line2d_28">
     <path d="M 63 123.650937 
L 73 123.650937 
L 83 123.650937 
" style="fill: none; stroke: #c03a83; stroke-opacity: 0.2; stroke-width: 1.5; stroke-linecap: square"/>
    </g>
    <g id="text_20">
     <!-- Size:5 -->
     <g transform="translate(91 127.150937)scale(0.1 -0.1)">
      <use xlink:href="#DejaVuSans-53"/>
      <use xlink:href="#DejaVuSans-69" x="63.476562"/>
      <use xlink:href="#DejaVuSans-7a" x="91.259766"/>
      <use xlink:href="#DejaVuSans-65" x="143.75"/>
      <use xlink:href="#DejaVuSans-3a" x="205.273438"/>
      <use xlink:href="#DejaVuSans-35" x="238.964844"/>
     </g>
    </g>
    <g id="line2d_29">
     <path d="M 63 138.329062 
L 73 138.329062 
L 83 138.329062 
" style="fill: none; stroke: #d5546e; stroke-opacity: 0.2; stroke-width: 1.5; stroke-linecap: square"/>
    </g>
    <g id="text_21">
     <!-- Size:6 -->
     <g transform="translate(91 141.829062)scale(0.1 -0.1)">
      <defs>
       <path id="DejaVuSans-36" d="M 2113 2584 
Q 1688 2584 1439 2293 
Q 1191 2003 1191 1497 
Q 1191 994 1439 701 
Q 1688 409 2113 409 
Q 2538 409 2786 701 
Q 3034 994 3034 1497 
Q 3034 2003 2786 2293 
Q 2538 2584 2113 2584 
z
M 3366 4563 
L 3366 3988 
Q 3128 4100 2886 4159 
Q 2644 4219 2406 4219 
Q 1781 4219 1451 3797 
Q 1122 3375 1075 2522 
Q 1259 2794 1537 2939 
Q 1816 3084 2150 3084 
Q 2853 3084 3261 2657 
Q 3669 2231 3669 1497 
Q 3669 778 3244 343 
Q 2819 -91 2113 -91 
Q 1303 -91 875 529 
Q 447 1150 447 2328 
Q 447 3434 972 4092 
Q 1497 4750 2381 4750 
Q 2619 4750 2861 4703 
Q 3103 4656 3366 4563 
z
" transform="scale(0.015625)"/>
      </defs>
      <use xlink:href="#DejaVuSans-53"/>
      <use xlink:href="#DejaVuSans-69" x="63.476562"/>
      <use xlink:href="#DejaVuSans-7a" x="91.259766"/>
      <use xlink:href="#DejaVuSans-65" x="143.75"/>
      <use xlink:href="#DejaVuSans-3a" x="205.273438"/>
      <use xlink:href="#DejaVuSans-36" x="238.964844"/>
     </g>
    </g>
    <g id="line2d_30">
     <path d="M 63 153.007187 
L 73 153.007187 
L 83 153.007187 
" style="fill: none; stroke: #e76f5a; stroke-width: 1.5; stroke-linecap: square"/>
    </g>
    <g id="text_22">
     <!-- Size:7 -->
     <g transform="translate(91 156.507187)scale(0.1 -0.1)">
      <defs>
       <path id="DejaVuSans-37" d="M 525 4666 
L 3525 4666 
L 3525 4397 
L 1831 0 
L 1172 0 
L 2766 4134 
L 525 4134 
L 525 4666 
z
" transform="scale(0.015625)"/>
      </defs>
      <use xlink:href="#DejaVuSans-53"/>
      <use xlink:href="#DejaVuSans-69" x="63.476562"/>
      <use xlink:href="#DejaVuSans-7a" x="91.259766"/>
      <use xlink:href="#DejaVuSans-65" x="143.75"/>
      <use xlink:href="#DejaVuSans-3a" x="205.273438"/>
      <use xlink:href="#DejaVuSans-37" x="238.964844"/>
     </g>
    </g>
    <g id="line2d_31">
     <path d="M 63 167.685312 
L 73 167.685312 
L 83 167.685312 
" style="fill: none; stroke: #f68d45; stroke-opacity: 0.2; stroke-width: 1.5; stroke-linecap: square"/>
    </g>
    <g id="text_23">
     <!-- Size:8 -->
     <g transform="translate(91 171.185312)scale(0.1 -0.1)">
      <defs>
       <path id="DejaVuSans-38" d="M 2034 2216 
Q 1584 2216 1326 1975 
Q 1069 1734 1069 1313 
Q 1069 891 1326 650 
Q 1584 409 2034 409 
Q 2484 409 2743 651 
Q 3003 894 3003 1313 
Q 3003 1734 2745 1975 
Q 2488 2216 2034 2216 
z
M 1403 2484 
Q 997 2584 770 2862 
Q 544 3141 544 3541 
Q 544 4100 942 4425 
Q 1341 4750 2034 4750 
Q 2731 4750 3128 4425 
Q 3525 4100 3525 3541 
Q 3525 3141 3298 2862 
Q 3072 2584 2669 2484 
Q 3125 2378 3379 2068 
Q 3634 1759 3634 1313 
Q 3634 634 3220 271 
Q 2806 -91 2034 -91 
Q 1263 -91 848 271 
Q 434 634 434 1313 
Q 434 1759 690 2068 
Q 947 2378 1403 2484 
z
M 1172 3481 
Q 1172 3119 1398 2916 
Q 1625 2713 2034 2713 
Q 2441 2713 2670 2916 
Q 2900 3119 2900 3481 
Q 2900 3844 2670 4047 
Q 2441 4250 2034 4250 
Q 1625 4250 1398 4047 
Q 1172 3844 1172 3481 
z
" transform="scale(0.015625)"/>
      </defs>
      <use xlink:href="#DejaVuSans-53"/>
      <use xlink:href="#DejaVuSans-69" x="63.476562"/>
      <use xlink:href="#DejaVuSans-7a" x="91.259766"/>
      <use xlink:href="#DejaVuSans-65" x="143.75"/>
      <use xlink:href="#DejaVuSans-3a" x="205.273438"/>
      <use xlink:href="#DejaVuSans-38" x="238.964844"/>
     </g>
    </g>
    <g id="line2d_32">
     <path d="M 63 182.363437 
L 73 182.363437 
L 83 182.363437 
" style="fill: none; stroke: #fdae32; stroke-opacity: 0.2; stroke-width: 1.5; stroke-linecap: square"/>
    </g>
    <g id="text_24">
     <!-- Size:9 -->
     <g transform="translate(91 185.863437)scale(0.1 -0.1)">
      <defs>
       <path id="DejaVuSans-39" d="M 703 97 
L 703 672 
Q 941 559 1184 500 
Q 1428 441 1663 441 
Q 2288 441 2617 861 
Q 2947 1281 2994 2138 
Q 2813 1869 2534 1725 
Q 2256 1581 1919 1581 
Q 1219 1581 811 2004 
Q 403 2428 403 3163 
Q 403 3881 828 4315 
Q 1253 4750 1959 4750 
Q 2769 4750 3195 4129 
Q 3622 3509 3622 2328 
Q 3622 1225 3098 567 
Q 2575 -91 1691 -91 
Q 1453 -91 1209 -44 
Q 966 3 703 97 
z
M 1959 2075 
Q 2384 2075 2632 2365 
Q 2881 2656 2881 3163 
Q 2881 3666 2632 3958 
Q 2384 4250 1959 4250 
Q 1534 4250 1286 3958 
Q 1038 3666 1038 3163 
Q 1038 2656 1286 2365 
Q 1534 2075 1959 2075 
z
" transform="scale(0.015625)"/>
      </defs>
      <use xlink:href="#DejaVuSans-53"/>
      <use xlink:href="#DejaVuSans-69" x="63.476562"/>
      <use xlink:href="#DejaVuSans-7a" x="91.259766"/>
      <use xlink:href="#DejaVuSans-65" x="143.75"/>
      <use xlink:href="#DejaVuSans-3a" x="205.273438"/>
      <use xlink:href="#DejaVuSans-39" x="238.964844"/>
     </g>
    </g>
    <g id="line2d_33">
     <path d="M 63 197.041562 
L 73 197.041562 
L 83 197.041562 
" style="fill: none; stroke: #fcd225; stroke-width: 1.5; stroke-linecap: square"/>
    </g>
    <g id="text_25">
     <!-- Size:10 -->
     <g transform="translate(91 200.541562)scale(0.1 -0.1)">
      <use xlink:href="#DejaVuSans-53"/>
      <use xlink:href="#DejaVuSans-69" x="63.476562"/>
      <use xlink:href="#DejaVuSans-7a" x="91.259766"/>
      <use xlink:href="#DejaVuSans-65" x="143.75"/>
      <use xlink:href="#DejaVuSans-3a" x="205.273438"/>
      <use xlink:href="#DejaVuSans-31" x="238.964844"/>
      <use xlink:href="#DejaVuSans-30" x="302.587891"/>
     </g>
    </g>
   </g>
  </g>
 </g>
 <defs>
  <clipPath id="p24bcda7364">
   <rect x="54" y="51.84" width="334.8" height="326.16"/>
  </clipPath>
 </defs>
</svg>
