<?xml version="1.0" encoding="utf-8" standalone="no"?>
<!DOCTYPE svg PUBLIC "-//W3C//DTD SVG 1.1//EN"
  "http://www.w3.org/Graphics/SVG/1.1/DTD/svg11.dtd">
<svg xmlns:xlink="http://www.w3.org/1999/xlink" width="310.735625pt" height="210.618125pt" viewBox="0 0 310.735625 210.618125" xmlns="http://www.w3.org/2000/svg" version="1.1">
 <metadata>
  <rdf:RDF xmlns:dc="http://purl.org/dc/elements/1.1/" xmlns:cc="http://creativecommons.org/ns#" xmlns:rdf="http://www.w3.org/1999/02/22-rdf-syntax-ns#">
   <cc:Work>
    <dc:type rdf:resource="http://purl.org/dc/dcmitype/StillImage"/>
    <dc:date>2023-06-29T15:39:11.305993</dc:date>
    <dc:format>image/svg+xml</dc:format>
    <dc:creator>
     <cc:Agent>
      <dc:title>Matplotlib v3.5.1, https://matplotlib.org/</dc:title>
     </cc:Agent>
    </dc:creator>
   </cc:Work>
  </rdf:RDF>
 </metadata>
 <defs>
  <style type="text/css">*{stroke-linejoin: round; stroke-linecap: butt}</style>
 </defs>
 <g id="figure_1">
  <g id="patch_1">
   <path d="M 0 210.618125 
L 310.735625 210.618125 
L 310.735625 0 
L 0 0 
L 0 210.618125 
z
" style="fill: none"/>
  </g>
  <g id="axes_1">
   <g id="patch_2">
    <path d="M 50.14375 173.061875 
L 217.54375 173.061875 
L 217.54375 9.981875 
L 50.14375 9.981875 
z
" style="fill: #ffffff"/>
   </g>
   <g id="matplotlib.axis_1">
    <g id="xtick_1">
     <g id="line2d_1">
      <defs>
       <path id="m7a5952c1f4" d="M 0 0 
L 0 3.5 
" style="stroke: #000000; stroke-width: 0.8"/>
      </defs>
      <g>
       <use xlink:href="#m7a5952c1f4" x="50.14375" y="173.061875" style="stroke: #000000; stroke-width: 0.8"/>
      </g>
     </g>
     <g id="text_1">
      <!-- 0 -->
      <g transform="translate(46.9625 187.660312)scale(0.1 -0.1)">
       <defs>
        <path id="DejaVuSans-30" d="M 2034 4250 
Q 1547 4250 1301 3770 
Q 1056 3291 1056 2328 
Q 1056 1369 1301 889 
Q 1547 409 2034 409 
Q 2525 409 2770 889 
Q 3016 1369 3016 2328 
Q 3016 3291 2770 3770 
Q 2525 4250 2034 4250 
z
M 2034 4750 
Q 2819 4750 3233 4129 
Q 3647 3509 3647 2328 
Q 3647 1150 3233 529 
Q 2819 -91 2034 -91 
Q 1250 -91 836 529 
Q 422 1150 422 2328 
Q 422 3509 836 4129 
Q 1250 4750 2034 4750 
z
" transform="scale(0.015625)"/>
       </defs>
       <use xlink:href="#DejaVuSans-30"/>
      </g>
     </g>
    </g>
    <g id="xtick_2">
     <g id="line2d_2">
      <g>
       <use xlink:href="#m7a5952c1f4" x="91.99375" y="173.061875" style="stroke: #000000; stroke-width: 0.8"/>
      </g>
     </g>
     <g id="text_2">
      <!-- 10 -->
      <g transform="translate(85.63125 187.660312)scale(0.1 -0.1)">
       <defs>
        <path id="DejaVuSans-31" d="M 794 531 
L 1825 531 
L 1825 4091 
L 703 3866 
L 703 4441 
L 1819 4666 
L 2450 4666 
L 2450 531 
L 3481 531 
L 3481 0 
L 794 0 
L 794 531 
z
" transform="scale(0.015625)"/>
       </defs>
       <use xlink:href="#DejaVuSans-31"/>
       <use xlink:href="#DejaVuSans-30" x="63.623047"/>
      </g>
     </g>
    </g>
    <g id="xtick_3">
     <g id="line2d_3">
      <g>
       <use xlink:href="#m7a5952c1f4" x="133.84375" y="173.061875" style="stroke: #000000; stroke-width: 0.8"/>
      </g>
     </g>
     <g id="text_3">
      <!-- 20 -->
      <g transform="translate(127.48125 187.660312)scale(0.1 -0.1)">
       <defs>
        <path id="DejaVuSans-32" d="M 1228 531 
L 3431 531 
L 3431 0 
L 469 0 
L 469 531 
Q 828 903 1448 1529 
Q 2069 2156 2228 2338 
Q 2531 2678 2651 2914 
Q 2772 3150 2772 3378 
Q 2772 3750 2511 3984 
Q 2250 4219 1831 4219 
Q 1534 4219 1204 4116 
Q 875 4013 500 3803 
L 500 4441 
Q 881 4594 1212 4672 
Q 1544 4750 1819 4750 
Q 2544 4750 2975 4387 
Q 3406 4025 3406 3419 
Q 3406 3131 3298 2873 
Q 3191 2616 2906 2266 
Q 2828 2175 2409 1742 
Q 1991 1309 1228 531 
z
" transform="scale(0.015625)"/>
       </defs>
       <use xlink:href="#DejaVuSans-32"/>
       <use xlink:href="#DejaVuSans-30" x="63.623047"/>
      </g>
     </g>
    </g>
    <g id="xtick_4">
     <g id="line2d_4">
      <g>
       <use xlink:href="#m7a5952c1f4" x="175.69375" y="173.061875" style="stroke: #000000; stroke-width: 0.8"/>
      </g>
     </g>
     <g id="text_4">
      <!-- 30 -->
      <g transform="translate(169.33125 187.660312)scale(0.1 -0.1)">
       <defs>
        <path id="DejaVuSans-33" d="M 2597 2516 
Q 3050 2419 3304 2112 
Q 3559 1806 3559 1356 
Q 3559 666 3084 287 
Q 2609 -91 1734 -91 
Q 1441 -91 1130 -33 
Q 819 25 488 141 
L 488 750 
Q 750 597 1062 519 
Q 1375 441 1716 441 
Q 2309 441 2620 675 
Q 2931 909 2931 1356 
Q 2931 1769 2642 2001 
Q 2353 2234 1838 2234 
L 1294 2234 
L 1294 2753 
L 1863 2753 
Q 2328 2753 2575 2939 
Q 2822 3125 2822 3475 
Q 2822 3834 2567 4026 
Q 2313 4219 1838 4219 
Q 1578 4219 1281 4162 
Q 984 4106 628 3988 
L 628 4550 
Q 988 4650 1302 4700 
Q 1616 4750 1894 4750 
Q 2613 4750 3031 4423 
Q 3450 4097 3450 3541 
Q 3450 3153 3228 2886 
Q 3006 2619 2597 2516 
z
" transform="scale(0.015625)"/>
       </defs>
       <use xlink:href="#DejaVuSans-33"/>
       <use xlink:href="#DejaVuSans-30" x="63.623047"/>
      </g>
     </g>
    </g>
    <g id="xtick_5">
     <g id="line2d_5">
      <g>
       <use xlink:href="#m7a5952c1f4" x="217.54375" y="173.061875" style="stroke: #000000; stroke-width: 0.8"/>
      </g>
     </g>
     <g id="text_5">
      <!-- 40 -->
      <g transform="translate(211.18125 187.660312)scale(0.1 -0.1)">
       <defs>
        <path id="DejaVuSans-34" d="M 2419 4116 
L 825 1625 
L 2419 1625 
L 2419 4116 
z
M 2253 4666 
L 3047 4666 
L 3047 1625 
L 3713 1625 
L 3713 1100 
L 3047 1100 
L 3047 0 
L 2419 0 
L 2419 1100 
L 313 1100 
L 313 1709 
L 2253 4666 
z
" transform="scale(0.015625)"/>
       </defs>
       <use xlink:href="#DejaVuSans-34"/>
       <use xlink:href="#DejaVuSans-30" x="63.623047"/>
      </g>
     </g>
    </g>
    <g id="text_6">
     <!-- Career Years -->
     <g transform="translate(102.355469 201.338437)scale(0.1 -0.1)">
      <defs>
       <path id="DejaVuSans-43" d="M 4122 4306 
L 4122 3641 
Q 3803 3938 3442 4084 
Q 3081 4231 2675 4231 
Q 1875 4231 1450 3742 
Q 1025 3253 1025 2328 
Q 1025 1406 1450 917 
Q 1875 428 2675 428 
Q 3081 428 3442 575 
Q 3803 722 4122 1019 
L 4122 359 
Q 3791 134 3420 21 
Q 3050 -91 2638 -91 
Q 1578 -91 968 557 
Q 359 1206 359 2328 
Q 359 3453 968 4101 
Q 1578 4750 2638 4750 
Q 3056 4750 3426 4639 
Q 3797 4528 4122 4306 
z
" transform="scale(0.015625)"/>
       <path id="DejaVuSans-61" d="M 2194 1759 
Q 1497 1759 1228 1600 
Q 959 1441 959 1056 
Q 959 750 1161 570 
Q 1363 391 1709 391 
Q 2188 391 2477 730 
Q 2766 1069 2766 1631 
L 2766 1759 
L 2194 1759 
z
M 3341 1997 
L 3341 0 
L 2766 0 
L 2766 531 
Q 2569 213 2275 61 
Q 1981 -91 1556 -91 
Q 1019 -91 701 211 
Q 384 513 384 1019 
Q 384 1609 779 1909 
Q 1175 2209 1959 2209 
L 2766 2209 
L 2766 2266 
Q 2766 2663 2505 2880 
Q 2244 3097 1772 3097 
Q 1472 3097 1187 3025 
Q 903 2953 641 2809 
L 641 3341 
Q 956 3463 1253 3523 
Q 1550 3584 1831 3584 
Q 2591 3584 2966 3190 
Q 3341 2797 3341 1997 
z
" transform="scale(0.015625)"/>
       <path id="DejaVuSans-72" d="M 2631 2963 
Q 2534 3019 2420 3045 
Q 2306 3072 2169 3072 
Q 1681 3072 1420 2755 
Q 1159 2438 1159 1844 
L 1159 0 
L 581 0 
L 581 3500 
L 1159 3500 
L 1159 2956 
Q 1341 3275 1631 3429 
Q 1922 3584 2338 3584 
Q 2397 3584 2469 3576 
Q 2541 3569 2628 3553 
L 2631 2963 
z
" transform="scale(0.015625)"/>
       <path id="DejaVuSans-65" d="M 3597 1894 
L 3597 1613 
L 953 1613 
Q 991 1019 1311 708 
Q 1631 397 2203 397 
Q 2534 397 2845 478 
Q 3156 559 3463 722 
L 3463 178 
Q 3153 47 2828 -22 
Q 2503 -91 2169 -91 
Q 1331 -91 842 396 
Q 353 884 353 1716 
Q 353 2575 817 3079 
Q 1281 3584 2069 3584 
Q 2775 3584 3186 3129 
Q 3597 2675 3597 1894 
z
M 3022 2063 
Q 3016 2534 2758 2815 
Q 2500 3097 2075 3097 
Q 1594 3097 1305 2825 
Q 1016 2553 972 2059 
L 3022 2063 
z
" transform="scale(0.015625)"/>
       <path id="DejaVuSans-20" transform="scale(0.015625)"/>
       <path id="DejaVuSans-59" d="M -13 4666 
L 666 4666 
L 1959 2747 
L 3244 4666 
L 3922 4666 
L 2272 2222 
L 2272 0 
L 1638 0 
L 1638 2222 
L -13 4666 
z
" transform="scale(0.015625)"/>
       <path id="DejaVuSans-73" d="M 2834 3397 
L 2834 2853 
Q 2591 2978 2328 3040 
Q 2066 3103 1784 3103 
Q 1356 3103 1142 2972 
Q 928 2841 928 2578 
Q 928 2378 1081 2264 
Q 1234 2150 1697 2047 
L 1894 2003 
Q 2506 1872 2764 1633 
Q 3022 1394 3022 966 
Q 3022 478 2636 193 
Q 2250 -91 1575 -91 
Q 1294 -91 989 -36 
Q 684 19 347 128 
L 347 722 
Q 666 556 975 473 
Q 1284 391 1588 391 
Q 1994 391 2212 530 
Q 2431 669 2431 922 
Q 2431 1156 2273 1281 
Q 2116 1406 1581 1522 
L 1381 1569 
Q 847 1681 609 1914 
Q 372 2147 372 2553 
Q 372 3047 722 3315 
Q 1072 3584 1716 3584 
Q 2034 3584 2315 3537 
Q 2597 3491 2834 3397 
z
" transform="scale(0.015625)"/>
      </defs>
      <use xlink:href="#DejaVuSans-43"/>
      <use xlink:href="#DejaVuSans-61" x="69.824219"/>
      <use xlink:href="#DejaVuSans-72" x="131.103516"/>
      <use xlink:href="#DejaVuSans-65" x="169.966797"/>
      <use xlink:href="#DejaVuSans-65" x="231.490234"/>
      <use xlink:href="#DejaVuSans-72" x="293.013672"/>
      <use xlink:href="#DejaVuSans-20" x="334.126953"/>
      <use xlink:href="#DejaVuSans-59" x="365.914062"/>
      <use xlink:href="#DejaVuSans-65" x="413.748047"/>
      <use xlink:href="#DejaVuSans-61" x="475.271484"/>
      <use xlink:href="#DejaVuSans-72" x="536.550781"/>
      <use xlink:href="#DejaVuSans-73" x="577.664062"/>
     </g>
    </g>
   </g>
   <g id="matplotlib.axis_2">
    <g id="ytick_1">
     <g id="line2d_6">
      <defs>
       <path id="m6ec8943cd3" d="M 0 0 
L -3.5 0 
" style="stroke: #000000; stroke-width: 0.8"/>
      </defs>
      <g>
       <use xlink:href="#m6ec8943cd3" x="50.14375" y="140.329064" style="stroke: #000000; stroke-width: 0.8"/>
      </g>
     </g>
     <g id="text_7">
      <!-- 0.05 -->
      <g transform="translate(20.878125 144.128283)scale(0.1 -0.1)">
       <defs>
        <path id="DejaVuSans-2e" d="M 684 794 
L 1344 794 
L 1344 0 
L 684 0 
L 684 794 
z
" transform="scale(0.015625)"/>
        <path id="DejaVuSans-35" d="M 691 4666 
L 3169 4666 
L 3169 4134 
L 1269 4134 
L 1269 2991 
Q 1406 3038 1543 3061 
Q 1681 3084 1819 3084 
Q 2600 3084 3056 2656 
Q 3513 2228 3513 1497 
Q 3513 744 3044 326 
Q 2575 -91 1722 -91 
Q 1428 -91 1123 -41 
Q 819 9 494 109 
L 494 744 
Q 775 591 1075 516 
Q 1375 441 1709 441 
Q 2250 441 2565 725 
Q 2881 1009 2881 1497 
Q 2881 1984 2565 2268 
Q 2250 2553 1709 2553 
Q 1456 2553 1204 2497 
Q 953 2441 691 2322 
L 691 4666 
z
" transform="scale(0.015625)"/>
       </defs>
       <use xlink:href="#DejaVuSans-30"/>
       <use xlink:href="#DejaVuSans-2e" x="63.623047"/>
       <use xlink:href="#DejaVuSans-30" x="95.410156"/>
       <use xlink:href="#DejaVuSans-35" x="159.033203"/>
      </g>
     </g>
    </g>
    <g id="ytick_2">
     <g id="line2d_7">
      <g>
       <use xlink:href="#m6ec8943cd3" x="50.14375" y="104.772144" style="stroke: #000000; stroke-width: 0.8"/>
      </g>
     </g>
     <g id="text_8">
      <!-- 0.10 -->
      <g transform="translate(20.878125 108.571362)scale(0.1 -0.1)">
       <use xlink:href="#DejaVuSans-30"/>
       <use xlink:href="#DejaVuSans-2e" x="63.623047"/>
       <use xlink:href="#DejaVuSans-31" x="95.410156"/>
       <use xlink:href="#DejaVuSans-30" x="159.033203"/>
      </g>
     </g>
    </g>
    <g id="ytick_3">
     <g id="line2d_8">
      <g>
       <use xlink:href="#m6ec8943cd3" x="50.14375" y="69.215223" style="stroke: #000000; stroke-width: 0.8"/>
      </g>
     </g>
     <g id="text_9">
      <!-- 0.15 -->
      <g transform="translate(20.878125 73.014441)scale(0.1 -0.1)">
       <use xlink:href="#DejaVuSans-30"/>
       <use xlink:href="#DejaVuSans-2e" x="63.623047"/>
       <use xlink:href="#DejaVuSans-31" x="95.410156"/>
       <use xlink:href="#DejaVuSans-35" x="159.033203"/>
      </g>
     </g>
    </g>
    <g id="ytick_4">
     <g id="line2d_9">
      <g>
       <use xlink:href="#m6ec8943cd3" x="50.14375" y="33.658302" style="stroke: #000000; stroke-width: 0.8"/>
      </g>
     </g>
     <g id="text_10">
      <!-- 0.20 -->
      <g transform="translate(20.878125 37.457521)scale(0.1 -0.1)">
       <use xlink:href="#DejaVuSans-30"/>
       <use xlink:href="#DejaVuSans-2e" x="63.623047"/>
       <use xlink:href="#DejaVuSans-32" x="95.410156"/>
       <use xlink:href="#DejaVuSans-30" x="159.033203"/>
      </g>
     </g>
    </g>
    <g id="text_11">
     <!-- Fraction of collaborations per size -->
     <g transform="translate(14.798438 175.84375)rotate(-90)scale(0.1 -0.1)">
      <defs>
       <path id="DejaVuSans-46" d="M 628 4666 
L 3309 4666 
L 3309 4134 
L 1259 4134 
L 1259 2759 
L 3109 2759 
L 3109 2228 
L 1259 2228 
L 1259 0 
L 628 0 
L 628 4666 
z
" transform="scale(0.015625)"/>
       <path id="DejaVuSans-63" d="M 3122 3366 
L 3122 2828 
Q 2878 2963 2633 3030 
Q 2388 3097 2138 3097 
Q 1578 3097 1268 2742 
Q 959 2388 959 1747 
Q 959 1106 1268 751 
Q 1578 397 2138 397 
Q 2388 397 2633 464 
Q 2878 531 3122 666 
L 3122 134 
Q 2881 22 2623 -34 
Q 2366 -91 2075 -91 
Q 1284 -91 818 406 
Q 353 903 353 1747 
Q 353 2603 823 3093 
Q 1294 3584 2113 3584 
Q 2378 3584 2631 3529 
Q 2884 3475 3122 3366 
z
" transform="scale(0.015625)"/>
       <path id="DejaVuSans-74" d="M 1172 4494 
L 1172 3500 
L 2356 3500 
L 2356 3053 
L 1172 3053 
L 1172 1153 
Q 1172 725 1289 603 
Q 1406 481 1766 481 
L 2356 481 
L 2356 0 
L 1766 0 
Q 1100 0 847 248 
Q 594 497 594 1153 
L 594 3053 
L 172 3053 
L 172 3500 
L 594 3500 
L 594 4494 
L 1172 4494 
z
" transform="scale(0.015625)"/>
       <path id="DejaVuSans-69" d="M 603 3500 
L 1178 3500 
L 1178 0 
L 603 0 
L 603 3500 
z
M 603 4863 
L 1178 4863 
L 1178 4134 
L 603 4134 
L 603 4863 
z
" transform="scale(0.015625)"/>
       <path id="DejaVuSans-6f" d="M 1959 3097 
Q 1497 3097 1228 2736 
Q 959 2375 959 1747 
Q 959 1119 1226 758 
Q 1494 397 1959 397 
Q 2419 397 2687 759 
Q 2956 1122 2956 1747 
Q 2956 2369 2687 2733 
Q 2419 3097 1959 3097 
z
M 1959 3584 
Q 2709 3584 3137 3096 
Q 3566 2609 3566 1747 
Q 3566 888 3137 398 
Q 2709 -91 1959 -91 
Q 1206 -91 779 398 
Q 353 888 353 1747 
Q 353 2609 779 3096 
Q 1206 3584 1959 3584 
z
" transform="scale(0.015625)"/>
       <path id="DejaVuSans-6e" d="M 3513 2113 
L 3513 0 
L 2938 0 
L 2938 2094 
Q 2938 2591 2744 2837 
Q 2550 3084 2163 3084 
Q 1697 3084 1428 2787 
Q 1159 2491 1159 1978 
L 1159 0 
L 581 0 
L 581 3500 
L 1159 3500 
L 1159 2956 
Q 1366 3272 1645 3428 
Q 1925 3584 2291 3584 
Q 2894 3584 3203 3211 
Q 3513 2838 3513 2113 
z
" transform="scale(0.015625)"/>
       <path id="DejaVuSans-66" d="M 2375 4863 
L 2375 4384 
L 1825 4384 
Q 1516 4384 1395 4259 
Q 1275 4134 1275 3809 
L 1275 3500 
L 2222 3500 
L 2222 3053 
L 1275 3053 
L 1275 0 
L 697 0 
L 697 3053 
L 147 3053 
L 147 3500 
L 697 3500 
L 697 3744 
Q 697 4328 969 4595 
Q 1241 4863 1831 4863 
L 2375 4863 
z
" transform="scale(0.015625)"/>
       <path id="DejaVuSans-6c" d="M 603 4863 
L 1178 4863 
L 1178 0 
L 603 0 
L 603 4863 
z
" transform="scale(0.015625)"/>
       <path id="DejaVuSans-62" d="M 3116 1747 
Q 3116 2381 2855 2742 
Q 2594 3103 2138 3103 
Q 1681 3103 1420 2742 
Q 1159 2381 1159 1747 
Q 1159 1113 1420 752 
Q 1681 391 2138 391 
Q 2594 391 2855 752 
Q 3116 1113 3116 1747 
z
M 1159 2969 
Q 1341 3281 1617 3432 
Q 1894 3584 2278 3584 
Q 2916 3584 3314 3078 
Q 3713 2572 3713 1747 
Q 3713 922 3314 415 
Q 2916 -91 2278 -91 
Q 1894 -91 1617 61 
Q 1341 213 1159 525 
L 1159 0 
L 581 0 
L 581 4863 
L 1159 4863 
L 1159 2969 
z
" transform="scale(0.015625)"/>
       <path id="DejaVuSans-70" d="M 1159 525 
L 1159 -1331 
L 581 -1331 
L 581 3500 
L 1159 3500 
L 1159 2969 
Q 1341 3281 1617 3432 
Q 1894 3584 2278 3584 
Q 2916 3584 3314 3078 
Q 3713 2572 3713 1747 
Q 3713 922 3314 415 
Q 2916 -91 2278 -91 
Q 1894 -91 1617 61 
Q 1341 213 1159 525 
z
M 3116 1747 
Q 3116 2381 2855 2742 
Q 2594 3103 2138 3103 
Q 1681 3103 1420 2742 
Q 1159 2381 1159 1747 
Q 1159 1113 1420 752 
Q 1681 391 2138 391 
Q 2594 391 2855 752 
Q 3116 1113 3116 1747 
z
" transform="scale(0.015625)"/>
       <path id="DejaVuSans-7a" d="M 353 3500 
L 3084 3500 
L 3084 2975 
L 922 459 
L 3084 459 
L 3084 0 
L 275 0 
L 275 525 
L 2438 3041 
L 353 3041 
L 353 3500 
z
" transform="scale(0.015625)"/>
      </defs>
      <use xlink:href="#DejaVuSans-46"/>
      <use xlink:href="#DejaVuSans-72" x="50.269531"/>
      <use xlink:href="#DejaVuSans-61" x="91.382812"/>
      <use xlink:href="#DejaVuSans-63" x="152.662109"/>
      <use xlink:href="#DejaVuSans-74" x="207.642578"/>
      <use xlink:href="#DejaVuSans-69" x="246.851562"/>
      <use xlink:href="#DejaVuSans-6f" x="274.634766"/>
      <use xlink:href="#DejaVuSans-6e" x="335.816406"/>
      <use xlink:href="#DejaVuSans-20" x="399.195312"/>
      <use xlink:href="#DejaVuSans-6f" x="430.982422"/>
      <use xlink:href="#DejaVuSans-66" x="492.164062"/>
      <use xlink:href="#DejaVuSans-20" x="527.369141"/>
      <use xlink:href="#DejaVuSans-63" x="559.15625"/>
      <use xlink:href="#DejaVuSans-6f" x="614.136719"/>
      <use xlink:href="#DejaVuSans-6c" x="675.318359"/>
      <use xlink:href="#DejaVuSans-6c" x="703.101562"/>
      <use xlink:href="#DejaVuSans-61" x="730.884766"/>
      <use xlink:href="#DejaVuSans-62" x="792.164062"/>
      <use xlink:href="#DejaVuSans-6f" x="855.640625"/>
      <use xlink:href="#DejaVuSans-72" x="916.822266"/>
      <use xlink:href="#DejaVuSans-61" x="957.935547"/>
      <use xlink:href="#DejaVuSans-74" x="1019.214844"/>
      <use xlink:href="#DejaVuSans-69" x="1058.423828"/>
      <use xlink:href="#DejaVuSans-6f" x="1086.207031"/>
      <use xlink:href="#DejaVuSans-6e" x="1147.388672"/>
      <use xlink:href="#DejaVuSans-73" x="1210.767578"/>
      <use xlink:href="#DejaVuSans-20" x="1262.867188"/>
      <use xlink:href="#DejaVuSans-70" x="1294.654297"/>
      <use xlink:href="#DejaVuSans-65" x="1358.130859"/>
      <use xlink:href="#DejaVuSans-72" x="1419.654297"/>
      <use xlink:href="#DejaVuSans-20" x="1460.767578"/>
      <use xlink:href="#DejaVuSans-73" x="1492.554688"/>
      <use xlink:href="#DejaVuSans-69" x="1544.654297"/>
      <use xlink:href="#DejaVuSans-7a" x="1572.4375"/>
      <use xlink:href="#DejaVuSans-65" x="1624.927734"/>
     </g>
    </g>
   </g>
   <g id="line2d_10">
    <path d="M 50.14375 50.864835 
L 54.32875 64.480101 
L 58.51375 71.354196 
L 62.69875 76.162564 
L 66.88375 83.794228 
L 71.06875 90.470665 
L 75.25375 93.051386 
L 79.43875 96.219572 
L 83.62375 98.734484 
L 87.80875 103.793417 
L 91.99375 105.790133 
L 96.17875 109.804523 
L 100.36375 112.852988 
L 104.54875 114.137855 
L 108.73375 117.64853 
L 112.91875 118.223223 
L 117.10375 122.250141 
L 121.28875 123.260708 
L 125.47375 125.296163 
L 129.65875 125.734782 
L 133.84375 126.252849 
L 138.02875 127.157462 
L 142.21375 127.559916 
L 146.39875 128.106634 
L 150.58375 128.252501 
L 154.76875 127.941123 
L 158.95375 128.206755 
L 163.13875 127.664021 
L 167.32375 128.144886 
L 171.50875 125.259616 
L 175.69375 124.56164 
L 179.87875 123.636138 
L 184.06375 124.42544 
L 188.24875 124.888332 
L 192.43375 124.437916 
L 196.61875 124.283713 
L 200.80375 120.293318 
L 204.98875 118.443511 
L 209.17375 118.528145 
L 213.35875 122.822955 
L 217.54375 128.933208 
" clip-path="url(#p7c0f3efba2)" style="fill: none; stroke: #d81b60; stroke-opacity: 0.8; stroke-width: 3; stroke-linecap: square"/>
   </g>
   <g id="line2d_11">
    <path d="M 50.14375 17.394602 
L 54.32875 19.626327 
L 58.51375 26.497075 
L 62.69875 29.122245 
L 66.88375 32.40529 
L 71.06875 31.607565 
L 75.25375 34.655695 
L 79.43875 38.728234 
L 83.62375 41.180718 
L 87.80875 41.082061 
L 91.99375 39.334605 
L 96.17875 39.164859 
L 100.36375 41.292762 
L 104.54875 45.003368 
L 108.73375 48.253756 
L 112.91875 51.171588 
L 117.10375 54.546742 
L 121.28875 54.985868 
L 125.47375 53.922386 
L 129.65875 53.157681 
L 133.84375 54.717939 
L 138.02875 55.705309 
L 142.21375 58.439894 
L 146.39875 61.296938 
L 150.58375 62.629116 
L 154.76875 58.627512 
L 158.95375 56.864476 
L 163.13875 60.036241 
L 167.32375 65.415132 
L 171.50875 65.714688 
L 175.69375 63.237911 
L 179.87875 64.102163 
L 184.06375 64.62692 
L 188.24875 62.636273 
L 192.43375 60.753606 
L 196.61875 58.697755 
L 200.80375 62.494303 
L 204.98875 62.330851 
L 209.17375 62.343561 
L 213.35875 62.85438 
L 217.54375 65.802022 
" clip-path="url(#p7c0f3efba2)" style="fill: none; stroke: #1e88e5; stroke-opacity: 0.8; stroke-width: 3; stroke-linecap: square"/>
   </g>
   <g id="line2d_12">
    <path d="M 50.14375 43.584217 
L 54.32875 39.424459 
L 58.51375 38.90512 
L 62.69875 37.820142 
L 66.88375 39.876856 
L 71.06875 38.930754 
L 75.25375 42.214894 
L 79.43875 43.876881 
L 83.62375 44.487248 
L 87.80875 45.619456 
L 91.99375 45.726607 
L 96.17875 46.962406 
L 100.36375 43.81253 
L 104.54875 42.903636 
L 108.73375 42.504534 
L 112.91875 43.396363 
L 117.10375 41.979802 
L 121.28875 43.931696 
L 125.47375 46.734448 
L 129.65875 50.523962 
L 133.84375 49.422223 
L 138.02875 48.539733 
L 142.21375 44.487655 
L 146.39875 44.390044 
L 150.58375 44.338314 
L 154.76875 48.200403 
L 158.95375 48.573913 
L 163.13875 47.797661 
L 167.32375 48.006975 
L 171.50875 49.353366 
L 175.69375 50.742792 
L 179.87875 45.879942 
L 184.06375 46.552114 
L 188.24875 47.254553 
L 192.43375 47.88484 
L 196.61875 50.381471 
L 200.80375 52.205032 
L 204.98875 56.809971 
L 209.17375 51.815496 
L 213.35875 50.509041 
L 217.54375 54.382898 
" clip-path="url(#p7c0f3efba2)" style="fill: none; stroke: #ffc107; stroke-opacity: 0.2; stroke-width: 3; stroke-linecap: square"/>
   </g>
   <g id="line2d_13">
    <path d="M 50.14375 71.754775 
L 54.32875 70.230142 
L 58.51375 66.988416 
L 62.69875 65.063561 
L 66.88375 61.890072 
L 71.06875 62.819289 
L 75.25375 63.408168 
L 79.43875 64.604084 
L 83.62375 63.476609 
L 87.80875 63.001723 
L 91.99375 62.095334 
L 96.17875 61.755606 
L 100.36375 62.573641 
L 104.54875 61.6991 
L 108.73375 62.310338 
L 112.91875 59.511087 
L 117.10375 58.231566 
L 121.28875 58.532899 
L 125.47375 61.297334 
L 129.65875 60.858494 
L 133.84375 58.578996 
L 138.02875 56.2437 
L 142.21375 59.142528 
L 146.39875 59.157332 
L 150.58375 60.137797 
L 154.76875 58.304722 
L 158.95375 57.578989 
L 163.13875 56.727011 
L 167.32375 52.31697 
L 171.50875 54.114796 
L 175.69375 53.324836 
L 179.87875 59.233504 
L 184.06375 55.55481 
L 188.24875 56.130644 
L 192.43375 52.522963 
L 196.61875 55.047157 
L 200.80375 55.775948 
L 204.98875 54.796775 
L 209.17375 58.256745 
L 213.35875 60.051187 
L 217.54375 62.990406 
" clip-path="url(#p7c0f3efba2)" style="fill: none; stroke: #004d40; stroke-opacity: 0.2; stroke-width: 3; stroke-linecap: square"/>
   </g>
   <g id="line2d_14">
    <path d="M 50.14375 111.840989 
L 54.32875 105.603569 
L 58.51375 101.063838 
L 62.69875 101.775383 
L 66.88375 98.981272 
L 71.06875 98.273322 
L 75.25375 96.117617 
L 79.43875 94.442543 
L 83.62375 95.225757 
L 87.80875 95.091239 
L 91.99375 93.976339 
L 96.17875 92.041318 
L 100.36375 91.177732 
L 104.54875 92.465781 
L 108.73375 90.304004 
L 112.91875 88.225077 
L 117.10375 86.993293 
L 121.28875 86.143057 
L 125.47375 85.525398 
L 129.65875 85.483321 
L 133.84375 86.526185 
L 138.02875 87.211539 
L 142.21375 85.729445 
L 146.39875 83.906709 
L 150.58375 80.611514 
L 154.76875 83.048503 
L 158.95375 85.130496 
L 163.13875 88.901443 
L 167.32375 88.210701 
L 171.50875 86.903976 
L 175.69375 84.45029 
L 179.87875 84.166881 
L 184.06375 84.187786 
L 188.24875 84.293349 
L 192.43375 82.248579 
L 196.61875 83.394485 
L 200.80375 87.571582 
L 204.98875 91.853605 
L 209.17375 95.432312 
L 213.35875 97.962649 
L 217.54375 101.325238 
" clip-path="url(#p7c0f3efba2)" style="fill: none; stroke: #11c0ae; stroke-opacity: 0.2; stroke-width: 3; stroke-linecap: square"/>
   </g>
   <g id="line2d_15">
    <path d="M 50.14375 129.686116 
L 54.32875 130.106099 
L 58.51375 128.13371 
L 62.69875 126.205703 
L 66.88375 124.164175 
L 71.06875 124.396817 
L 75.25375 123.485818 
L 79.43875 121.708458 
L 83.62375 121.176084 
L 87.80875 118.614528 
L 91.99375 119.399265 
L 96.17875 116.759925 
L 100.36375 116.24086 
L 104.54875 115.678551 
L 108.73375 115.47214 
L 112.91875 117.669355 
L 117.10375 116.025364 
L 121.28875 115.148124 
L 125.47375 114.21441 
L 129.65875 113.980318 
L 133.84375 113.614878 
L 138.02875 110.802089 
L 142.21375 109.494987 
L 146.39875 109.677875 
L 150.58375 113.744309 
L 154.76875 114.497236 
L 158.95375 114.358382 
L 163.13875 109.986594 
L 167.32375 111.843298 
L 171.50875 111.268703 
L 175.69375 113.604033 
L 179.87875 112.316069 
L 184.06375 113.669902 
L 188.24875 113.305453 
L 192.43375 115.495673 
L 196.61875 116.376076 
L 200.80375 116.174611 
L 204.98875 113.082719 
L 209.17375 108.357331 
L 213.35875 108.411434 
L 217.54375 112.835831 
" clip-path="url(#p7c0f3efba2)" style="fill: none; stroke: #8b749e; stroke-opacity: 0.2; stroke-width: 3; stroke-linecap: square"/>
   </g>
   <g id="line2d_16">
    <path d="M 50.14375 151.469556 
L 54.32875 149.912114 
L 58.51375 148.399407 
L 62.69875 146.883065 
L 66.88375 145.093567 
L 71.06875 143.156916 
L 75.25375 140.260297 
L 79.43875 138.415435 
L 83.62375 138.378675 
L 87.80875 139.589658 
L 91.99375 139.492224 
L 96.17875 138.881659 
L 100.36375 137.688645 
L 104.54875 137.247007 
L 108.73375 136.313731 
L 112.91875 136.385087 
L 117.10375 135.994998 
L 121.28875 135.990236 
L 125.47375 134.223041 
L 129.65875 133.213054 
L 133.84375 133.063576 
L 138.02875 133.155004 
L 142.21375 132.790814 
L 146.39875 131.111966 
L 150.58375 131.763512 
L 154.76875 132.53862 
L 158.95375 132.6828 
L 163.13875 133.784665 
L 167.32375 132.545591 
L 171.50875 133.436844 
L 175.69375 131.985702 
L 179.87875 133.015148 
L 184.06375 133.239723 
L 188.24875 132.415855 
L 192.43375 131.345982 
L 196.61875 129.610032 
L 200.80375 131.016102 
L 204.98875 132.829304 
L 209.17375 134.740056 
L 213.35875 129.161765 
L 217.54375 117.221557 
" clip-path="url(#p7c0f3efba2)" style="fill: none; stroke: #72aa08; stroke-opacity: 0.8; stroke-width: 3; stroke-linecap: square"/>
   </g>
   <g id="line2d_17">
    <path d="M 50.14375 159.16001 
L 54.32875 158.485123 
L 58.51375 158.767795 
L 62.69875 157.551182 
L 66.88375 156.702932 
L 71.06875 153.755386 
L 75.25375 152.546255 
L 79.43875 151.877553 
L 83.62375 150.911777 
L 87.80875 149.951914 
L 91.99375 148.864827 
L 96.17875 148.92735 
L 100.36375 148.658899 
L 104.54875 147.057264 
L 108.73375 146.617955 
L 112.91875 146.128233 
L 117.10375 147.200706 
L 121.28875 146.785775 
L 125.47375 146.158086 
L 129.65875 146.319877 
L 133.84375 146.662129 
L 138.02875 147.432544 
L 142.21375 147.537301 
L 146.39875 147.093316 
L 150.58375 146.35163 
L 154.76875 144.45455 
L 158.95375 145.182538 
L 163.13875 144.698089 
L 167.32375 145.428329 
L 171.50875 144.92586 
L 175.69375 147.215425 
L 179.87875 147.787047 
L 184.06375 149.238796 
L 188.24875 148.661185 
L 192.43375 149.895935 
L 196.61875 149.587071 
L 200.80375 149.135001 
L 204.98875 147.100435 
L 209.17375 146.7358 
L 213.35875 141.944859 
L 217.54375 132.978796 
" clip-path="url(#p7c0f3efba2)" style="fill: none; stroke: #c32bc2; stroke-opacity: 0.2; stroke-width: 3; stroke-linecap: square"/>
   </g>
   <g id="line2d_18">
    <path d="M 50.14375 165.649148 
L 54.32875 164.532598 
L 58.51375 162.963417 
L 62.69875 163.345488 
L 66.88375 162.404311 
L 71.06875 162.985087 
L 75.25375 161.805598 
L 79.43875 160.960156 
L 83.62375 160.855296 
L 87.80875 159.473925 
L 91.99375 159.368057 
L 96.17875 158.127965 
L 100.36375 159.000765 
L 104.54875 158.956952 
L 108.73375 158.08393 
L 112.91875 157.536737 
L 117.10375 156.870064 
L 121.28875 155.903915 
L 125.47375 155.725276 
L 129.65875 155.317478 
L 133.84375 157.220678 
L 138.02875 157.896726 
L 142.21375 158.756904 
L 146.39875 158.50811 
L 150.58375 157.286862 
L 154.76875 155.994547 
L 158.95375 155.457091 
L 163.13875 155.242528 
L 167.32375 156.102052 
L 171.50875 156.478475 
L 175.69375 156.427353 
L 179.87875 156.380309 
L 184.06375 156.19892 
L 188.24875 156.055668 
L 192.43375 157.646842 
L 196.61875 155.984657 
L 200.80375 156.481009 
L 204.98875 156.376063 
L 209.17375 159.230691 
L 213.35875 159.726857 
L 217.54375 157.116203 
" clip-path="url(#p7c0f3efba2)" style="fill: none; stroke: #bbb2d5; stroke-opacity: 0.2; stroke-width: 3; stroke-linecap: square"/>
   </g>
   <g id="line2d_19">
    <path d="M 50.14375 146.317188 
L 54.32875 145.320904 
L 58.51375 144.648461 
L 62.69875 143.792102 
L 66.88375 142.408732 
L 71.06875 141.325635 
L 75.25375 140.175708 
L 79.43875 136.888518 
L 83.62375 133.294788 
L 87.80875 131.503516 
L 91.99375 133.674044 
L 96.17875 135.295826 
L 100.36375 134.422614 
L 104.54875 132.571921 
L 108.73375 130.212518 
L 112.91875 129.474685 
L 117.10375 127.628759 
L 121.28875 127.039158 
L 125.47375 124.624894 
L 129.65875 123.132469 
L 133.84375 121.661983 
L 138.02875 123.577328 
L 142.21375 123.781992 
L 146.39875 124.472512 
L 150.58375 122.60588 
L 154.76875 124.114221 
L 158.95375 123.685996 
L 163.13875 122.883183 
L 167.32375 119.707502 
L 171.50875 120.265109 
L 175.69375 122.171455 
L 179.87875 121.204234 
L 184.06375 120.027025 
L 188.24875 122.080124 
L 192.43375 125.4891 
L 196.61875 124.359018 
L 200.80375 116.57453 
L 204.98875 114.098201 
L 209.17375 112.281299 
L 213.35875 114.276307 
L 217.54375 114.135277 
" clip-path="url(#p7c0f3efba2)" style="fill: none; stroke: #38141e; stroke-opacity: 0.8; stroke-width: 3; stroke-linecap: square"/>
   </g>
   <g id="patch_3">
    <path d="M 50.14375 173.061875 
L 50.14375 9.981875 
" style="fill: none; stroke: #000000; stroke-width: 0.8; stroke-linejoin: miter; stroke-linecap: square"/>
   </g>
   <g id="patch_4">
    <path d="M 50.14375 173.061875 
L 217.54375 173.061875 
" style="fill: none; stroke: #000000; stroke-width: 0.8; stroke-linejoin: miter; stroke-linecap: square"/>
   </g>
   <g id="legend_1">
    <g id="line2d_20">
     <path d="M 234.91375 26.341912 
L 244.91375 26.341912 
L 254.91375 26.341912 
" style="fill: none; stroke: #d81b60; stroke-opacity: 0.8; stroke-width: 3; stroke-linecap: square"/>
    </g>
    <g id="text_12">
     <!-- Size:1 -->
     <g transform="translate(262.91375 29.841912)scale(0.1 -0.1)">
      <defs>
       <path id="DejaVuSans-53" d="M 3425 4513 
L 3425 3897 
Q 3066 4069 2747 4153 
Q 2428 4238 2131 4238 
Q 1616 4238 1336 4038 
Q 1056 3838 1056 3469 
Q 1056 3159 1242 3001 
Q 1428 2844 1947 2747 
L 2328 2669 
Q 3034 2534 3370 2195 
Q 3706 1856 3706 1288 
Q 3706 609 3251 259 
Q 2797 -91 1919 -91 
Q 1588 -91 1214 -16 
Q 841 59 441 206 
L 441 856 
Q 825 641 1194 531 
Q 1563 422 1919 422 
Q 2459 422 2753 634 
Q 3047 847 3047 1241 
Q 3047 1584 2836 1778 
Q 2625 1972 2144 2069 
L 1759 2144 
Q 1053 2284 737 2584 
Q 422 2884 422 3419 
Q 422 4038 858 4394 
Q 1294 4750 2059 4750 
Q 2388 4750 2728 4690 
Q 3069 4631 3425 4513 
z
" transform="scale(0.015625)"/>
       <path id="DejaVuSans-3a" d="M 750 794 
L 1409 794 
L 1409 0 
L 750 0 
L 750 794 
z
M 750 3309 
L 1409 3309 
L 1409 2516 
L 750 2516 
L 750 3309 
z
" transform="scale(0.015625)"/>
      </defs>
      <use xlink:href="#DejaVuSans-53"/>
      <use xlink:href="#DejaVuSans-69" x="63.476562"/>
      <use xlink:href="#DejaVuSans-7a" x="91.259766"/>
      <use xlink:href="#DejaVuSans-65" x="143.75"/>
      <use xlink:href="#DejaVuSans-3a" x="205.273438"/>
      <use xlink:href="#DejaVuSans-31" x="238.964844"/>
     </g>
    </g>
    <g id="line2d_21">
     <path d="M 234.91375 41.020038 
L 244.91375 41.020038 
L 254.91375 41.020038 
" style="fill: none; stroke: #1e88e5; stroke-opacity: 0.8; stroke-width: 3; stroke-linecap: square"/>
    </g>
    <g id="text_13">
     <!-- Size:2 -->
     <g transform="translate(262.91375 44.520038)scale(0.1 -0.1)">
      <use xlink:href="#DejaVuSans-53"/>
      <use xlink:href="#DejaVuSans-69" x="63.476562"/>
      <use xlink:href="#DejaVuSans-7a" x="91.259766"/>
      <use xlink:href="#DejaVuSans-65" x="143.75"/>
      <use xlink:href="#DejaVuSans-3a" x="205.273438"/>
      <use xlink:href="#DejaVuSans-32" x="238.964844"/>
     </g>
    </g>
    <g id="line2d_22">
     <path d="M 234.91375 55.698162 
L 244.91375 55.698162 
L 254.91375 55.698162 
" style="fill: none; stroke: #ffc107; stroke-opacity: 0.2; stroke-width: 3; stroke-linecap: square"/>
    </g>
    <g id="text_14">
     <!-- Size:3 -->
     <g transform="translate(262.91375 59.198162)scale(0.1 -0.1)">
      <use xlink:href="#DejaVuSans-53"/>
      <use xlink:href="#DejaVuSans-69" x="63.476562"/>
      <use xlink:href="#DejaVuSans-7a" x="91.259766"/>
      <use xlink:href="#DejaVuSans-65" x="143.75"/>
      <use xlink:href="#DejaVuSans-3a" x="205.273438"/>
      <use xlink:href="#DejaVuSans-33" x="238.964844"/>
     </g>
    </g>
    <g id="line2d_23">
     <path d="M 234.91375 70.376287 
L 244.91375 70.376287 
L 254.91375 70.376287 
" style="fill: none; stroke: #004d40; stroke-opacity: 0.2; stroke-width: 3; stroke-linecap: square"/>
    </g>
    <g id="text_15">
     <!-- Size:4 -->
     <g transform="translate(262.91375 73.876287)scale(0.1 -0.1)">
      <use xlink:href="#DejaVuSans-53"/>
      <use xlink:href="#DejaVuSans-69" x="63.476562"/>
      <use xlink:href="#DejaVuSans-7a" x="91.259766"/>
      <use xlink:href="#DejaVuSans-65" x="143.75"/>
      <use xlink:href="#DejaVuSans-3a" x="205.273438"/>
      <use xlink:href="#DejaVuSans-34" x="238.964844"/>
     </g>
    </g>
    <g id="line2d_24">
     <path d="M 234.91375 85.054412 
L 244.91375 85.054412 
L 254.91375 85.054412 
" style="fill: none; stroke: #11c0ae; stroke-opacity: 0.2; stroke-width: 3; stroke-linecap: square"/>
    </g>
    <g id="text_16">
     <!-- Size:5 -->
     <g transform="translate(262.91375 88.554412)scale(0.1 -0.1)">
      <use xlink:href="#DejaVuSans-53"/>
      <use xlink:href="#DejaVuSans-69" x="63.476562"/>
      <use xlink:href="#DejaVuSans-7a" x="91.259766"/>
      <use xlink:href="#DejaVuSans-65" x="143.75"/>
      <use xlink:href="#DejaVuSans-3a" x="205.273438"/>
      <use xlink:href="#DejaVuSans-35" x="238.964844"/>
     </g>
    </g>
    <g id="line2d_25">
     <path d="M 234.91375 99.732537 
L 244.91375 99.732537 
L 254.91375 99.732537 
" style="fill: none; stroke: #8b749e; stroke-opacity: 0.2; stroke-width: 3; stroke-linecap: square"/>
    </g>
    <g id="text_17">
     <!-- Size:6 -->
     <g transform="translate(262.91375 103.232537)scale(0.1 -0.1)">
      <defs>
       <path id="DejaVuSans-36" d="M 2113 2584 
Q 1688 2584 1439 2293 
Q 1191 2003 1191 1497 
Q 1191 994 1439 701 
Q 1688 409 2113 409 
Q 2538 409 2786 701 
Q 3034 994 3034 1497 
Q 3034 2003 2786 2293 
Q 2538 2584 2113 2584 
z
M 3366 4563 
L 3366 3988 
Q 3128 4100 2886 4159 
Q 2644 4219 2406 4219 
Q 1781 4219 1451 3797 
Q 1122 3375 1075 2522 
Q 1259 2794 1537 2939 
Q 1816 3084 2150 3084 
Q 2853 3084 3261 2657 
Q 3669 2231 3669 1497 
Q 3669 778 3244 343 
Q 2819 -91 2113 -91 
Q 1303 -91 875 529 
Q 447 1150 447 2328 
Q 447 3434 972 4092 
Q 1497 4750 2381 4750 
Q 2619 4750 2861 4703 
Q 3103 4656 3366 4563 
z
" transform="scale(0.015625)"/>
      </defs>
      <use xlink:href="#DejaVuSans-53"/>
      <use xlink:href="#DejaVuSans-69" x="63.476562"/>
      <use xlink:href="#DejaVuSans-7a" x="91.259766"/>
      <use xlink:href="#DejaVuSans-65" x="143.75"/>
      <use xlink:href="#DejaVuSans-3a" x="205.273438"/>
      <use xlink:href="#DejaVuSans-36" x="238.964844"/>
     </g>
    </g>
    <g id="line2d_26">
     <path d="M 234.91375 114.410662 
L 244.91375 114.410662 
L 254.91375 114.410662 
" style="fill: none; stroke: #72aa08; stroke-opacity: 0.8; stroke-width: 3; stroke-linecap: square"/>
    </g>
    <g id="text_18">
     <!-- Size:7 -->
     <g transform="translate(262.91375 117.910662)scale(0.1 -0.1)">
      <defs>
       <path id="DejaVuSans-37" d="M 525 4666 
L 3525 4666 
L 3525 4397 
L 1831 0 
L 1172 0 
L 2766 4134 
L 525 4134 
L 525 4666 
z
" transform="scale(0.015625)"/>
      </defs>
      <use xlink:href="#DejaVuSans-53"/>
      <use xlink:href="#DejaVuSans-69" x="63.476562"/>
      <use xlink:href="#DejaVuSans-7a" x="91.259766"/>
      <use xlink:href="#DejaVuSans-65" x="143.75"/>
      <use xlink:href="#DejaVuSans-3a" x="205.273438"/>
      <use xlink:href="#DejaVuSans-37" x="238.964844"/>
     </g>
    </g>
    <g id="line2d_27">
     <path d="M 234.91375 129.088787 
L 244.91375 129.088787 
L 254.91375 129.088787 
" style="fill: none; stroke: #c32bc2; stroke-opacity: 0.2; stroke-width: 3; stroke-linecap: square"/>
    </g>
    <g id="text_19">
     <!-- Size:8 -->
     <g transform="translate(262.91375 132.588787)scale(0.1 -0.1)">
      <defs>
       <path id="DejaVuSans-38" d="M 2034 2216 
Q 1584 2216 1326 1975 
Q 1069 1734 1069 1313 
Q 1069 891 1326 650 
Q 1584 409 2034 409 
Q 2484 409 2743 651 
Q 3003 894 3003 1313 
Q 3003 1734 2745 1975 
Q 2488 2216 2034 2216 
z
M 1403 2484 
Q 997 2584 770 2862 
Q 544 3141 544 3541 
Q 544 4100 942 4425 
Q 1341 4750 2034 4750 
Q 2731 4750 3128 4425 
Q 3525 4100 3525 3541 
Q 3525 3141 3298 2862 
Q 3072 2584 2669 2484 
Q 3125 2378 3379 2068 
Q 3634 1759 3634 1313 
Q 3634 634 3220 271 
Q 2806 -91 2034 -91 
Q 1263 -91 848 271 
Q 434 634 434 1313 
Q 434 1759 690 2068 
Q 947 2378 1403 2484 
z
M 1172 3481 
Q 1172 3119 1398 2916 
Q 1625 2713 2034 2713 
Q 2441 2713 2670 2916 
Q 2900 3119 2900 3481 
Q 2900 3844 2670 4047 
Q 2441 4250 2034 4250 
Q 1625 4250 1398 4047 
Q 1172 3844 1172 3481 
z
" transform="scale(0.015625)"/>
      </defs>
      <use xlink:href="#DejaVuSans-53"/>
      <use xlink:href="#DejaVuSans-69" x="63.476562"/>
      <use xlink:href="#DejaVuSans-7a" x="91.259766"/>
      <use xlink:href="#DejaVuSans-65" x="143.75"/>
      <use xlink:href="#DejaVuSans-3a" x="205.273438"/>
      <use xlink:href="#DejaVuSans-38" x="238.964844"/>
     </g>
    </g>
    <g id="line2d_28">
     <path d="M 234.91375 143.766912 
L 244.91375 143.766912 
L 254.91375 143.766912 
" style="fill: none; stroke: #bbb2d5; stroke-opacity: 0.2; stroke-width: 3; stroke-linecap: square"/>
    </g>
    <g id="text_20">
     <!-- Size:9 -->
     <g transform="translate(262.91375 147.266912)scale(0.1 -0.1)">
      <defs>
       <path id="DejaVuSans-39" d="M 703 97 
L 703 672 
Q 941 559 1184 500 
Q 1428 441 1663 441 
Q 2288 441 2617 861 
Q 2947 1281 2994 2138 
Q 2813 1869 2534 1725 
Q 2256 1581 1919 1581 
Q 1219 1581 811 2004 
Q 403 2428 403 3163 
Q 403 3881 828 4315 
Q 1253 4750 1959 4750 
Q 2769 4750 3195 4129 
Q 3622 3509 3622 2328 
Q 3622 1225 3098 567 
Q 2575 -91 1691 -91 
Q 1453 -91 1209 -44 
Q 966 3 703 97 
z
M 1959 2075 
Q 2384 2075 2632 2365 
Q 2881 2656 2881 3163 
Q 2881 3666 2632 3958 
Q 2384 4250 1959 4250 
Q 1534 4250 1286 3958 
Q 1038 3666 1038 3163 
Q 1038 2656 1286 2365 
Q 1534 2075 1959 2075 
z
" transform="scale(0.015625)"/>
      </defs>
      <use xlink:href="#DejaVuSans-53"/>
      <use xlink:href="#DejaVuSans-69" x="63.476562"/>
      <use xlink:href="#DejaVuSans-7a" x="91.259766"/>
      <use xlink:href="#DejaVuSans-65" x="143.75"/>
      <use xlink:href="#DejaVuSans-3a" x="205.273438"/>
      <use xlink:href="#DejaVuSans-39" x="238.964844"/>
     </g>
    </g>
    <g id="line2d_29">
     <path d="M 234.91375 158.445037 
L 244.91375 158.445037 
L 254.91375 158.445037 
" style="fill: none; stroke: #38141e; stroke-opacity: 0.8; stroke-width: 3; stroke-linecap: square"/>
    </g>
    <g id="text_21">
     <!-- Size:10 -->
     <g transform="translate(262.91375 161.945037)scale(0.1 -0.1)">
      <use xlink:href="#DejaVuSans-53"/>
      <use xlink:href="#DejaVuSans-69" x="63.476562"/>
      <use xlink:href="#DejaVuSans-7a" x="91.259766"/>
      <use xlink:href="#DejaVuSans-65" x="143.75"/>
      <use xlink:href="#DejaVuSans-3a" x="205.273438"/>
      <use xlink:href="#DejaVuSans-31" x="238.964844"/>
      <use xlink:href="#DejaVuSans-30" x="302.587891"/>
     </g>
    </g>
   </g>
  </g>
 </g>
 <defs>
  <clipPath id="p7c0f3efba2">
   <rect x="50.14375" y="9.981875" width="167.4" height="163.08"/>
  </clipPath>
 </defs>
</svg>
